<?xml version="1.0" encoding="utf-8"?>
<!-- Generator: Adobe Illustrator 19.1.0, SVG Export Plug-In . SVG Version: 6.00 Build 0)  -->
<svg version="1.1" id="_x2014_ÎÓÈ_x5F_1" xmlns="http://www.w3.org/2000/svg" xmlns:xlink="http://www.w3.org/1999/xlink"
	 x="0px" y="0px" viewBox="0 0 2000 454" style="enable-background:new 0 0 2000 454;" xml:space="preserve">
<style type="text/css">
	.st0{opacity:0.5;fill:#B6B6B6;}
	.st1{opacity:0.5;fill:#AFAFAF;}
	.st2{opacity:0.5;fill:#D6D6D6;}
	.st3{opacity:0.5;fill:#E2E2E2;}
	.st4{opacity:0.5;fill:#B4B4B4;}
	.st5{opacity:0.5;fill:#C1C1C1;}
</style>
<symbol  id="New_Symbol" viewBox="-499 -225.9 998 451.9">
	<polygon class="st0" points="390.1,0 372,0 372,18.8 390.1,18.8 	"/>
	<polygon class="st0" points="426.4,-18.8 408.2,-18.8 408.2,0 426.4,0 	"/>
	<polygon class="st0" points="444.6,-56.5 426.4,-56.5 426.4,-37.6 444.6,-37.6 	"/>
	<polygon class="st1" points="426.4,-37.7 408.2,-37.7 408.2,-18.8 426.4,-18.8 	"/>
	<polygon class="st0" points="444.6,-37.7 426.4,-37.7 426.4,-18.8 444.6,-18.8 	"/>
	<polygon class="st0" points="480.8,-94.2 462.7,-94.2 462.7,-75.3 480.8,-75.3 	"/>
	<polygon class="st0" points="462.7,-75.3 444.5,-75.3 444.5,-56.5 462.7,-56.5 	"/>
	<polygon class="st2" points="480.8,-75.3 462.7,-75.3 462.7,-56.5 480.8,-56.5 	"/>
	<polygon class="st0" points="499,-94.2 480.8,-94.2 480.8,-75.3 499,-75.3 	"/>
	<polygon class="st3" points="499,-113 480.8,-113 480.8,-94.1 499,-94.1 	"/>
	<polygon class="st0" points="299.4,18.8 281.2,18.8 281.2,37.7 299.4,37.7 	"/>
	<polygon class="st1" points="281.3,37.6 263.1,37.6 263.1,56.5 281.3,56.5 	"/>
	<polygon class="st0" points="335.7,0 317.5,0 317.5,18.8 335.7,18.8 	"/>
	<polygon class="st0" points="372,-56.5 353.8,-56.5 353.8,-37.6 372,-37.6 	"/>
	<polygon class="st0" points="353.8,-37.7 335.7,-37.7 335.7,-18.8 353.8,-18.8 	"/>
	<polygon class="st0" points="390.1,-56.5 372,-56.5 372,-37.6 390.1,-37.6 	"/>
	<polygon class="st0" points="408.3,-94.2 390.1,-94.2 390.1,-75.3 408.3,-75.3 	"/>
	<polygon class="st0" points="426.4,-94.2 408.2,-94.2 408.2,-75.3 426.4,-75.3 	"/>
	<polygon class="st2" points="444.6,-131.8 426.4,-131.8 426.4,-113 444.6,-113 	"/>
	<polygon class="st4" points="426.4,-113 408.2,-113 408.2,-94.1 426.4,-94.1 	"/>
	<polygon class="st0" points="444.6,-113 426.4,-113 426.4,-94.1 444.6,-94.1 	"/>
	<polygon class="st0" points="462.7,-131.8 444.5,-131.8 444.5,-113 462.7,-113 	"/>
	<polygon class="st5" points="480.8,-169.5 462.7,-169.5 462.7,-150.6 480.8,-150.6 	"/>
	<polygon class="st2" points="462.7,-150.6 444.5,-150.6 444.5,-131.8 462.7,-131.8 	"/>
	<polygon class="st2" points="480.8,-150.6 462.7,-150.6 462.7,-131.8 480.8,-131.8 	"/>
	<polygon class="st5" points="499,-169.5 480.8,-169.5 480.8,-150.6 499,-150.6 	"/>
	<polygon class="st5" points="499,-188.3 480.8,-188.3 480.8,-169.4 499,-169.4 	"/>
	<polygon class="st0" points="154.2,18.8 136.1,18.8 136.1,37.7 154.2,37.7 	"/>
	<polygon class="st0" points="154.2,37.6 136.1,37.6 136.1,56.5 154.2,56.5 	"/>
	<polygon class="st0" points="172.4,18.8 154.2,18.8 154.2,37.7 172.4,37.7 	"/>
	<polygon class="st0" points="190.5,-18.8 172.4,-18.8 172.4,0 190.5,0 	"/>
	<polygon class="st0" points="172.4,0 154.2,0 154.2,18.8 172.4,18.8 	"/>
	<polygon class="st0" points="190.5,0 172.4,0 172.4,18.8 190.5,18.8 	"/>
	<polygon class="st3" points="99.8,75.3 81.6,75.3 81.6,94.2 99.8,94.2 	"/>
	<polygon class="st0" points="226.8,-56.5 208.7,-56.5 208.7,-37.6 226.8,-37.6 	"/>
	<polygon class="st0" points="208.7,-37.7 190.5,-37.7 190.5,-18.8 208.7,-18.8 	"/>
	<polygon class="st0" points="245,-56.5 226.8,-56.5 226.8,-37.6 245,-37.6 	"/>
	<polygon class="st0" points="263.1,-94.2 244.9,-94.2 244.9,-75.3 263.1,-75.3 	"/>
	<polygon class="st0" points="263.1,-75.3 244.9,-75.3 244.9,-56.5 263.1,-56.5 	"/>
	<polygon class="st2" points="281.3,-94.2 263.1,-94.2 263.1,-75.3 281.3,-75.3 	"/>
	<polygon class="st0" points="299.4,-131.8 281.2,-131.8 281.2,-113 299.4,-113 	"/>
	<polygon class="st0" points="281.3,-113 263.1,-113 263.1,-94.1 281.3,-94.1 	"/>
	<polygon class="st0" points="299.4,-113 281.2,-113 281.2,-94.1 299.4,-94.1 	"/>
	<polygon class="st2" points="317.5,-131.8 299.4,-131.8 299.4,-113 317.5,-113 	"/>
	<polygon class="st5" points="335.7,-169.5 317.5,-169.5 317.5,-150.6 335.7,-150.6 	"/>
	<polygon class="st2" points="317.5,-150.6 299.4,-150.6 299.4,-131.8 317.5,-131.8 	"/>
	<polygon class="st2" points="335.7,-150.6 317.5,-150.6 317.5,-131.8 335.7,-131.8 	"/>
	<polygon class="st5" points="353.8,-169.5 335.7,-169.5 335.7,-150.6 353.8,-150.6 	"/>
	<polygon class="st5" points="372,-207.1 353.8,-207.1 353.8,-188.3 372,-188.3 	"/>
	<polygon class="st5" points="353.8,-188.3 335.7,-188.3 335.7,-169.4 353.8,-169.4 	"/>
	<polygon class="st5" points="372,-188.3 353.8,-188.3 353.8,-169.4 372,-169.4 	"/>
	<polygon class="st5" points="390.1,-207.1 372,-207.1 372,-188.3 390.1,-188.3 	"/>
	<polygon class="st5" points="390.1,-225.9 372,-225.9 372,-207.1 390.1,-207.1 	"/>
	<polygon class="st5" points="408.3,-225.9 390.1,-225.9 390.1,-207.1 408.3,-207.1 	"/>
	<polygon class="st0" points="154.2,-56.5 136.1,-56.5 136.1,-37.6 154.2,-37.6 	"/>
	<polygon class="st0" points="136.1,-37.7 117.9,-37.7 117.9,-18.8 136.1,-18.8 	"/>
	<polygon class="st3" points="154.2,-37.7 136.1,-37.7 136.1,-18.8 154.2,-18.8 	"/>
	<polygon class="st0" points="172.4,-56.5 154.2,-56.5 154.2,-37.6 172.4,-37.6 	"/>
	<polygon class="st0" points="172.4,-75.3 154.2,-75.3 154.2,-56.5 172.4,-56.5 	"/>
	<polygon class="st0" points="190.5,-75.3 172.4,-75.3 172.4,-56.5 190.5,-56.5 	"/>
	<polygon class="st0" points="208.7,-94.2 190.5,-94.2 190.5,-75.3 208.7,-75.3 	"/>
	<polygon class="st0" points="226.8,-131.8 208.7,-131.8 208.7,-113 226.8,-113 	"/>
	<polygon class="st0" points="208.7,-113 190.5,-113 190.5,-94.1 208.7,-94.1 	"/>
	<polygon class="st2" points="226.8,-113 208.7,-113 208.7,-94.1 226.8,-94.1 	"/>
	<polygon class="st2" points="245,-131.8 226.8,-131.8 226.8,-113 245,-113 	"/>
	<polygon class="st5" points="263.1,-169.5 244.9,-169.5 244.9,-150.6 263.1,-150.6 	"/>
	<polygon class="st2" points="245,-150.6 226.8,-150.6 226.8,-131.8 245,-131.8 	"/>
	<polygon class="st2" points="263.1,-150.6 244.9,-150.6 244.9,-131.8 263.1,-131.8 	"/>
	<polygon class="st5" points="281.3,-169.5 263.1,-169.5 263.1,-150.6 281.3,-150.6 	"/>
	<polygon class="st5" points="299.4,-207.1 281.2,-207.1 281.2,-188.3 299.4,-188.3 	"/>
	<polygon class="st5" points="281.3,-188.3 263.1,-188.3 263.1,-169.4 281.3,-169.4 	"/>
	<polygon class="st5" points="299.4,-188.3 281.2,-188.3 281.2,-169.4 299.4,-169.4 	"/>
	<polygon class="st5" points="317.5,-207.1 299.4,-207.1 299.4,-188.3 317.5,-188.3 	"/>
	<polygon class="st5" points="317.5,-225.9 299.4,-225.9 299.4,-207.1 317.5,-207.1 	"/>
	<polygon class="st5" points="335.7,-225.9 317.5,-225.9 317.5,-207.1 335.7,-207.1 	"/>
	<polygon class="st0" points="27.2,75.3 9.1,75.3 9.1,94.2 27.2,94.2 	"/>
	<polygon class="st0" points="45.4,75.3 27.2,75.3 27.2,94.2 45.4,94.2 	"/>
	<polygon class="st0" points="63.5,56.5 45.4,56.5 45.4,75.3 63.5,75.3 	"/>
	<polygon class="st0" points="81.7,18.8 63.5,18.8 63.5,37.7 81.7,37.7 	"/>
	<polygon class="st0" points="81.7,37.6 63.5,37.6 63.5,56.5 81.7,56.5 	"/>
	<polygon class="st0" points="118,-18.8 99.8,-18.8 99.8,0 118,0 	"/>
	<polygon class="st0" points="99.8,0 81.6,0 81.6,18.8 99.8,18.8 	"/>
	<polygon class="st0" points="118,0 99.8,0 99.8,18.8 118,18.8 	"/>
	<polygon class="st0" points="136.1,-94.2 117.9,-94.2 117.9,-75.3 136.1,-75.3 	"/>
	<polygon class="st0" points="154.2,-131.8 136.1,-131.8 136.1,-113 154.2,-113 	"/>
	<polygon class="st0" points="136.1,-113 117.9,-113 117.9,-94.1 136.1,-94.1 	"/>
	<polygon class="st2" points="172.4,-131.8 154.2,-131.8 154.2,-113 172.4,-113 	"/>
	<polygon class="st5" points="190.5,-169.5 172.4,-169.5 172.4,-150.6 190.5,-150.6 	"/>
	<polygon class="st2" points="172.4,-150.6 154.2,-150.6 154.2,-131.8 172.4,-131.8 	"/>
	<polygon class="st2" points="190.5,-150.6 172.4,-150.6 172.4,-131.8 190.5,-131.8 	"/>
	<polygon class="st5" points="208.7,-169.5 190.5,-169.5 190.5,-150.6 208.7,-150.6 	"/>
	<polygon class="st5" points="226.8,-207.1 208.7,-207.1 208.7,-188.3 226.8,-188.3 	"/>
	<polygon class="st5" points="208.7,-188.3 190.5,-188.3 190.5,-169.4 208.7,-169.4 	"/>
	<polygon class="st5" points="226.8,-188.3 208.7,-188.3 208.7,-169.4 226.8,-169.4 	"/>
	<polygon class="st5" points="245,-207.1 226.8,-207.1 226.8,-188.3 245,-188.3 	"/>
	<polygon class="st5" points="245,-225.9 226.8,-225.9 226.8,-207.1 245,-207.1 	"/>
	<polygon class="st5" points="263.1,-225.9 244.9,-225.9 244.9,-207.1 263.1,-207.1 	"/>
	<polygon class="st0" points="-63.5,94.1 -81.7,94.1 -81.7,113 -63.5,113 	"/>
	<polygon class="st3" points="-45.4,75.3 -63.5,75.3 -63.5,94.2 -45.4,94.2 	"/>
	<polygon class="st0" points="-9.1,56.5 -27.2,56.5 -27.2,75.3 -9.1,75.3 	"/>
	<polygon class="st0" points="-9.1,37.6 -27.2,37.6 -27.2,56.5 -9.1,56.5 	"/>
	<polygon class="st0" points="45.4,-18.8 27.2,-18.8 27.2,0 45.4,0 	"/>
	<polygon class="st0" points="27.2,0 9.1,0 9.1,18.8 27.2,18.8 	"/>
	<polygon class="st0" points="45.4,0 27.2,0 27.2,18.8 45.4,18.8 	"/>
	<polygon class="st0" points="63.5,-37.7 45.4,-37.7 45.4,-18.8 63.5,-18.8 	"/>
	<polygon class="st0" points="81.7,-37.7 63.5,-37.7 63.5,-18.8 81.7,-18.8 	"/>
	<polygon class="st0" points="99.8,-56.5 81.6,-56.5 81.6,-37.6 99.8,-37.6 	"/>
	<polygon class="st0" points="118,-94.2 99.8,-94.2 99.8,-75.3 118,-75.3 	"/>
	<polygon class="st0" points="99.8,-75.3 81.6,-75.3 81.6,-56.5 99.8,-56.5 	"/>
	<polygon class="st0" points="118,-75.3 99.8,-75.3 99.8,-56.5 118,-56.5 	"/>
	<polygon class="st5" points="136.1,-169.5 117.9,-169.5 117.9,-150.6 136.1,-150.6 	"/>
	<polygon class="st5" points="154.2,-207.1 136.1,-207.1 136.1,-188.3 154.2,-188.3 	"/>
	<polygon class="st5" points="136.1,-188.3 117.9,-188.3 117.9,-169.4 136.1,-169.4 	"/>
	<polygon class="st5" points="154.2,-188.3 136.1,-188.3 136.1,-169.4 154.2,-169.4 	"/>
	<polygon class="st5" points="172.4,-207.1 154.2,-207.1 154.2,-188.3 172.4,-188.3 	"/>
	<polygon class="st5" points="172.4,-225.9 154.2,-225.9 154.2,-207.1 172.4,-207.1 	"/>
	<polygon class="st5" points="190.5,-225.9 172.4,-225.9 172.4,-207.1 190.5,-207.1 	"/>
	<polygon class="st0" points="-136.1,113 -154.2,113 -154.2,131.8 -136.1,131.8 	"/>
	<polygon class="st0" points="-117.9,94.1 -136.1,94.1 -136.1,113 -117.9,113 	"/>
	<polygon class="st0" points="-99.8,56.5 -118,56.5 -118,75.3 -99.8,75.3 	"/>
	<polygon class="st0" points="-99.8,75.3 -118,75.3 -118,94.2 -99.8,94.2 	"/>
	<polygon class="st0" points="-63.5,18.8 -81.7,18.8 -81.7,37.7 -63.5,37.7 	"/>
	<polygon class="st0" points="-81.6,37.6 -99.8,37.6 -99.8,56.5 -81.6,56.5 	"/>
	<polygon class="st0" points="-63.5,37.6 -81.7,37.6 -81.7,56.5 -63.5,56.5 	"/>
	<polygon class="st3" points="-27.2,-18.8 -45.4,-18.8 -45.4,0 -27.2,0 	"/>
	<polygon class="st0" points="-45.4,0 -63.5,0 -63.5,18.8 -45.4,18.8 	"/>
	<polygon class="st0" points="-27.2,0 -45.4,0 -45.4,18.8 -27.2,18.8 	"/>
	<polygon class="st0" points="-9.1,-18.8 -27.2,-18.8 -27.2,0 -9.1,0 	"/>
	<polygon class="st0" points="9.1,-56.5 -9.1,-56.5 -9.1,-37.6 9.1,-37.6 	"/>
	<polygon class="st4" points="-9.1,-37.7 -27.2,-37.7 -27.2,-18.8 -9.1,-18.8 	"/>
	<polygon class="st0" points="9.1,-37.7 -9.1,-37.7 -9.1,-18.8 9.1,-18.8 	"/>
	<polygon class="st0" points="27.2,-56.5 9.1,-56.5 9.1,-37.6 27.2,-37.6 	"/>
	<polygon class="st0" points="45.4,-94.2 27.2,-94.2 27.2,-75.3 45.4,-75.3 	"/>
	<polygon class="st0" points="27.2,-75.3 9.1,-75.3 9.1,-56.5 27.2,-56.5 	"/>
	<polygon class="st0" points="45.4,-75.3 27.2,-75.3 27.2,-56.5 45.4,-56.5 	"/>
	<polygon class="st0" points="63.5,-94.2 45.4,-94.2 45.4,-75.3 63.5,-75.3 	"/>
	<polygon class="st0" points="81.7,-131.8 63.5,-131.8 63.5,-113 81.7,-113 	"/>
	<polygon class="st0" points="81.7,-113 63.5,-113 63.5,-94.1 81.7,-94.1 	"/>
	<polygon class="st2" points="99.8,-131.8 81.6,-131.8 81.6,-113 99.8,-113 	"/>
	<polygon class="st5" points="118,-169.5 99.8,-169.5 99.8,-150.6 118,-150.6 	"/>
	<polygon class="st2" points="99.8,-150.6 81.6,-150.6 81.6,-131.8 99.8,-131.8 	"/>
	<polygon class="st2" points="118,-150.6 99.8,-150.6 99.8,-131.8 118,-131.8 	"/>
	<polygon class="st0" points="-190.5,94.1 -208.7,94.1 -208.7,113 -190.5,113 	"/>
	<polygon class="st0" points="-172.4,56.5 -190.5,56.5 -190.5,75.3 -172.4,75.3 	"/>
	<polygon class="st0" points="-190.5,75.3 -208.7,75.3 -208.7,94.2 -190.5,94.2 	"/>
	<polygon class="st0" points="-154.2,56.5 -172.4,56.5 -172.4,75.3 -154.2,75.3 	"/>
	<polygon class="st0" points="-154.2,37.6 -172.4,37.6 -172.4,56.5 -154.2,56.5 	"/>
	<polygon class="st0" points="-136.1,37.6 -154.2,37.6 -154.2,56.5 -136.1,56.5 	"/>
	<polygon class="st0" points="-117.9,18.8 -136.1,18.8 -136.1,37.7 -117.9,37.7 	"/>
	<polygon class="st0" points="-99.8,-18.8 -118,-18.8 -118,0 -99.8,0 	"/>
	<polygon class="st0" points="-117.9,0 -136.1,0 -136.1,18.8 -117.9,18.8 	"/>
	<polygon class="st0" points="-99.8,0 -118,0 -118,18.8 -99.8,18.8 	"/>
	<polygon class="st0" points="-81.6,-18.8 -99.8,-18.8 -99.8,0 -81.6,0 	"/>
	<polygon class="st0" points="-63.5,-56.5 -81.7,-56.5 -81.7,-37.6 -63.5,-37.6 	"/>
	<polygon class="st0" points="-81.6,-37.7 -99.8,-37.7 -99.8,-18.8 -81.6,-18.8 	"/>
	<polygon class="st0" points="-45.4,-56.5 -63.5,-56.5 -63.5,-37.6 -45.4,-37.6 	"/>
	<polygon class="st0" points="-27.2,-94.2 -45.4,-94.2 -45.4,-75.3 -27.2,-75.3 	"/>
	<polygon class="st0" points="-45.4,-75.3 -63.5,-75.3 -63.5,-56.5 -45.4,-56.5 	"/>
	<polygon class="st0" points="-27.2,-75.3 -45.4,-75.3 -45.4,-56.5 -27.2,-56.5 	"/>
	<polygon class="st0" points="-9.1,-94.2 -27.2,-94.2 -27.2,-75.3 -9.1,-75.3 	"/>
	<polygon class="st0" points="9.1,-131.8 -9.1,-131.8 -9.1,-113 9.1,-113 	"/>
	<polygon class="st0" points="-9.1,-113 -27.2,-113 -27.2,-94.1 -9.1,-94.1 	"/>
	<polygon class="st2" points="9.1,-113 -9.1,-113 -9.1,-94.1 9.1,-94.1 	"/>
	<polygon class="st2" points="27.2,-131.8 9.1,-131.8 9.1,-113 27.2,-113 	"/>
	<polygon class="st5" points="45.4,-169.5 27.2,-169.5 27.2,-150.6 45.4,-150.6 	"/>
	<polygon class="st2" points="27.2,-150.6 9.1,-150.6 9.1,-131.8 27.2,-131.8 	"/>
	<polygon class="st2" points="45.4,-150.6 27.2,-150.6 27.2,-131.8 45.4,-131.8 	"/>
	<polygon class="st5" points="63.5,-169.5 45.4,-169.5 45.4,-150.6 63.5,-150.6 	"/>
	<polygon class="st5" points="81.7,-207.1 63.5,-207.1 63.5,-188.3 81.7,-188.3 	"/>
	<polygon class="st5" points="63.5,-188.3 45.4,-188.3 45.4,-169.4 63.5,-169.4 	"/>
	<polygon class="st5" points="81.7,-188.3 63.5,-188.3 63.5,-169.4 81.7,-169.4 	"/>
	<polygon class="st5" points="99.8,-207.1 81.6,-207.1 81.6,-188.3 99.8,-188.3 	"/>
	<polygon class="st5" points="99.8,-225.9 81.6,-225.9 81.6,-207.1 99.8,-207.1 	"/>
	<polygon class="st5" points="118,-225.9 99.8,-225.9 99.8,-207.1 118,-207.1 	"/>
	<polygon class="st0" points="-263.1,94.1 -281.3,94.1 -281.3,113 -263.1,113 	"/>
	<polygon class="st0" points="-244.9,56.5 -263.1,56.5 -263.1,75.3 -244.9,75.3 	"/>
	<polygon class="st0" points="-244.9,75.3 -263.1,75.3 -263.1,94.2 -244.9,94.2 	"/>
	<polygon class="st0" points="-226.8,56.5 -245,56.5 -245,75.3 -226.8,75.3 	"/>
	<polygon class="st0" points="-208.7,18.8 -226.8,18.8 -226.8,37.7 -208.7,37.7 	"/>
	<polygon class="st0" points="-226.8,37.6 -245,37.6 -245,56.5 -226.8,56.5 	"/>
	<polygon class="st0" points="-208.7,37.6 -226.8,37.6 -226.8,56.5 -208.7,56.5 	"/>
	<polygon class="st0" points="-172.4,-18.8 -190.5,-18.8 -190.5,0 -172.4,0 	"/>
	<polygon class="st0" points="-190.5,0 -208.7,0 -208.7,18.8 -190.5,18.8 	"/>
	<polygon class="st0" points="-172.4,0 -190.5,0 -190.5,18.8 -172.4,18.8 	"/>
	<polygon class="st3" points="-154.2,-18.8 -172.4,-18.8 -172.4,0 -154.2,0 	"/>
	<polygon class="st0" points="-136.1,-56.5 -154.2,-56.5 -154.2,-37.6 -136.1,-37.6 	"/>
	<polygon class="st0" points="-154.2,-37.7 -172.4,-37.7 -172.4,-18.8 -154.2,-18.8 	"/>
	<polygon class="st0" points="-136.1,-37.7 -154.2,-37.7 -154.2,-18.8 -136.1,-18.8 	"/>
	<polygon class="st0" points="-117.9,-56.5 -136.1,-56.5 -136.1,-37.6 -117.9,-37.6 	"/>
	<polygon class="st2" points="-99.8,-94.2 -118,-94.2 -118,-75.3 -99.8,-75.3 	"/>
	<polygon class="st0" points="-117.9,-75.3 -136.1,-75.3 -136.1,-56.5 -117.9,-56.5 	"/>
	<polygon class="st0" points="-99.8,-75.3 -118,-75.3 -118,-56.5 -99.8,-56.5 	"/>
	<polygon class="st3" points="-81.6,-94.2 -99.8,-94.2 -99.8,-75.3 -81.6,-75.3 	"/>
	<polygon class="st2" points="-63.5,-131.8 -81.7,-131.8 -81.7,-113 -63.5,-113 	"/>
	<polygon class="st0" points="-81.6,-113 -99.8,-113 -99.8,-94.1 -81.6,-94.1 	"/>
	<polygon class="st0" points="-63.5,-113 -81.7,-113 -81.7,-94.1 -63.5,-94.1 	"/>
	<polygon class="st2" points="-45.4,-131.8 -63.5,-131.8 -63.5,-113 -45.4,-113 	"/>
	<polygon class="st5" points="-27.2,-169.5 -45.4,-169.5 -45.4,-150.6 -27.2,-150.6 	"/>
	<polygon class="st2" points="-45.4,-150.6 -63.5,-150.6 -63.5,-131.8 -45.4,-131.8 	"/>
	<polygon class="st2" points="-27.2,-150.6 -45.4,-150.6 -45.4,-131.8 -27.2,-131.8 	"/>
	<polygon class="st5" points="-9.1,-169.5 -27.2,-169.5 -27.2,-150.6 -9.1,-150.6 	"/>
	<polygon class="st5" points="9.1,-207.1 -9.1,-207.1 -9.1,-188.3 9.1,-188.3 	"/>
	<polygon class="st5" points="-9.1,-188.3 -27.2,-188.3 -27.2,-169.4 -9.1,-169.4 	"/>
	<polygon class="st5" points="9.1,-188.3 -9.1,-188.3 -9.1,-169.4 9.1,-169.4 	"/>
	<polygon class="st5" points="27.2,-207.1 9.1,-207.1 9.1,-188.3 27.2,-188.3 	"/>
	<polygon class="st5" points="27.2,-225.9 9.1,-225.9 9.1,-207.1 27.2,-207.1 	"/>
	<polygon class="st5" points="45.4,-225.9 27.2,-225.9 27.2,-207.1 45.4,-207.1 	"/>
	<polygon class="st0" points="-444.5,188.3 -462.7,188.3 -462.7,207.1 -444.5,207.1 	"/>
	<polygon class="st0" points="-407,150.6 -425.2,150.6 -425.2,169.5 -407,169.5 	"/>
	<polygon class="st0" points="-353.8,94.1 -372,94.1 -372,113 -353.8,113 	"/>
	<polygon class="st0" points="-335.7,75.3 -353.8,75.3 -353.8,94.2 -335.7,94.2 	"/>
	<polygon class="st0" points="-299.4,56.5 -317.5,56.5 -317.5,75.3 -299.4,75.3 	"/>
	<polygon class="st0" points="-281.2,18.8 -299.4,18.8 -299.4,37.7 -281.2,37.7 	"/>
	<polygon class="st0" points="-281.2,37.6 -299.4,37.6 -299.4,56.5 -281.2,56.5 	"/>
	<polygon class="st0" points="-263.1,18.8 -281.3,18.8 -281.3,37.7 -263.1,37.7 	"/>
	<polygon class="st0" points="-244.9,-18.8 -263.1,-18.8 -263.1,0 -244.9,0 	"/>
	<polygon class="st0" points="-263.1,0 -281.3,0 -281.3,18.8 -263.1,18.8 	"/>
	<polygon class="st3" points="-244.9,0 -263.1,0 -263.1,18.8 -244.9,18.8 	"/>
	<polygon class="st0" points="-226.8,-18.8 -245,-18.8 -245,0 -226.8,0 	"/>
	<polygon class="st0" points="-208.7,-56.5 -226.8,-56.5 -226.8,-37.6 -208.7,-37.6 	"/>
	<polygon class="st0" points="-226.8,-37.7 -245,-37.7 -245,-18.8 -226.8,-18.8 	"/>
	<polygon class="st0" points="-208.7,-37.7 -226.8,-37.7 -226.8,-18.8 -208.7,-18.8 	"/>
	<polygon class="st0" points="-190.5,-56.5 -208.7,-56.5 -208.7,-37.6 -190.5,-37.6 	"/>
	<polygon class="st2" points="-172.4,-94.2 -190.5,-94.2 -190.5,-75.3 -172.4,-75.3 	"/>
	<polygon class="st0" points="-190.5,-75.3 -208.7,-75.3 -208.7,-56.5 -190.5,-56.5 	"/>
	<polygon class="st0" points="-172.4,-75.3 -190.5,-75.3 -190.5,-56.5 -172.4,-56.5 	"/>
	<polygon class="st0" points="-154.2,-94.2 -172.4,-94.2 -172.4,-75.3 -154.2,-75.3 	"/>
	<polygon class="st0" points="-136.1,-131.8 -154.2,-131.8 -154.2,-113 -136.1,-113 	"/>
	<polygon class="st2" points="-154.2,-113 -172.4,-113 -172.4,-94.1 -154.2,-94.1 	"/>
	<polygon class="st0" points="-136.1,-113 -154.2,-113 -154.2,-94.1 -136.1,-94.1 	"/>
	<polygon class="st2" points="-117.9,-131.8 -136.1,-131.8 -136.1,-113 -117.9,-113 	"/>
	<polygon class="st5" points="-99.8,-169.5 -118,-169.5 -118,-150.6 -99.8,-150.6 	"/>
	<polygon class="st2" points="-117.9,-150.6 -136.1,-150.6 -136.1,-131.8 -117.9,-131.8 	"/>
	<polygon class="st2" points="-99.8,-150.6 -118,-150.6 -118,-131.8 -99.8,-131.8 	"/>
	<polygon class="st5" points="-81.6,-169.5 -99.8,-169.5 -99.8,-150.6 -81.6,-150.6 	"/>
	<polygon class="st5" points="-63.5,-207.1 -81.7,-207.1 -81.7,-188.3 -63.5,-188.3 	"/>
	<polygon class="st5" points="-81.6,-188.3 -99.8,-188.3 -99.8,-169.4 -81.6,-169.4 	"/>
	<polygon class="st5" points="-63.5,-188.3 -81.7,-188.3 -81.7,-169.4 -63.5,-169.4 	"/>
	<polygon class="st5" points="-45.4,-207.1 -63.5,-207.1 -63.5,-188.3 -45.4,-188.3 	"/>
	<polygon class="st5" points="-45.4,-225.9 -63.5,-225.9 -63.5,-207.1 -45.4,-207.1 	"/>
	<polygon class="st5" points="-27.2,-225.9 -45.4,-225.9 -45.4,-207.1 -27.2,-207.1 	"/>
	<polygon class="st0" points="-444.5,131.8 -462.7,131.8 -462.7,150.6 -444.5,150.6 	"/>
	<polygon class="st0" points="-426.4,94.1 -444.6,94.1 -444.6,113 -426.4,113 	"/>
	<polygon class="st0" points="-444.5,113 -462.7,113 -462.7,131.8 -444.5,131.8 	"/>
	<polygon class="st0" points="-408.2,75.3 -426.4,75.3 -426.4,94.2 -408.2,94.2 	"/>
	<polygon class="st0" points="-390.1,75.3 -408.3,75.3 -408.3,94.2 -390.1,94.2 	"/>
	<polygon class="st0" points="-372,56.5 -390.1,56.5 -390.1,75.3 -372,75.3 	"/>
	<polygon class="st0" points="-353.8,18.8 -372,18.8 -372,37.7 -353.8,37.7 	"/>
	<polygon class="st0" points="-372,37.6 -390.1,37.6 -390.1,56.5 -372,56.5 	"/>
	<polygon class="st0" points="-353.8,37.6 -372,37.6 -372,56.5 -353.8,56.5 	"/>
	<polygon class="st0" points="-335.7,18.8 -353.8,18.8 -353.8,37.7 -335.7,37.7 	"/>
	<polygon class="st0" points="-317.5,-18.8 -335.7,-18.8 -335.7,0 -317.5,0 	"/>
	<polygon class="st0" points="-317.5,0 -335.7,0 -335.7,18.8 -317.5,18.8 	"/>
	<polygon class="st0" points="-299.4,-18.8 -317.5,-18.8 -317.5,0 -299.4,0 	"/>
	<polygon class="st0" points="-281.2,-56.5 -299.4,-56.5 -299.4,-37.6 -281.2,-37.6 	"/>
	<polygon class="st0" points="-299.4,-37.7 -317.5,-37.7 -317.5,-18.8 -299.4,-18.8 	"/>
	<polygon class="st4" points="-281.2,-37.7 -299.4,-37.7 -299.4,-18.8 -281.2,-18.8 	"/>
	<polygon class="st0" points="-263.1,-56.5 -281.3,-56.5 -281.3,-37.6 -263.1,-37.6 	"/>
	<polygon class="st0" points="-244.9,-94.2 -263.1,-94.2 -263.1,-75.3 -244.9,-75.3 	"/>
	<polygon class="st0" points="-263.1,-75.3 -281.3,-75.3 -281.3,-56.5 -263.1,-56.5 	"/>
	<polygon class="st0" points="-244.9,-75.3 -263.1,-75.3 -263.1,-56.5 -244.9,-56.5 	"/>
	<polygon class="st0" points="-226.8,-94.2 -245,-94.2 -245,-75.3 -226.8,-75.3 	"/>
	<polygon class="st2" points="-208.7,-131.8 -226.8,-131.8 -226.8,-113 -208.7,-113 	"/>
	<polygon class="st3" points="-226.8,-113 -245,-113 -245,-94.1 -226.8,-94.1 	"/>
	<polygon class="st0" points="-208.7,-113 -226.8,-113 -226.8,-94.1 -208.7,-94.1 	"/>
	<polygon class="st0" points="-190.5,-131.8 -208.7,-131.8 -208.7,-113 -190.5,-113 	"/>
	<polygon class="st5" points="-172.4,-169.5 -190.5,-169.5 -190.5,-150.6 -172.4,-150.6 	"/>
	<polygon class="st2" points="-190.5,-150.6 -208.7,-150.6 -208.7,-131.8 -190.5,-131.8 	"/>
	<polygon class="st2" points="-172.4,-150.6 -190.5,-150.6 -190.5,-131.8 -172.4,-131.8 	"/>
	<polygon class="st5" points="-154.2,-169.5 -172.4,-169.5 -172.4,-150.6 -154.2,-150.6 	"/>
	<polygon class="st5" points="-136.1,-207.1 -154.2,-207.1 -154.2,-188.3 -136.1,-188.3 	"/>
	<polygon class="st5" points="-154.2,-188.3 -172.4,-188.3 -172.4,-169.4 -154.2,-169.4 	"/>
	<polygon class="st5" points="-136.1,-188.3 -154.2,-188.3 -154.2,-169.4 -136.1,-169.4 	"/>
	<polygon class="st5" points="-117.9,-207.1 -136.1,-207.1 -136.1,-188.3 -117.9,-188.3 	"/>
	<polygon class="st5" points="-117.9,-225.9 -136.1,-225.9 -136.1,-207.1 -117.9,-207.1 	"/>
	<polygon class="st5" points="-99.8,-225.9 -118,-225.9 -118,-207.1 -99.8,-207.1 	"/>
	<polygon class="st0" points="-462.7,56.5 -480.8,56.5 -480.8,75.3 -462.7,75.3 	"/>
	<polygon class="st0" points="-480.8,75.3 -499,75.3 -499,94.2 -480.8,94.2 	"/>
	<polygon class="st0" points="-462.7,75.3 -480.8,75.3 -480.8,94.2 -462.7,94.2 	"/>
	<polygon class="st0" points="-426.4,18.8 -444.6,18.8 -444.6,37.7 -426.4,37.7 	"/>
	<polygon class="st3" points="-444.5,37.6 -462.7,37.6 -462.7,56.5 -444.5,56.5 	"/>
	<polygon class="st0" points="-426.4,37.6 -444.6,37.6 -444.6,56.5 -426.4,56.5 	"/>
	<polygon class="st0" points="-408.2,18.8 -426.4,18.8 -426.4,37.7 -408.2,37.7 	"/>
	<polygon class="st0" points="-390.1,-18.8 -408.3,-18.8 -408.3,0 -390.1,0 	"/>
	<polygon class="st0" points="-408.2,0 -426.4,0 -426.4,18.8 -408.2,18.8 	"/>
	<polygon class="st4" points="-390.1,0 -408.3,0 -408.3,18.8 -390.1,18.8 	"/>
	<polygon class="st3" points="-372,-18.8 -390.1,-18.8 -390.1,0 -372,0 	"/>
	<polygon class="st0" points="-353.8,-56.5 -372,-56.5 -372,-37.6 -353.8,-37.6 	"/>
	<polygon class="st0" points="-372,-37.7 -390.1,-37.7 -390.1,-18.8 -372,-18.8 	"/>
	<polygon class="st0" points="-353.8,-37.7 -372,-37.7 -372,-18.8 -353.8,-18.8 	"/>
	<polygon class="st0" points="-335.7,-56.5 -353.8,-56.5 -353.8,-37.6 -335.7,-37.6 	"/>
	<polygon class="st0" points="-317.5,-94.2 -335.7,-94.2 -335.7,-75.3 -317.5,-75.3 	"/>
	<polygon class="st0" points="-335.7,-75.3 -353.8,-75.3 -353.8,-56.5 -335.7,-56.5 	"/>
	<polygon class="st2" points="-317.5,-75.3 -335.7,-75.3 -335.7,-56.5 -317.5,-56.5 	"/>
	<polygon class="st0" points="-299.4,-94.2 -317.5,-94.2 -317.5,-75.3 -299.4,-75.3 	"/>
	<polygon class="st0" points="-281.2,-131.8 -299.4,-131.8 -299.4,-113 -281.2,-113 	"/>
	<polygon class="st0" points="-299.4,-113 -317.5,-113 -317.5,-94.1 -299.4,-94.1 	"/>
	<polygon class="st0" points="-281.2,-113 -299.4,-113 -299.4,-94.1 -281.2,-94.1 	"/>
	<polygon class="st2" points="-263.1,-131.8 -281.3,-131.8 -281.3,-113 -263.1,-113 	"/>
	<polygon class="st5" points="-244.9,-169.5 -263.1,-169.5 -263.1,-150.6 -244.9,-150.6 	"/>
	<polygon class="st2" points="-263.1,-150.6 -281.3,-150.6 -281.3,-131.8 -263.1,-131.8 	"/>
	<polygon class="st2" points="-244.9,-150.6 -263.1,-150.6 -263.1,-131.8 -244.9,-131.8 	"/>
	<polygon class="st5" points="-226.8,-169.5 -245,-169.5 -245,-150.6 -226.8,-150.6 	"/>
	<polygon class="st5" points="-208.7,-207.1 -226.8,-207.1 -226.8,-188.3 -208.7,-188.3 	"/>
	<polygon class="st5" points="-226.8,-188.3 -245,-188.3 -245,-169.4 -226.8,-169.4 	"/>
	<polygon class="st5" points="-208.7,-188.3 -226.8,-188.3 -226.8,-169.4 -208.7,-169.4 	"/>
	<polygon class="st5" points="-190.5,-207.1 -208.7,-207.1 -208.7,-188.3 -190.5,-188.3 	"/>
	<polygon class="st5" points="-190.5,-225.9 -208.7,-225.9 -208.7,-207.1 -190.5,-207.1 	"/>
	<polygon class="st5" points="-172.4,-225.9 -190.5,-225.9 -190.5,-207.1 -172.4,-207.1 	"/>
	<polygon class="st0" points="-480.8,18.8 -499,18.8 -499,37.7 -480.8,37.7 	"/>
	<polygon class="st3" points="-462.7,-18.8 -480.8,-18.8 -480.8,0 -462.7,0 	"/>
	<polygon class="st0" points="-462.7,0 -480.8,0 -480.8,18.8 -462.7,18.8 	"/>
	<polygon class="st0" points="-444.5,-18.8 -462.7,-18.8 -462.7,0 -444.5,0 	"/>
	<polygon class="st0" points="-426.4,-56.5 -444.6,-56.5 -444.6,-37.6 -426.4,-37.6 	"/>
	<polygon class="st0" points="-444.5,-37.7 -462.7,-37.7 -462.7,-18.8 -444.5,-18.8 	"/>
	<polygon class="st0" points="-426.4,-37.7 -444.6,-37.7 -444.6,-18.8 -426.4,-18.8 	"/>
	<polygon class="st0" points="-408.2,-56.5 -426.4,-56.5 -426.4,-37.6 -408.2,-37.6 	"/>
	<polygon class="st0" points="-390.1,-94.2 -408.3,-94.2 -408.3,-75.3 -390.1,-75.3 	"/>
	<polygon class="st0" points="-408.2,-75.3 -426.4,-75.3 -426.4,-56.5 -408.2,-56.5 	"/>
	<polygon class="st0" points="-390.1,-75.3 -408.3,-75.3 -408.3,-56.5 -390.1,-56.5 	"/>
	<polygon class="st0" points="-372,-94.2 -390.1,-94.2 -390.1,-75.3 -372,-75.3 	"/>
	<polygon class="st2" points="-353.8,-131.8 -372,-131.8 -372,-113 -353.8,-113 	"/>
	<polygon class="st0" points="-372,-113 -390.1,-113 -390.1,-94.1 -372,-94.1 	"/>
	<polygon class="st0" points="-353.8,-113 -372,-113 -372,-94.1 -353.8,-94.1 	"/>
	<polygon class="st0" points="-335.7,-131.8 -353.8,-131.8 -353.8,-113 -335.7,-113 	"/>
	<polygon class="st5" points="-317.5,-169.5 -335.7,-169.5 -335.7,-150.6 -317.5,-150.6 	"/>
	<polygon class="st2" points="-335.7,-150.6 -353.8,-150.6 -353.8,-131.8 -335.7,-131.8 	"/>
	<polygon class="st2" points="-317.5,-150.6 -335.7,-150.6 -335.7,-131.8 -317.5,-131.8 	"/>
	<polygon class="st5" points="-299.4,-169.5 -317.5,-169.5 -317.5,-150.6 -299.4,-150.6 	"/>
	<polygon class="st5" points="-281.2,-207.1 -299.4,-207.1 -299.4,-188.3 -281.2,-188.3 	"/>
	<polygon class="st5" points="-299.4,-188.3 -317.5,-188.3 -317.5,-169.4 -299.4,-169.4 	"/>
	<polygon class="st5" points="-281.2,-188.3 -299.4,-188.3 -299.4,-169.4 -281.2,-169.4 	"/>
	<polygon class="st5" points="-263.1,-207.1 -281.3,-207.1 -281.3,-188.3 -263.1,-188.3 	"/>
	<polygon class="st5" points="-263.1,-225.9 -281.3,-225.9 -281.3,-207.1 -263.1,-207.1 	"/>
	<polygon class="st0" points="-480.8,-56.5 -499,-56.5 -499,-37.6 -480.8,-37.6 	"/>
	<polygon class="st2" points="-462.7,-94.2 -480.8,-94.2 -480.8,-75.3 -462.7,-75.3 	"/>
	<polygon class="st0" points="-480.8,-75.3 -499,-75.3 -499,-56.5 -480.8,-56.5 	"/>
	<polygon class="st0" points="-462.7,-75.3 -480.8,-75.3 -480.8,-56.5 -462.7,-56.5 	"/>
	<polygon class="st0" points="-444.5,-94.2 -462.7,-94.2 -462.7,-75.3 -444.5,-75.3 	"/>
	<polygon class="st2" points="-426.4,-131.8 -444.6,-131.8 -444.6,-113 -426.4,-113 	"/>
	<polygon class="st3" points="-444.5,-113 -462.7,-113 -462.7,-94.1 -444.5,-94.1 	"/>
	<polygon class="st2" points="-426.4,-113 -444.6,-113 -444.6,-94.1 -426.4,-94.1 	"/>
	<polygon class="st0" points="-408.2,-131.8 -426.4,-131.8 -426.4,-113 -408.2,-113 	"/>
	<polygon class="st5" points="-390.1,-169.5 -408.3,-169.5 -408.3,-150.6 -390.1,-150.6 	"/>
	<polygon class="st2" points="-408.2,-150.6 -426.4,-150.6 -426.4,-131.8 -408.2,-131.8 	"/>
	<polygon class="st2" points="-390.1,-150.6 -408.3,-150.6 -408.3,-131.8 -390.1,-131.8 	"/>
	<polygon class="st5" points="-372,-169.5 -390.1,-169.5 -390.1,-150.6 -372,-150.6 	"/>
	<polygon class="st5" points="-353.8,-207.1 -372,-207.1 -372,-188.3 -353.8,-188.3 	"/>
	<polygon class="st5" points="-372,-188.3 -390.1,-188.3 -390.1,-169.4 -372,-169.4 	"/>
	<polygon class="st5" points="-353.8,-188.3 -372,-188.3 -372,-169.4 -353.8,-169.4 	"/>
	<polygon class="st5" points="-335.7,-207.1 -353.8,-207.1 -353.8,-188.3 -335.7,-188.3 	"/>
	<polygon class="st5" points="-335.7,-225.9 -353.8,-225.9 -353.8,-207.1 -335.7,-207.1 	"/>
	<polygon class="st5" points="-317.5,-225.9 -335.7,-225.9 -335.7,-207.1 -317.5,-207.1 	"/>
	<polygon class="st0" points="-480.8,-131.8 -499,-131.8 -499,-113 -480.8,-113 	"/>
	<polygon class="st5" points="-462.7,-169.5 -480.8,-169.5 -480.8,-150.6 -462.7,-150.6 	"/>
	<polygon class="st2" points="-480.8,-150.6 -499,-150.6 -499,-131.8 -480.8,-131.8 	"/>
	<polygon class="st2" points="-462.7,-150.6 -480.8,-150.6 -480.8,-131.8 -462.7,-131.8 	"/>
	<polygon class="st5" points="-444.5,-169.5 -462.7,-169.5 -462.7,-150.6 -444.5,-150.6 	"/>
	<polygon class="st5" points="-426.4,-207.1 -444.6,-207.1 -444.6,-188.3 -426.4,-188.3 	"/>
	<polygon class="st5" points="-444.5,-188.3 -462.7,-188.3 -462.7,-169.4 -444.5,-169.4 	"/>
	<polygon class="st5" points="-426.4,-188.3 -444.6,-188.3 -444.6,-169.4 -426.4,-169.4 	"/>
	<polygon class="st5" points="-408.2,-207.1 -426.4,-207.1 -426.4,-188.3 -408.2,-188.3 	"/>
	<polygon class="st5" points="-408.2,-225.9 -426.4,-225.9 -426.4,-207.1 -408.2,-207.1 	"/>
	<polygon class="st5" points="-390.1,-225.9 -408.3,-225.9 -408.3,-207.1 -390.1,-207.1 	"/>
	<polygon class="st5" points="-480.8,-207.1 -499,-207.1 -499,-188.3 -480.8,-188.3 	"/>
	<polygon class="st5" points="-480.8,-225.9 -499,-225.9 -499,-207.1 -480.8,-207.1 	"/>
	<polygon class="st5" points="-462.7,-225.9 -480.8,-225.9 -480.8,-207.1 -462.7,-207.1 	"/>
	<polygon class="st0" points="208.7,37.6 190.5,37.6 190.5,56.5 208.7,56.5 	"/>
	<polygon class="st0" points="245,18.8 226.8,18.8 226.8,37.7 245,37.7 	"/>
	<polygon class="st0" points="263.1,-18.8 244.9,-18.8 244.9,0 263.1,0 	"/>
	<polygon class="st1" points="245,0 226.8,0 226.8,18.8 245,18.8 	"/>
	<polygon class="st0" points="281.3,-18.8 263.1,-18.8 263.1,0 281.3,0 	"/>
	<polygon class="st0" points="299.4,-56.5 281.2,-56.5 281.2,-37.6 299.4,-37.6 	"/>
	<polygon class="st0" points="299.4,-37.7 281.2,-37.7 281.2,-18.8 299.4,-18.8 	"/>
	<polygon class="st0" points="317.5,-56.5 299.4,-56.5 299.4,-37.6 317.5,-37.6 	"/>
	<polygon class="st0" points="335.7,-94.2 317.5,-94.2 317.5,-75.3 335.7,-75.3 	"/>
	<polygon class="st0" points="335.7,-75.3 317.5,-75.3 317.5,-56.5 335.7,-56.5 	"/>
	<polygon class="st0" points="372,-131.8 353.8,-131.8 353.8,-113 372,-113 	"/>
	<polygon class="st2" points="372,-113 353.8,-113 353.8,-94.1 372,-94.1 	"/>
	<polygon class="st2" points="390.1,-131.8 372,-131.8 372,-113 390.1,-113 	"/>
	<polygon class="st5" points="408.3,-169.5 390.1,-169.5 390.1,-150.6 408.3,-150.6 	"/>
	<polygon class="st2" points="390.1,-150.6 372,-150.6 372,-131.8 390.1,-131.8 	"/>
	<polygon class="st2" points="408.3,-150.6 390.1,-150.6 390.1,-131.8 408.3,-131.8 	"/>
	<polygon class="st5" points="426.4,-169.5 408.2,-169.5 408.2,-150.6 426.4,-150.6 	"/>
	<polygon class="st5" points="444.6,-207.1 426.4,-207.1 426.4,-188.3 444.6,-188.3 	"/>
	<polygon class="st5" points="426.4,-188.3 408.2,-188.3 408.2,-169.4 426.4,-169.4 	"/>
	<polygon class="st5" points="444.6,-188.3 426.4,-188.3 426.4,-169.4 444.6,-169.4 	"/>
	<polygon class="st5" points="462.7,-207.1 444.5,-207.1 444.5,-188.3 462.7,-188.3 	"/>
	<polygon class="st5" points="462.7,-225.9 444.5,-225.9 444.5,-207.1 462.7,-207.1 	"/>
	<polygon class="st5" points="480.8,-225.9 462.7,-225.9 462.7,-207.1 480.8,-207.1 	"/>
	<polygon class="st0" points="480.8,-18.8 462.7,-18.8 462.7,0 480.8,0 	"/>
	<polygon class="st3" points="480.8,0 462.7,0 462.7,18.8 480.8,18.8 	"/>
	<polygon class="st0" points="499,-37.7 480.8,-37.7 480.8,-18.8 499,-18.8 	"/>
	<polygon class="st0" points="-480.8,207.1 -499,207.1 -499,225.9 -480.8,225.9 	"/>
	<polygon class="st0" points="-395.9,207.1 -414.1,207.1 -414.1,225.9 -395.9,225.9 	"/>
	<polygon class="st0" points="-462.7,169.4 -480.8,169.4 -480.8,188.3 -462.7,188.3 	"/>
	<polygon class="st0" points="-480.8,131.8 -499,131.8 -499,150.6 -480.8,150.6 	"/>
	<polygon class="st0" points="-462.7,18.8 -480.8,18.8 -480.8,37.7 -462.7,37.7 	"/>
	<polygon class="st3" points="-480.8,37.6 -499,37.6 -499,56.5 -480.8,56.5 	"/>
	<polygon class="st0" points="-462.7,37.6 -480.8,37.6 -480.8,56.5 -462.7,56.5 	"/>
	<polygon class="st0" points="-480.8,-18.8 -499,-18.8 -499,0 -480.8,0 	"/>
	<polygon class="st4" points="-462.7,-56.5 -480.8,-56.5 -480.8,-37.6 -462.7,-37.6 	"/>
	<polygon class="st0" points="-480.8,-37.7 -499,-37.7 -499,-18.8 -480.8,-18.8 	"/>
	<polygon class="st2" points="-462.7,-37.7 -480.8,-37.7 -480.8,-18.8 -462.7,-18.8 	"/>
	<polygon class="st0" points="-480.8,-94.2 -499,-94.2 -499,-75.3 -480.8,-75.3 	"/>
	<polygon class="st2" points="-462.7,-131.8 -480.8,-131.8 -480.8,-113 -462.7,-113 	"/>
	<polygon class="st2" points="-480.8,-113 -499,-113 -499,-94.1 -480.8,-94.1 	"/>
	<polygon class="st2" points="-462.7,-113 -480.8,-113 -480.8,-94.1 -462.7,-94.1 	"/>
	<polygon class="st5" points="-480.8,-169.5 -499,-169.5 -499,-150.6 -480.8,-150.6 	"/>
	<polygon class="st5" points="-462.7,-207.1 -480.8,-207.1 -480.8,-188.3 -462.7,-188.3 	"/>
	<polygon class="st5" points="-480.8,-188.3 -499,-188.3 -499,-169.4 -480.8,-169.4 	"/>
	<polygon class="st5" points="-462.7,-188.3 -480.8,-188.3 -480.8,-169.4 -462.7,-169.4 	"/>
	<polygon class="st0" points="-425.2,150.6 -443.3,150.6 -443.3,169.5 -425.2,169.5 	"/>
	<polygon class="st0" points="-408.2,131.8 -426.4,131.8 -426.4,150.6 -408.2,150.6 	"/>
	<polygon class="st0" points="-444.5,94.1 -462.7,94.1 -462.7,113 -444.5,113 	"/>
	<polygon class="st0" points="-390.1,94.1 -408.3,94.1 -408.3,113 -390.1,113 	"/>
	<polygon class="st0" points="-391.7,112.8 -409.8,112.8 -409.8,131.6 -391.7,131.6 	"/>
	<polygon class="st0" points="-426.4,56.5 -444.6,56.5 -444.6,75.3 -426.4,75.3 	"/>
	<polygon class="st0" points="-444.5,18.8 -462.7,18.8 -462.7,37.7 -444.5,37.7 	"/>
	<polygon class="st0" points="-390.1,37.6 -408.3,37.6 -408.3,56.5 -390.1,56.5 	"/>
	<polygon class="st0" points="-426.4,-18.8 -444.6,-18.8 -444.6,0 -426.4,0 	"/>
	<polygon class="st3" points="-444.5,0 -462.7,0 -462.7,18.8 -444.5,18.8 	"/>
	<polygon class="st0" points="-426.4,0 -444.6,0 -444.6,18.8 -426.4,18.8 	"/>
	<polygon class="st0" points="-408.2,-18.8 -426.4,-18.8 -426.4,0 -408.2,0 	"/>
	<polygon class="st2" points="-444.5,-56.5 -462.7,-56.5 -462.7,-37.6 -444.5,-37.6 	"/>
	<polygon class="st2" points="-390.1,-56.5 -408.3,-56.5 -408.3,-37.6 -390.1,-37.6 	"/>
	<polygon class="st0" points="-408.2,-37.7 -426.4,-37.7 -426.4,-18.8 -408.2,-18.8 	"/>
	<polygon class="st2" points="-390.1,-37.7 -408.3,-37.7 -408.3,-18.8 -390.1,-18.8 	"/>
	<polygon class="st0" points="-426.4,-94.2 -444.6,-94.2 -444.6,-75.3 -426.4,-75.3 	"/>
	<polygon class="st0" points="-444.5,-75.3 -462.7,-75.3 -462.7,-56.5 -444.5,-56.5 	"/>
	<polygon class="st0" points="-426.4,-75.3 -444.6,-75.3 -444.6,-56.5 -426.4,-56.5 	"/>
	<polygon class="st4" points="-408.2,-94.2 -426.4,-94.2 -426.4,-75.3 -408.2,-75.3 	"/>
	<polygon class="st0" points="-444.5,-131.8 -462.7,-131.8 -462.7,-113 -444.5,-113 	"/>
	<polygon class="st2" points="-390.1,-131.8 -408.3,-131.8 -408.3,-113 -390.1,-113 	"/>
	<polygon class="st2" points="-408.2,-113 -426.4,-113 -426.4,-94.1 -408.2,-94.1 	"/>
	<polygon class="st2" points="-390.1,-113 -408.3,-113 -408.3,-94.1 -390.1,-94.1 	"/>
	<polygon class="st5" points="-426.4,-169.5 -444.6,-169.5 -444.6,-150.6 -426.4,-150.6 	"/>
	<polygon class="st2" points="-444.5,-150.6 -462.7,-150.6 -462.7,-131.8 -444.5,-131.8 	"/>
	<polygon class="st2" points="-426.4,-150.6 -444.6,-150.6 -444.6,-131.8 -426.4,-131.8 	"/>
	<polygon class="st5" points="-408.2,-169.5 -426.4,-169.5 -426.4,-150.6 -408.2,-150.6 	"/>
	<polygon class="st5" points="-444.5,-207.1 -462.7,-207.1 -462.7,-188.3 -444.5,-188.3 	"/>
	<polygon class="st5" points="-390.1,-207.1 -408.3,-207.1 -408.3,-188.3 -390.1,-188.3 	"/>
	<polygon class="st5" points="-408.2,-188.3 -426.4,-188.3 -426.4,-169.4 -408.2,-169.4 	"/>
	<polygon class="st5" points="-390.1,-188.3 -408.3,-188.3 -408.3,-169.4 -390.1,-169.4 	"/>
	<polygon class="st5" points="-444.5,-225.9 -462.7,-225.9 -462.7,-207.1 -444.5,-207.1 	"/>
	<polygon class="st5" points="-426.4,-225.9 -444.6,-225.9 -444.6,-207.1 -426.4,-207.1 	"/>
	<polygon class="st0" points="-362.7,169.4 -380.8,169.4 -380.8,188.3 -362.7,188.3 	"/>
	<polygon class="st0" points="-353.8,131.8 -372,131.8 -372,150.6 -353.8,150.6 	"/>
	<polygon class="st0" points="-326.4,131.8 -344.5,131.8 -344.5,150.6 -326.4,150.6 	"/>
	<polygon class="st0" points="-317.5,94.1 -335.7,94.1 -335.7,113 -317.5,113 	"/>
	<polygon class="st0" points="-372,18.8 -390.1,18.8 -390.1,37.7 -372,37.7 	"/>
	<polygon class="st0" points="-317.5,18.8 -335.7,18.8 -335.7,37.7 -317.5,37.7 	"/>
	<polygon class="st3" points="-317.5,37.6 -335.7,37.6 -335.7,56.5 -317.5,56.5 	"/>
	<polygon class="st0" points="-353.8,-18.8 -372,-18.8 -372,0 -353.8,0 	"/>
	<polygon class="st0" points="-372,0 -390.1,0 -390.1,18.8 -372,18.8 	"/>
	<polygon class="st0" points="-353.8,0 -372,0 -372,18.8 -353.8,18.8 	"/>
	<polygon class="st0" points="-335.7,-18.8 -353.8,-18.8 -353.8,0 -335.7,0 	"/>
	<polygon class="st3" points="-372,-56.5 -390.1,-56.5 -390.1,-37.6 -372,-37.6 	"/>
	<polygon class="st3" points="-317.5,-56.5 -335.7,-56.5 -335.7,-37.6 -317.5,-37.6 	"/>
	<polygon class="st0" points="-335.7,-37.7 -353.8,-37.7 -353.8,-18.8 -335.7,-18.8 	"/>
	<polygon class="st0" points="-317.5,-37.7 -335.7,-37.7 -335.7,-18.8 -317.5,-18.8 	"/>
	<polygon class="st0" points="-353.8,-94.2 -372,-94.2 -372,-75.3 -353.8,-75.3 	"/>
	<polygon class="st2" points="-372,-75.3 -390.1,-75.3 -390.1,-56.5 -372,-56.5 	"/>
	<polygon class="st2" points="-353.8,-75.3 -372,-75.3 -372,-56.5 -353.8,-56.5 	"/>
	<polygon class="st0" points="-335.7,-94.2 -353.8,-94.2 -353.8,-75.3 -335.7,-75.3 	"/>
	<polygon class="st2" points="-372,-131.8 -390.1,-131.8 -390.1,-113 -372,-113 	"/>
	<polygon class="st2" points="-317.5,-131.8 -335.7,-131.8 -335.7,-113 -317.5,-113 	"/>
	<polygon class="st2" points="-335.7,-113 -353.8,-113 -353.8,-94.1 -335.7,-94.1 	"/>
	<polygon class="st4" points="-317.5,-113 -335.7,-113 -335.7,-94.1 -317.5,-94.1 	"/>
	<polygon class="st5" points="-353.8,-169.5 -372,-169.5 -372,-150.6 -353.8,-150.6 	"/>
	<polygon class="st2" points="-372,-150.6 -390.1,-150.6 -390.1,-131.8 -372,-131.8 	"/>
	<polygon class="st2" points="-353.8,-150.6 -372,-150.6 -372,-131.8 -353.8,-131.8 	"/>
	<polygon class="st5" points="-335.7,-169.5 -353.8,-169.5 -353.8,-150.6 -335.7,-150.6 	"/>
	<polygon class="st5" points="-372,-207.1 -390.1,-207.1 -390.1,-188.3 -372,-188.3 	"/>
	<polygon class="st5" points="-317.5,-207.1 -335.7,-207.1 -335.7,-188.3 -317.5,-188.3 	"/>
	<polygon class="st5" points="-335.7,-188.3 -353.8,-188.3 -353.8,-169.4 -335.7,-169.4 	"/>
	<polygon class="st5" points="-317.5,-188.3 -335.7,-188.3 -335.7,-169.4 -317.5,-169.4 	"/>
	<polygon class="st5" points="-372,-225.9 -390.1,-225.9 -390.1,-207.1 -372,-207.1 	"/>
	<polygon class="st5" points="-353.8,-225.9 -372,-225.9 -372,-207.1 -353.8,-207.1 	"/>
	<polygon class="st0" points="136.1,18.8 117.9,18.8 117.9,37.7 136.1,37.7 	"/>
	<polygon class="st3" points="190.5,18.8 172.4,18.8 172.4,37.7 190.5,37.7 	"/>
	<polygon class="st0" points="136.1,-56.5 117.9,-56.5 117.9,-37.6 136.1,-37.6 	"/>
	<polygon class="st0" points="172.4,-37.7 154.2,-37.7 154.2,-18.8 172.4,-18.8 	"/>
	<polygon class="st3" points="190.5,-37.7 172.4,-37.7 172.4,-18.8 190.5,-18.8 	"/>
	<polygon class="st0" points="154.2,-94.2 136.1,-94.2 136.1,-75.3 154.2,-75.3 	"/>
	<polygon class="st4" points="154.2,-75.3 136.1,-75.3 136.1,-56.5 154.2,-56.5 	"/>
	<polygon class="st0" points="172.4,-94.2 154.2,-94.2 154.2,-75.3 172.4,-75.3 	"/>
	<polygon class="st2" points="136.1,-131.8 117.9,-131.8 117.9,-113 136.1,-113 	"/>
	<polygon class="st0" points="190.5,-131.8 172.4,-131.8 172.4,-113 190.5,-113 	"/>
	<polygon class="st4" points="172.4,-113 154.2,-113 154.2,-94.1 172.4,-94.1 	"/>
	<polygon class="st2" points="190.5,-113 172.4,-113 172.4,-94.1 190.5,-94.1 	"/>
	<polygon class="st5" points="154.2,-169.5 136.1,-169.5 136.1,-150.6 154.2,-150.6 	"/>
	<polygon class="st2" points="136.1,-150.6 117.9,-150.6 117.9,-131.8 136.1,-131.8 	"/>
	<polygon class="st2" points="154.2,-150.6 136.1,-150.6 136.1,-131.8 154.2,-131.8 	"/>
	<polygon class="st5" points="172.4,-169.5 154.2,-169.5 154.2,-150.6 172.4,-150.6 	"/>
	<polygon class="st5" points="136.1,-207.1 117.9,-207.1 117.9,-188.3 136.1,-188.3 	"/>
	<polygon class="st5" points="190.5,-207.1 172.4,-207.1 172.4,-188.3 190.5,-188.3 	"/>
	<polygon class="st5" points="172.4,-188.3 154.2,-188.3 154.2,-169.4 172.4,-169.4 	"/>
	<polygon class="st5" points="190.5,-188.3 172.4,-188.3 172.4,-169.4 190.5,-169.4 	"/>
	<polygon class="st5" points="136.1,-225.9 117.9,-225.9 117.9,-207.1 136.1,-207.1 	"/>
	<polygon class="st5" points="154.2,-225.9 136.1,-225.9 136.1,-207.1 154.2,-207.1 	"/>
	<polygon class="st0" points="226.8,-18.8 208.7,-18.8 208.7,0 226.8,0 	"/>
	<polygon class="st0" points="226.8,0 208.7,0 208.7,18.8 226.8,18.8 	"/>
	<polygon class="st0" points="263.1,-56.5 244.9,-56.5 244.9,-37.6 263.1,-37.6 	"/>
	<polygon class="st0" points="245,-37.7 226.8,-37.7 226.8,-18.8 245,-18.8 	"/>
	<polygon class="st0" points="263.1,-37.7 244.9,-37.7 244.9,-18.8 263.1,-18.8 	"/>
	<polygon class="st2" points="226.8,-94.2 208.7,-94.2 208.7,-75.3 226.8,-75.3 	"/>
	<polygon class="st3" points="208.7,-75.3 190.5,-75.3 190.5,-56.5 208.7,-56.5 	"/>
	<polygon class="st0" points="226.8,-75.3 208.7,-75.3 208.7,-56.5 226.8,-56.5 	"/>
	<polygon class="st0" points="245,-94.2 226.8,-94.2 226.8,-75.3 245,-75.3 	"/>
	<polygon class="st2" points="208.7,-131.8 190.5,-131.8 190.5,-113 208.7,-113 	"/>
	<polygon class="st2" points="263.1,-131.8 244.9,-131.8 244.9,-113 263.1,-113 	"/>
	<polygon class="st3" points="245,-113 226.8,-113 226.8,-94.1 245,-94.1 	"/>
	<polygon class="st5" points="226.8,-169.5 208.7,-169.5 208.7,-150.6 226.8,-150.6 	"/>
	<polygon class="st2" points="208.7,-150.6 190.5,-150.6 190.5,-131.8 208.7,-131.8 	"/>
	<polygon class="st2" points="226.8,-150.6 208.7,-150.6 208.7,-131.8 226.8,-131.8 	"/>
	<polygon class="st5" points="245,-169.5 226.8,-169.5 226.8,-150.6 245,-150.6 	"/>
	<polygon class="st5" points="208.7,-207.1 190.5,-207.1 190.5,-188.3 208.7,-188.3 	"/>
	<polygon class="st5" points="263.1,-207.1 244.9,-207.1 244.9,-188.3 263.1,-188.3 	"/>
	<polygon class="st5" points="245,-188.3 226.8,-188.3 226.8,-169.4 245,-169.4 	"/>
	<polygon class="st5" points="263.1,-188.3 244.9,-188.3 244.9,-169.4 263.1,-169.4 	"/>
	<polygon class="st5" points="208.7,-225.9 190.5,-225.9 190.5,-207.1 208.7,-207.1 	"/>
	<polygon class="st5" points="226.8,-225.9 208.7,-225.9 208.7,-207.1 226.8,-207.1 	"/>
	<polygon class="st3" points="335.7,18.8 317.5,18.8 317.5,37.7 335.7,37.7 	"/>
	<polygon class="st0" points="317.5,37.6 299.4,37.6 299.4,56.5 317.5,56.5 	"/>
	<polygon class="st3" points="299.4,0 281.2,0 281.2,18.8 299.4,18.8 	"/>
	<polygon class="st3" points="335.7,-56.5 317.5,-56.5 317.5,-37.6 335.7,-37.6 	"/>
	<polygon class="st0" points="335.7,-37.7 317.5,-37.7 317.5,-18.8 335.7,-18.8 	"/>
	<polygon class="st4" points="299.4,-94.2 281.2,-94.2 281.2,-75.3 299.4,-75.3 	"/>
	<polygon class="st0" points="281.3,-75.3 263.1,-75.3 263.1,-56.5 281.3,-56.5 	"/>
	<polygon class="st0" points="317.5,-94.2 299.4,-94.2 299.4,-75.3 317.5,-75.3 	"/>
	<polygon class="st2" points="281.3,-131.8 263.1,-131.8 263.1,-113 281.3,-113 	"/>
	<polygon class="st4" points="335.7,-131.8 317.5,-131.8 317.5,-113 335.7,-113 	"/>
	<polygon class="st2" points="317.5,-113 299.4,-113 299.4,-94.1 317.5,-94.1 	"/>
	<polygon class="st0" points="335.7,-113 317.5,-113 317.5,-94.1 335.7,-94.1 	"/>
	<polygon class="st5" points="299.4,-169.5 281.2,-169.5 281.2,-150.6 299.4,-150.6 	"/>
	<polygon class="st2" points="281.3,-150.6 263.1,-150.6 263.1,-131.8 281.3,-131.8 	"/>
	<polygon class="st2" points="299.4,-150.6 281.2,-150.6 281.2,-131.8 299.4,-131.8 	"/>
	<polygon class="st5" points="317.5,-169.5 299.4,-169.5 299.4,-150.6 317.5,-150.6 	"/>
	<polygon class="st5" points="281.3,-207.1 263.1,-207.1 263.1,-188.3 281.3,-188.3 	"/>
	<polygon class="st5" points="335.7,-207.1 317.5,-207.1 317.5,-188.3 335.7,-188.3 	"/>
	<polygon class="st5" points="317.5,-188.3 299.4,-188.3 299.4,-169.4 317.5,-169.4 	"/>
	<polygon class="st5" points="335.7,-188.3 317.5,-188.3 317.5,-169.4 335.7,-169.4 	"/>
	<polygon class="st5" points="281.3,-225.9 263.1,-225.9 263.1,-207.1 281.3,-207.1 	"/>
	<polygon class="st5" points="299.4,-225.9 281.2,-225.9 281.2,-207.1 299.4,-207.1 	"/>
	<polygon class="st0" points="372,-18.8 353.8,-18.8 353.8,0 372,0 	"/>
	<polygon class="st0" points="353.8,0 335.7,0 335.7,18.8 353.8,18.8 	"/>
	<polygon class="st0" points="408.3,-56.5 390.1,-56.5 390.1,-37.6 408.3,-37.6 	"/>
	<polygon class="st0" points="390.1,-37.7 372,-37.7 372,-18.8 390.1,-18.8 	"/>
	<polygon class="st2" points="372,-94.2 353.8,-94.2 353.8,-75.3 372,-75.3 	"/>
	<polygon class="st0" points="353.8,-75.3 335.7,-75.3 335.7,-56.5 353.8,-56.5 	"/>
	<polygon class="st3" points="372,-75.3 353.8,-75.3 353.8,-56.5 372,-56.5 	"/>
	<polygon class="st0" points="353.8,-131.8 335.7,-131.8 335.7,-113 353.8,-113 	"/>
	<polygon class="st2" points="408.3,-131.8 390.1,-131.8 390.1,-113 408.3,-113 	"/>
	<polygon class="st3" points="408.3,-113 390.1,-113 390.1,-94.1 408.3,-94.1 	"/>
	<polygon class="st5" points="372,-169.5 353.8,-169.5 353.8,-150.6 372,-150.6 	"/>
	<polygon class="st2" points="353.8,-150.6 335.7,-150.6 335.7,-131.8 353.8,-131.8 	"/>
	<polygon class="st2" points="372,-150.6 353.8,-150.6 353.8,-131.8 372,-131.8 	"/>
	<polygon class="st5" points="390.1,-169.5 372,-169.5 372,-150.6 390.1,-150.6 	"/>
	<polygon class="st5" points="353.8,-207.1 335.7,-207.1 335.7,-188.3 353.8,-188.3 	"/>
	<polygon class="st5" points="408.3,-207.1 390.1,-207.1 390.1,-188.3 408.3,-188.3 	"/>
	<polygon class="st5" points="390.1,-188.3 372,-188.3 372,-169.4 390.1,-169.4 	"/>
	<polygon class="st5" points="408.3,-188.3 390.1,-188.3 390.1,-169.4 408.3,-169.4 	"/>
	<polygon class="st5" points="353.8,-225.9 335.7,-225.9 335.7,-207.1 353.8,-207.1 	"/>
	<polygon class="st5" points="372,-225.9 353.8,-225.9 353.8,-207.1 372,-207.1 	"/>
	<polygon class="st0" points="480.8,-56.5 462.7,-56.5 462.7,-37.6 480.8,-37.6 	"/>
	<polygon class="st2" points="444.6,-94.2 426.4,-94.2 426.4,-75.3 444.6,-75.3 	"/>
	<polygon class="st0" points="462.7,-94.2 444.5,-94.2 444.5,-75.3 462.7,-75.3 	"/>
	<polygon class="st4" points="480.8,-131.8 462.7,-131.8 462.7,-113 480.8,-113 	"/>
	<polygon class="st5" points="444.6,-169.5 426.4,-169.5 426.4,-150.6 444.6,-150.6 	"/>
	<polygon class="st2" points="426.4,-150.6 408.2,-150.6 408.2,-131.8 426.4,-131.8 	"/>
	<polygon class="st2" points="444.6,-150.6 426.4,-150.6 426.4,-131.8 444.6,-131.8 	"/>
	<polygon class="st5" points="462.7,-169.5 444.5,-169.5 444.5,-150.6 462.7,-150.6 	"/>
	<polygon class="st5" points="426.4,-207.1 408.2,-207.1 408.2,-188.3 426.4,-188.3 	"/>
	<polygon class="st5" points="480.8,-207.1 462.7,-207.1 462.7,-188.3 480.8,-188.3 	"/>
	<polygon class="st5" points="462.7,-188.3 444.5,-188.3 444.5,-169.4 462.7,-169.4 	"/>
	<polygon class="st5" points="480.8,-188.3 462.7,-188.3 462.7,-169.4 480.8,-169.4 	"/>
	<polygon class="st5" points="426.4,-225.9 408.2,-225.9 408.2,-207.1 426.4,-207.1 	"/>
	<polygon class="st5" points="444.6,-225.9 426.4,-225.9 426.4,-207.1 444.6,-207.1 	"/>
	<polygon class="st3" points="499,-56.5 480.8,-56.5 480.8,-37.6 499,-37.6 	"/>
	<polygon class="st0" points="499,-75.3 480.8,-75.3 480.8,-56.5 499,-56.5 	"/>
	<polygon class="st2" points="499,-150.6 480.8,-150.6 480.8,-131.8 499,-131.8 	"/>
	<polygon class="st5" points="499,-207.1 480.8,-207.1 480.8,-188.3 499,-188.3 	"/>
	<polygon class="st5" points="499,-225.9 480.8,-225.9 480.8,-207.1 499,-207.1 	"/>
	<polygon class="st0" points="-276.2,150.6 -294.4,150.6 -294.4,169.5 -276.2,169.5 	"/>
	<polygon class="st3" points="-299.4,94.1 -317.5,94.1 -317.5,113 -299.4,113 	"/>
	<polygon class="st3" points="-263.1,113 -281.3,113 -281.3,131.8 -263.1,131.8 	"/>
	<polygon class="st0" points="-281.2,56.5 -299.4,56.5 -299.4,75.3 -281.2,75.3 	"/>
	<polygon class="st0" points="-299.4,18.8 -317.5,18.8 -317.5,37.7 -299.4,37.7 	"/>
	<polygon class="st0" points="-263.1,37.6 -281.3,37.6 -281.3,56.5 -263.1,56.5 	"/>
	<polygon class="st3" points="-244.9,37.6 -263.1,37.6 -263.1,56.5 -244.9,56.5 	"/>
	<polygon class="st0" points="-299.4,0 -317.5,0 -317.5,18.8 -299.4,18.8 	"/>
	<polygon class="st0" points="-263.1,-18.8 -281.3,-18.8 -281.3,0 -263.1,0 	"/>
	<polygon class="st0" points="-299.4,-56.5 -317.5,-56.5 -317.5,-37.6 -299.4,-37.6 	"/>
	<polygon class="st3" points="-244.9,-56.5 -263.1,-56.5 -263.1,-37.6 -244.9,-37.6 	"/>
	<polygon class="st0" points="-263.1,-37.7 -281.3,-37.7 -281.3,-18.8 -263.1,-18.8 	"/>
	<polygon class="st0" points="-244.9,-37.7 -263.1,-37.7 -263.1,-18.8 -244.9,-18.8 	"/>
	<polygon class="st0" points="-281.2,-94.2 -299.4,-94.2 -299.4,-75.3 -281.2,-75.3 	"/>
	<polygon class="st2" points="-299.4,-75.3 -317.5,-75.3 -317.5,-56.5 -299.4,-56.5 	"/>
	<polygon class="st2" points="-281.2,-75.3 -299.4,-75.3 -299.4,-56.5 -281.2,-56.5 	"/>
	<polygon class="st4" points="-263.1,-94.2 -281.3,-94.2 -281.3,-75.3 -263.1,-75.3 	"/>
	<polygon class="st2" points="-299.4,-131.8 -317.5,-131.8 -317.5,-113 -299.4,-113 	"/>
	<polygon class="st0" points="-244.9,-131.8 -263.1,-131.8 -263.1,-113 -244.9,-113 	"/>
	<polygon class="st2" points="-263.1,-113 -281.3,-113 -281.3,-94.1 -263.1,-94.1 	"/>
	<polygon class="st2" points="-244.9,-113 -263.1,-113 -263.1,-94.1 -244.9,-94.1 	"/>
	<polygon class="st5" points="-281.2,-169.5 -299.4,-169.5 -299.4,-150.6 -281.2,-150.6 	"/>
	<polygon class="st2" points="-299.4,-150.6 -317.5,-150.6 -317.5,-131.8 -299.4,-131.8 	"/>
	<polygon class="st2" points="-281.2,-150.6 -299.4,-150.6 -299.4,-131.8 -281.2,-131.8 	"/>
	<polygon class="st5" points="-263.1,-169.5 -281.3,-169.5 -281.3,-150.6 -263.1,-150.6 	"/>
	<polygon class="st5" points="-299.4,-207.1 -317.5,-207.1 -317.5,-188.3 -299.4,-188.3 	"/>
	<polygon class="st5" points="-244.9,-207.1 -263.1,-207.1 -263.1,-188.3 -244.9,-188.3 	"/>
	<polygon class="st5" points="-263.1,-188.3 -281.3,-188.3 -281.3,-169.4 -263.1,-169.4 	"/>
	<polygon class="st5" points="-244.9,-188.3 -263.1,-188.3 -263.1,-169.4 -244.9,-169.4 	"/>
	<polygon class="st5" points="-299.4,-225.9 -317.5,-225.9 -317.5,-207.1 -299.4,-207.1 	"/>
	<polygon class="st5" points="-281.2,-225.9 -299.4,-225.9 -299.4,-207.1 -281.2,-207.1 	"/>
	<polygon class="st5" points="-244.9,-225.9 -263.1,-225.9 -263.1,-207.1 -244.9,-207.1 	"/>
	<polygon class="st0" points="-223.8,150.6 -241.9,150.6 -241.9,169.5 -223.8,169.5 	"/>
	<polygon class="st0" points="-190.5,131.8 -208.7,131.8 -208.7,150.6 -190.5,150.6 	"/>
	<polygon class="st0" points="-226.8,94.1 -245,94.1 -245,113 -226.8,113 	"/>
	<polygon class="st0" points="-172.4,113 -190.5,113 -190.5,131.8 -172.4,131.8 	"/>
	<polygon class="st0" points="-172.4,18.8 -190.5,18.8 -190.5,37.7 -172.4,37.7 	"/>
	<polygon class="st0" points="-190.5,37.6 -208.7,37.6 -208.7,56.5 -190.5,56.5 	"/>
	<polygon class="st0" points="-208.7,-18.8 -226.8,-18.8 -226.8,0 -208.7,0 	"/>
	<polygon class="st0" points="-226.8,0 -245,0 -245,18.8 -226.8,18.8 	"/>
	<polygon class="st0" points="-208.7,0 -226.8,0 -226.8,18.8 -208.7,18.8 	"/>
	<polygon class="st4" points="-226.8,-56.5 -245,-56.5 -245,-37.6 -226.8,-37.6 	"/>
	<polygon class="st0" points="-172.4,-56.5 -190.5,-56.5 -190.5,-37.6 -172.4,-37.6 	"/>
	<polygon class="st0" points="-190.5,-37.7 -208.7,-37.7 -208.7,-18.8 -190.5,-18.8 	"/>
	<polygon class="st0" points="-172.4,-37.7 -190.5,-37.7 -190.5,-18.8 -172.4,-18.8 	"/>
	<polygon class="st0" points="-208.7,-94.2 -226.8,-94.2 -226.8,-75.3 -208.7,-75.3 	"/>
	<polygon class="st2" points="-226.8,-75.3 -245,-75.3 -245,-56.5 -226.8,-56.5 	"/>
	<polygon class="st0" points="-208.7,-75.3 -226.8,-75.3 -226.8,-56.5 -208.7,-56.5 	"/>
	<polygon class="st0" points="-190.5,-94.2 -208.7,-94.2 -208.7,-75.3 -190.5,-75.3 	"/>
	<polygon class="st0" points="-226.8,-131.8 -245,-131.8 -245,-113 -226.8,-113 	"/>
	<polygon class="st2" points="-172.4,-131.8 -190.5,-131.8 -190.5,-113 -172.4,-113 	"/>
	<polygon class="st2" points="-190.5,-113 -208.7,-113 -208.7,-94.1 -190.5,-94.1 	"/>
	<polygon class="st2" points="-172.4,-113 -190.5,-113 -190.5,-94.1 -172.4,-94.1 	"/>
	<polygon class="st5" points="-208.7,-169.5 -226.8,-169.5 -226.8,-150.6 -208.7,-150.6 	"/>
	<polygon class="st2" points="-226.8,-150.6 -245,-150.6 -245,-131.8 -226.8,-131.8 	"/>
	<polygon class="st2" points="-208.7,-150.6 -226.8,-150.6 -226.8,-131.8 -208.7,-131.8 	"/>
	<polygon class="st5" points="-190.5,-169.5 -208.7,-169.5 -208.7,-150.6 -190.5,-150.6 	"/>
	<polygon class="st5" points="-226.8,-207.1 -245,-207.1 -245,-188.3 -226.8,-188.3 	"/>
	<polygon class="st5" points="-172.4,-207.1 -190.5,-207.1 -190.5,-188.3 -172.4,-188.3 	"/>
	<polygon class="st5" points="-190.5,-188.3 -208.7,-188.3 -208.7,-169.4 -190.5,-169.4 	"/>
	<polygon class="st5" points="-172.4,-188.3 -190.5,-188.3 -190.5,-169.4 -172.4,-169.4 	"/>
	<polygon class="st5" points="-226.8,-225.9 -245,-225.9 -245,-207.1 -226.8,-207.1 	"/>
	<polygon class="st5" points="-208.7,-225.9 -226.8,-225.9 -226.8,-207.1 -208.7,-207.1 	"/>
	<polygon class="st0" points="-154.2,94.1 -172.4,94.1 -172.4,113 -154.2,113 	"/>
	<polygon class="st0" points="-99.8,113 -118,113 -118,131.8 -99.8,131.8 	"/>
	<polygon class="st3" points="-117.9,56.5 -136.1,56.5 -136.1,75.3 -117.9,75.3 	"/>
	<polygon class="st0" points="-154.2,18.8 -172.4,18.8 -172.4,37.7 -154.2,37.7 	"/>
	<polygon class="st0" points="-99.8,18.8 -118,18.8 -118,37.7 -99.8,37.7 	"/>
	<polygon class="st0" points="-117.9,37.6 -136.1,37.6 -136.1,56.5 -117.9,56.5 	"/>
	<polygon class="st3" points="-99.8,37.6 -118,37.6 -118,56.5 -99.8,56.5 	"/>
	<polygon class="st0" points="-136.1,-18.8 -154.2,-18.8 -154.2,0 -136.1,0 	"/>
	<polygon class="st0" points="-136.1,0 -154.2,0 -154.2,18.8 -136.1,18.8 	"/>
	<polygon class="st0" points="-154.2,-56.5 -172.4,-56.5 -172.4,-37.6 -154.2,-37.6 	"/>
	<polygon class="st0" points="-99.8,-56.5 -118,-56.5 -118,-37.6 -99.8,-37.6 	"/>
	<polygon class="st3" points="-117.9,-37.7 -136.1,-37.7 -136.1,-18.8 -117.9,-18.8 	"/>
	<polygon class="st0" points="-99.8,-37.7 -118,-37.7 -118,-18.8 -99.8,-18.8 	"/>
	<polygon class="st0" points="-136.1,-94.2 -154.2,-94.2 -154.2,-75.3 -136.1,-75.3 	"/>
	<polygon class="st0" points="-154.2,-75.3 -172.4,-75.3 -172.4,-56.5 -154.2,-56.5 	"/>
	<polygon class="st4" points="-136.1,-75.3 -154.2,-75.3 -154.2,-56.5 -136.1,-56.5 	"/>
	<polygon class="st0" points="-117.9,-94.2 -136.1,-94.2 -136.1,-75.3 -117.9,-75.3 	"/>
	<polygon class="st2" points="-154.2,-131.8 -172.4,-131.8 -172.4,-113 -154.2,-113 	"/>
	<polygon class="st2" points="-99.8,-131.8 -118,-131.8 -118,-113 -99.8,-113 	"/>
	<polygon class="st2" points="-117.9,-113 -136.1,-113 -136.1,-94.1 -117.9,-94.1 	"/>
	<polygon class="st2" points="-99.8,-113 -118,-113 -118,-94.1 -99.8,-94.1 	"/>
	<polygon class="st5" points="-136.1,-169.5 -154.2,-169.5 -154.2,-150.6 -136.1,-150.6 	"/>
	<polygon class="st2" points="-154.2,-150.6 -172.4,-150.6 -172.4,-131.8 -154.2,-131.8 	"/>
	<polygon class="st2" points="-136.1,-150.6 -154.2,-150.6 -154.2,-131.8 -136.1,-131.8 	"/>
	<polygon class="st5" points="-117.9,-169.5 -136.1,-169.5 -136.1,-150.6 -117.9,-150.6 	"/>
	<polygon class="st5" points="-154.2,-207.1 -172.4,-207.1 -172.4,-188.3 -154.2,-188.3 	"/>
	<polygon class="st5" points="-99.8,-207.1 -118,-207.1 -118,-188.3 -99.8,-188.3 	"/>
	<polygon class="st5" points="-117.9,-188.3 -136.1,-188.3 -136.1,-169.4 -117.9,-169.4 	"/>
	<polygon class="st5" points="-99.8,-188.3 -118,-188.3 -118,-169.4 -99.8,-169.4 	"/>
	<polygon class="st5" points="-154.2,-225.9 -172.4,-225.9 -172.4,-207.1 -154.2,-207.1 	"/>
	<polygon class="st5" points="-136.1,-225.9 -154.2,-225.9 -154.2,-207.1 -136.1,-207.1 	"/>
	<polygon class="st3" points="-63.5,56.5 -81.7,56.5 -81.7,75.3 -63.5,75.3 	"/>
	<polygon class="st0" points="-45.4,56.5 -63.5,56.5 -63.5,75.3 -45.4,75.3 	"/>
	<polygon class="st0" points="-27.2,18.8 -45.4,18.8 -45.4,37.7 -27.2,37.7 	"/>
	<polygon class="st0" points="-63.5,-18.8 -81.7,-18.8 -81.7,0 -63.5,0 	"/>
	<polygon class="st0" points="-81.6,-56.5 -99.8,-56.5 -99.8,-37.6 -81.6,-37.6 	"/>
	<polygon class="st0" points="-27.2,-56.5 -45.4,-56.5 -45.4,-37.6 -27.2,-37.6 	"/>
	<polygon class="st0" points="-45.4,-37.7 -63.5,-37.7 -63.5,-18.8 -45.4,-18.8 	"/>
	<polygon class="st0" points="-27.2,-37.7 -45.4,-37.7 -45.4,-18.8 -27.2,-18.8 	"/>
	<polygon class="st0" points="-63.5,-94.2 -81.7,-94.2 -81.7,-75.3 -63.5,-75.3 	"/>
	<polygon class="st0" points="-81.6,-75.3 -99.8,-75.3 -99.8,-56.5 -81.6,-56.5 	"/>
	<polygon class="st0" points="-63.5,-75.3 -81.7,-75.3 -81.7,-56.5 -63.5,-56.5 	"/>
	<polygon class="st0" points="-45.4,-94.2 -63.5,-94.2 -63.5,-75.3 -45.4,-75.3 	"/>
	<polygon class="st2" points="-81.6,-131.8 -99.8,-131.8 -99.8,-113 -81.6,-113 	"/>
	<polygon class="st0" points="-27.2,-131.8 -45.4,-131.8 -45.4,-113 -27.2,-113 	"/>
	<polygon class="st2" points="-45.4,-113 -63.5,-113 -63.5,-94.1 -45.4,-94.1 	"/>
	<polygon class="st0" points="-27.2,-113 -45.4,-113 -45.4,-94.1 -27.2,-94.1 	"/>
	<polygon class="st5" points="-63.5,-169.5 -81.7,-169.5 -81.7,-150.6 -63.5,-150.6 	"/>
	<polygon class="st2" points="-81.6,-150.6 -99.8,-150.6 -99.8,-131.8 -81.6,-131.8 	"/>
	<polygon class="st2" points="-63.5,-150.6 -81.7,-150.6 -81.7,-131.8 -63.5,-131.8 	"/>
	<polygon class="st5" points="-45.4,-169.5 -63.5,-169.5 -63.5,-150.6 -45.4,-150.6 	"/>
	<polygon class="st5" points="-81.6,-207.1 -99.8,-207.1 -99.8,-188.3 -81.6,-188.3 	"/>
	<polygon class="st5" points="-27.2,-207.1 -45.4,-207.1 -45.4,-188.3 -27.2,-188.3 	"/>
	<polygon class="st5" points="-45.4,-188.3 -63.5,-188.3 -63.5,-169.4 -45.4,-169.4 	"/>
	<polygon class="st5" points="-27.2,-188.3 -45.4,-188.3 -45.4,-169.4 -27.2,-169.4 	"/>
	<polygon class="st5" points="-81.6,-225.9 -99.8,-225.9 -99.8,-207.1 -81.6,-207.1 	"/>
	<polygon class="st5" points="-63.5,-225.9 -81.7,-225.9 -81.7,-207.1 -63.5,-207.1 	"/>
	<polygon class="st0" points="-9.1,75.3 -27.2,75.3 -27.2,94.2 -9.1,94.2 	"/>
	<polygon class="st0" points="27.2,56.5 9.1,56.5 9.1,75.3 27.2,75.3 	"/>
	<polygon class="st0" points="-9.1,18.8 -27.2,18.8 -27.2,37.7 -9.1,37.7 	"/>
	<polygon class="st3" points="45.4,18.8 27.2,18.8 27.2,37.7 45.4,37.7 	"/>
	<polygon class="st3" points="27.2,37.6 9.1,37.6 9.1,56.5 27.2,56.5 	"/>
	<polygon class="st3" points="45.4,37.6 27.2,37.6 27.2,56.5 45.4,56.5 	"/>
	<polygon class="st0" points="9.1,-18.8 -9.1,-18.8 -9.1,0 9.1,0 	"/>
	<polygon class="st0" points="-9.1,-56.5 -27.2,-56.5 -27.2,-37.6 -9.1,-37.6 	"/>
	<polygon class="st0" points="45.4,-37.7 27.2,-37.7 27.2,-18.8 45.4,-18.8 	"/>
	<polygon class="st3" points="9.1,-94.2 -9.1,-94.2 -9.1,-75.3 9.1,-75.3 	"/>
	<polygon class="st0" points="9.1,-75.3 -9.1,-75.3 -9.1,-56.5 9.1,-56.5 	"/>
	<polygon class="st2" points="27.2,-94.2 9.1,-94.2 9.1,-75.3 27.2,-75.3 	"/>
	<polygon class="st2" points="-9.1,-131.8 -27.2,-131.8 -27.2,-113 -9.1,-113 	"/>
	<polygon class="st0" points="45.4,-131.8 27.2,-131.8 27.2,-113 45.4,-113 	"/>
	<polygon class="st2" points="27.2,-113 9.1,-113 9.1,-94.1 27.2,-94.1 	"/>
	<polygon class="st0" points="45.4,-113 27.2,-113 27.2,-94.1 45.4,-94.1 	"/>
	<polygon class="st5" points="9.1,-169.5 -9.1,-169.5 -9.1,-150.6 9.1,-150.6 	"/>
	<polygon class="st2" points="-9.1,-150.6 -27.2,-150.6 -27.2,-131.8 -9.1,-131.8 	"/>
	<polygon class="st2" points="9.1,-150.6 -9.1,-150.6 -9.1,-131.8 9.1,-131.8 	"/>
	<polygon class="st5" points="27.2,-169.5 9.1,-169.5 9.1,-150.6 27.2,-150.6 	"/>
	<polygon class="st5" points="-9.1,-207.1 -27.2,-207.1 -27.2,-188.3 -9.1,-188.3 	"/>
	<polygon class="st5" points="45.4,-207.1 27.2,-207.1 27.2,-188.3 45.4,-188.3 	"/>
	<polygon class="st5" points="27.2,-188.3 9.1,-188.3 9.1,-169.4 27.2,-169.4 	"/>
	<polygon class="st5" points="45.4,-188.3 27.2,-188.3 27.2,-169.4 45.4,-169.4 	"/>
	<polygon class="st5" points="-9.1,-225.9 -27.2,-225.9 -27.2,-207.1 -9.1,-207.1 	"/>
	<polygon class="st5" points="9.1,-225.9 -9.1,-225.9 -9.1,-207.1 9.1,-207.1 	"/>
	<polygon class="st0" points="81.7,56.5 63.5,56.5 63.5,75.3 81.7,75.3 	"/>
	<polygon class="st0" points="99.8,37.6 81.6,37.6 81.6,56.5 99.8,56.5 	"/>
	<polygon class="st3" points="99.8,-18.8 81.6,-18.8 81.6,0 99.8,0 	"/>
	<polygon class="st0" points="63.5,-56.5 45.4,-56.5 45.4,-37.6 63.5,-37.6 	"/>
	<polygon class="st0" points="118,-56.5 99.8,-56.5 99.8,-37.6 118,-37.6 	"/>
	<polygon class="st0" points="118,-37.7 99.8,-37.7 99.8,-18.8 118,-18.8 	"/>
	<polygon class="st0" points="81.7,-94.2 63.5,-94.2 63.5,-75.3 81.7,-75.3 	"/>
	<polygon class="st4" points="63.5,-75.3 45.4,-75.3 45.4,-56.5 63.5,-56.5 	"/>
	<polygon class="st0" points="81.7,-75.3 63.5,-75.3 63.5,-56.5 81.7,-56.5 	"/>
	<polygon class="st0" points="99.8,-94.2 81.6,-94.2 81.6,-75.3 99.8,-75.3 	"/>
	<polygon class="st2" points="63.5,-131.8 45.4,-131.8 45.4,-113 63.5,-113 	"/>
	<polygon class="st0" points="118,-131.8 99.8,-131.8 99.8,-113 118,-113 	"/>
	<polygon class="st2" points="99.8,-113 81.6,-113 81.6,-94.1 99.8,-94.1 	"/>
	<polygon class="st3" points="118,-113 99.8,-113 99.8,-94.1 118,-94.1 	"/>
	<polygon class="st5" points="81.7,-169.5 63.5,-169.5 63.5,-150.6 81.7,-150.6 	"/>
	<polygon class="st2" points="63.5,-150.6 45.4,-150.6 45.4,-131.8 63.5,-131.8 	"/>
	<polygon class="st2" points="81.7,-150.6 63.5,-150.6 63.5,-131.8 81.7,-131.8 	"/>
	<polygon class="st5" points="99.8,-169.5 81.6,-169.5 81.6,-150.6 99.8,-150.6 	"/>
	<polygon class="st5" points="63.5,-207.1 45.4,-207.1 45.4,-188.3 63.5,-188.3 	"/>
	<polygon class="st5" points="118,-207.1 99.8,-207.1 99.8,-188.3 118,-188.3 	"/>
	<polygon class="st5" points="99.8,-188.3 81.6,-188.3 81.6,-169.4 99.8,-169.4 	"/>
	<polygon class="st5" points="118,-188.3 99.8,-188.3 99.8,-169.4 118,-169.4 	"/>
	<polygon class="st5" points="63.5,-225.9 45.4,-225.9 45.4,-207.1 63.5,-207.1 	"/>
	<polygon class="st5" points="81.7,-225.9 63.5,-225.9 63.5,-207.1 81.7,-207.1 	"/>
</symbol>
<use xlink:href="#New_Symbol"  width="998" height="451.9" id="XMLID_1_" x="-499" y="-225.9" transform="matrix(1 0 0 -1 1500 226.9936)" style="overflow:visible;"/>
<use xlink:href="#New_Symbol"  width="998" height="451.9" x="-499" y="-225.9" transform="matrix(-1 0 0 -1 501.9152 226.9936)" style="overflow:visible;"/>
</svg>
