<?xml version="1.0" encoding="utf-8"?>
<!-- Generator: Adobe Illustrator 19.1.0, SVG Export Plug-In . SVG Version: 6.00 Build 0)  -->
<svg version="1.1" id="_x2014_ÎÓÈ_x5F_1" xmlns="http://www.w3.org/2000/svg" xmlns:xlink="http://www.w3.org/1999/xlink"
	 x="0px" y="0px" viewBox="0 0 1000 500" style="enable-background:new 0 0 1000 500;" xml:space="preserve">
<style type="text/css">
	.st0{fill:#D6D6D6;}
	.st1{fill:#B4B4B4;}
	.st2{fill:#AFAFAF;}
	.st3{fill:#B6B6B6;}
	.st4{fill:#E2E2E2;}
	.st5{fill:#C1C1C1;}
	.st6{fill:#FFFFFF;}
</style>
<g id="New_Symbol">
	<rect x="963.7" y="327.7" class="st0" width="18.2" height="18.9"/>
	<rect x="927.4" y="384.2" class="st0" width="18.2" height="18.9"/>
	<rect x="909.3" y="365.4" class="st1" width="18.2" height="18.8"/>
	<rect x="945.5" y="403" class="st0" width="18.2" height="18.8"/>
	<rect x="963.7" y="403" class="st0" width="18.2" height="18.8"/>
	<rect x="764.1" y="346.5" class="st0" width="18.2" height="18.9"/>
	<rect x="800.4" y="384.2" class="st0" width="18.2" height="18.9"/>
	<rect x="800.4" y="403" class="st0" width="18.2" height="18.8"/>
	<rect x="818.5" y="403" class="st0" width="18.2" height="18.8"/>
	<rect x="709.7" y="365.4" class="st0" width="18.2" height="18.8"/>
	<rect x="727.8" y="384.2" class="st0" width="18.2" height="18.9"/>
	<rect x="727.8" y="403" class="st0" width="18.2" height="18.8"/>
	<rect x="746" y="403" class="st0" width="18.2" height="18.8"/>
	<rect x="655.2" y="384.2" class="st0" width="18.2" height="18.9"/>
	<rect x="655.2" y="403" class="st0" width="18.2" height="18.8"/>
	<rect x="673.4" y="403" class="st0" width="18.2" height="18.8"/>
	<rect x="473.8" y="290.1" class="st1" width="18.2" height="18.9"/>
	<rect x="582.7" y="384.2" class="st0" width="18.2" height="18.9"/>
	<rect x="582.7" y="403" class="st0" width="18.2" height="18.8"/>
	<rect x="600.8" y="403" class="st0" width="18.2" height="18.8"/>
	<rect x="491.9" y="365.4" class="st0" width="18.2" height="18.8"/>
	<rect x="510.1" y="384.2" class="st0" width="18.2" height="18.9"/>
	<rect x="510.1" y="403" class="st0" width="18.2" height="18.8"/>
	<rect x="528.2" y="403" class="st0" width="18.2" height="18.8"/>
	<rect x="383.1" y="346.5" class="st0" width="18.2" height="18.9"/>
	<rect x="419.3" y="384.2" class="st0" width="18.2" height="18.9"/>
	<rect x="437.5" y="384.2" class="st0" width="18.2" height="18.9"/>
	<rect x="437.5" y="403" class="st0" width="18.2" height="18.8"/>
	<rect x="455.6" y="403" class="st0" width="18.2" height="18.8"/>
	<rect x="310.5" y="346.5" class="st0" width="18.2" height="18.9"/>
	<rect x="328.6" y="365.4" class="st0" width="18.2" height="18.8"/>
	<rect x="364.9" y="384.2" class="st0" width="18.2" height="18.9"/>
	<rect x="364.9" y="403" class="st0" width="18.2" height="18.8"/>
	<rect x="383.1" y="403" class="st0" width="18.2" height="18.8"/>
	<rect x="201.6" y="290.1" class="st1" width="18.2" height="18.9"/>
	<rect x="274.2" y="384.2" class="st0" width="18.2" height="18.9"/>
	<rect x="292.3" y="403" class="st0" width="18.2" height="18.8"/>
	<rect x="310.5" y="403" class="st0" width="18.2" height="18.8"/>
	<rect x="92.7" y="252.4" class="st1" width="18.2" height="18.9"/>
	<rect x="165.3" y="327.7" class="st0" width="18.2" height="18.9"/>
	<rect x="219.8" y="384.2" class="st0" width="18.2" height="18.9"/>
	<rect x="219.8" y="403" class="st0" width="18.2" height="18.8"/>
	<rect x="237.9" y="403" class="st0" width="18.2" height="18.8"/>
	<rect x="129" y="384.2" class="st0" width="18.2" height="18.9"/>
	<rect x="147.2" y="403" class="st0" width="18.2" height="18.8"/>
	<rect x="165.3" y="403" class="st0" width="18.2" height="18.8"/>
	<rect x="20.2" y="346.5" class="st0" width="18.2" height="18.9"/>
	<rect x="56.5" y="384.2" class="st0" width="18.2" height="18.9"/>
	<rect x="56.5" y="365.4" class="st0" width="18.2" height="18.8"/>
	<rect x="74.6" y="403" class="st0" width="18.2" height="18.8"/>
	<rect x="92.7" y="403" class="st0" width="18.2" height="18.8"/>
	<rect x="2" y="403" class="st0" width="18.2" height="18.8"/>
	<rect x="20.2" y="403" class="st0" width="18.2" height="18.8"/>
	<g>
		<rect x="909.3" y="290.1" class="st2" width="18.2" height="18.9"/>
		<rect x="764.1" y="214.7" class="st2" width="18.2" height="18.9"/>
		<rect x="727.8" y="252.4" class="st2" width="18.2" height="18.9"/>
	</g>
	<rect x="854.8" y="365.4" class="st0" width="18.2" height="18.8"/>
	<rect x="873" y="384.2" class="st0" width="18.2" height="18.9"/>
	<rect x="873" y="403" class="st0" width="18.2" height="18.8"/>
	<rect x="891.1" y="403" class="st0" width="18.2" height="18.8"/>
	<rect x="20.2" y="308.9" class="st1" width="18.2" height="18.9"/>
	<rect x="20.2" y="290.1" class="st0" width="18.2" height="18.9"/>
	<rect x="20.2" y="384.2" class="st0" width="18.2" height="18.9"/>
	<rect x="2" y="365.4" class="st0" width="18.2" height="18.8"/>
	<rect x="20.2" y="365.4" class="st0" width="18.2" height="18.8"/>
	<rect x="38.3" y="308.9" class="st0" width="18.2" height="18.9"/>
	<rect x="92.7" y="308.9" class="st0" width="18.2" height="18.9"/>
	<rect x="92.7" y="290.1" class="st0" width="18.2" height="18.9"/>
	<rect x="74.6" y="346.5" class="st1" width="18.2" height="18.9"/>
	<rect x="92.7" y="384.2" class="st0" width="18.2" height="18.9"/>
	<rect x="74.6" y="365.4" class="st0" width="18.2" height="18.8"/>
	<rect x="92.7" y="365.4" class="st0" width="18.2" height="18.8"/>
	<rect x="38.3" y="403" class="st0" width="18.2" height="18.8"/>
	<rect x="56.5" y="403" class="st0" width="18.2" height="18.8"/>
	<rect x="110.9" y="327.7" class="st0" width="18.2" height="18.9"/>
	<rect x="129" y="327.7" class="st0" width="18.2" height="18.9"/>
	<rect x="110.9" y="384.2" class="st0" width="18.2" height="18.9"/>
	<rect x="165.3" y="384.2" class="st0" width="18.2" height="18.9"/>
	<rect x="147.2" y="365.4" class="st0" width="18.2" height="18.8"/>
	<rect x="165.3" y="365.4" class="st1" width="18.2" height="18.8"/>
	<rect x="110.9" y="403" class="st0" width="18.2" height="18.8"/>
	<rect x="129" y="403" class="st0" width="18.2" height="18.8"/>
	<rect x="637.1" y="327.7" class="st1" width="18.2" height="18.9"/>
	<rect x="618.9" y="384.2" class="st0" width="18.2" height="18.9"/>
	<rect x="655.2" y="365.4" class="st1" width="18.2" height="18.8"/>
	<rect x="673.4" y="365.4" class="st0" width="18.2" height="18.8"/>
	<rect x="618.9" y="403" class="st0" width="18.2" height="18.8"/>
	<rect x="637.1" y="403" class="st0" width="18.2" height="18.8"/>
	<rect x="709.7" y="346.5" class="st0" width="18.2" height="18.9"/>
	<rect x="691.5" y="384.2" class="st0" width="18.2" height="18.9"/>
	<rect x="746" y="384.2" class="st0" width="18.2" height="18.9"/>
	<rect x="691.5" y="403" class="st0" width="18.2" height="18.8"/>
	<rect x="709.7" y="403" class="st0" width="18.2" height="18.8"/>
	<rect x="782.2" y="346.5" class="st1" width="18.2" height="18.9"/>
	<rect x="764.1" y="384.2" class="st0" width="18.2" height="18.9"/>
	<rect x="818.5" y="384.2" class="st1" width="18.2" height="18.9"/>
	<rect x="800.4" y="365.4" class="st0" width="18.2" height="18.8"/>
	<rect x="764.1" y="403" class="st0" width="18.2" height="18.8"/>
	<rect x="782.2" y="403" class="st0" width="18.2" height="18.8"/>
	<rect x="854.8" y="346.5" class="st0" width="18.2" height="18.9"/>
	<rect x="891.1" y="384.2" class="st0" width="18.2" height="18.9"/>
	<rect x="836.7" y="403" class="st0" width="18.2" height="18.8"/>
	<rect x="854.8" y="403" class="st0" width="18.2" height="18.8"/>
	<rect x="927.4" y="346.5" class="st0" width="18.2" height="18.9"/>
	<rect x="963.7" y="384.2" class="st1" width="18.2" height="18.9"/>
	<rect x="909.3" y="403" class="st0" width="18.2" height="18.8"/>
	<rect x="927.4" y="403" class="st0" width="18.2" height="18.8"/>
	<rect x="981.8" y="403" class="st0" width="18.2" height="18.8"/>
	<rect x="183.5" y="327.7" class="st0" width="18.2" height="18.9"/>
	<rect x="201.6" y="327.7" class="st0" width="18.2" height="18.9"/>
	<rect x="219.8" y="346.5" class="st1" width="18.2" height="18.9"/>
	<rect x="183.5" y="384.2" class="st0" width="18.2" height="18.9"/>
	<rect x="219.8" y="365.4" class="st0" width="18.2" height="18.8"/>
	<rect x="237.9" y="365.4" class="st0" width="18.2" height="18.8"/>
	<rect x="183.5" y="403" class="st0" width="18.2" height="18.8"/>
	<rect x="201.6" y="403" class="st0" width="18.2" height="18.8"/>
	<rect x="256" y="308.9" class="st1" width="18.2" height="18.9"/>
	<rect x="256" y="327.7" class="st0" width="18.2" height="18.9"/>
	<rect x="310.5" y="384.2" class="st0" width="18.2" height="18.9"/>
	<rect x="292.3" y="365.4" class="st0" width="18.2" height="18.8"/>
	<rect x="310.5" y="365.4" class="st0" width="18.2" height="18.8"/>
	<rect x="256" y="403" class="st0" width="18.2" height="18.8"/>
	<rect x="274.2" y="403" class="st0" width="18.2" height="18.8"/>
	<rect x="346.8" y="327.7" class="st1" width="18.2" height="18.9"/>
	<rect x="328.6" y="384.2" class="st0" width="18.2" height="18.9"/>
	<rect x="383.1" y="384.2" class="st0" width="18.2" height="18.9"/>
	<rect x="364.9" y="365.4" class="st0" width="18.2" height="18.8"/>
	<rect x="383.1" y="365.4" class="st0" width="18.2" height="18.8"/>
	<rect x="328.6" y="403" class="st0" width="18.2" height="18.8"/>
	<rect x="346.8" y="403" class="st0" width="18.2" height="18.8"/>
	<rect x="401.2" y="384.2" class="st0" width="18.2" height="18.9"/>
	<rect x="437.5" y="365.4" class="st0" width="18.2" height="18.8"/>
	<rect x="401.2" y="403" class="st0" width="18.2" height="18.8"/>
	<rect x="419.3" y="403" class="st0" width="18.2" height="18.8"/>
	<rect x="510.1" y="346.5" class="st0" width="18.2" height="18.9"/>
	<rect x="473.8" y="384.2" class="st0" width="18.2" height="18.9"/>
	<rect x="510.1" y="365.4" class="st0" width="18.2" height="18.8"/>
	<rect x="473.8" y="403" class="st0" width="18.2" height="18.8"/>
	<rect x="491.9" y="403" class="st0" width="18.2" height="18.8"/>
	<rect x="546.4" y="327.7" class="st1" width="18.2" height="18.9"/>
	<rect x="546.4" y="384.2" class="st0" width="18.2" height="18.9"/>
	<g>
		<path class="st3" d="M836.7,365.4v-18.8h18.1v-18.8H873h0h18.1h0h18.1v-18.9h-18.1v-18.8H873v-18.8h18.1v-18.9H873v18.8h-18.1
			v-18.8h-18.1h0h-18.1v18.9h18.1h0h18.1v18.8h-18.1h0h-18.1v18.8h-18.1v-18.8h-18.1v-18.8h-18.1h0H746v18.8h-18.1v-18.8v0v-18.8
			H746v-18.9h-18.2v18.8h-18.1v18.8v0v18.8h-18.1v-18.8v0v-18.8h-18.1v-18.8h-18.1v-18.8h-18.2v18.8h-18.1v18.8h-18.1h0h-18.1v-18.8
			h18.1v-18.9h-18.1v-18.8h-18.1h0h-18.1v-18.8h-18.1h0h-18.1v18.8v0v18.8h18.2v-18.8h18.1v18.8h18.1v18.8v0v18.8h18.1v18.8h18.1
			v18.8v0v18.8h-18.1v-18.8h-18.1h0h-18.1v-18.8v0v-18.8h-18.1h0h-18.1v18.8h-18.1h0h-18.1v-18.8h18.1v-18.8v0v-18.8v0v-18.8v0
			v-18.8h-18.2v18.8v0v18.8v0v18.8h-18.1v18.8h-18.1v-18.8v0v-18.8h18.1v-18.8h-18.2v18.8h-18.1h0h-18.1v-18.8v0v-18.8h-18.1v-18.8
			h18.1v-18.9h-18.2v18.8h-18.1v-18.8h-18.2v18.8h-18.1v-18.8h-18.1v-18.8h-18.2v18.9h18.1v18.8h-18.1v18.8v0v18.8h18.1v18.8h-18.1
			h0h-18.1v-18.8h-18.1v-18.8h18.1v-18.8H256v18.8h-18.1v-18.8h-18.2v18.8h18.1v18.8v0v18.8h-18.1v-18.8h-18.1h0h-18.1v18.8h18.1
			v18.8h-18.1h0h-18.1h0h-18.1v-18.8h-18.1v-18.8h-18.1v-18.8v0v-18.8h-1.6v-18.6H91.2v18.7h1.5v18.7H74.6v-18.8H56.5v-18.8v0v-18.8
			H38.3v18.8v0v18.8v0v18.8H20.2h0H2v18.9h18.1v18.8v0v18.8H2v18.9h18.1v18.8H2v18.8v0v18.8v0v18.8v0v18.8v0v18.8h18.2v-18.8h18.1
			v18.8h18.1h0h18.1v-18.8h18.1v18.8h18.1v18.8H129h0h18.1V403h18.2v-18.9h-18.1v-18.8h18.1h0h18.1v18.8h18.1V403h18.2v-18.8v0
			v-18.8v0v-18.8h18.1v18.8H256h0h18.1v18.8h-18.1h0h-18.1V403H256h0h18.1v-18.8h18.1V403h18.2v-18.9h-18.1v-18.8h18.1v-18.8h18.1
			v18.8h18.1v18.8v0V403h18.2v-18.8v0v-18.8h18.1v-18.8h18.1h0h18.1v18.8h-18.1v18.8h18.1h0h18.1v-18.8h18.1v18.8v0V403h18.2v-18.8
			h18.1V403h18.2v-18.9h-18.1v-18.8v0v-18.8h18.1h0h18.1v18.8v0v18.8v0V403h18.2v-18.8v0v-18.8h18.1v18.8v0V403h18.2v-18.8v0v-18.8
			h18.1h0h18.1v18.8h-18.1V403H619v-18.8h18.1V403h18.2v-18.9h-18.1v-18.8h18.1h0h18.1v-18.8h18.1v18.8v0v18.8h-18.1V403h18.2v-18.8
			h18.1V403h18.2v-18.9h-18.1v-18.8v0v-18.8h18.1v18.8H746h0h18.1v18.8h18.1V403h18.2v-18.8v0v-18.8h18.1v18.8h18.1V403h18.1h0H873
			v-18.9h-18.1h0h-18.1V365.4L836.7,365.4z M854.8,290.1H873v18.8h-18.1V290.1z M56.5,327.7H38.3h0H20.2v-18.8v0v-18.8v0v-18.8h18.1
			v18.8v0v18.8h18.1V327.7z M56.5,271.2H38.3v-18.8h18.1V271.2z M74.6,195.9H56.5v18.8v0v18.8H38.3v-18.8v0v-18.8v0v-18.8h18.1h0
			h18.1V195.9z M110.9,271.3H129v18.8h-18.1V271.3z M92.7,233.6H74.6v-18.8v0v-18.8h18.1h0h18.1v18.8H92.7V233.6z M110.9,233.6v18.8
			v0v18.8H92.8v-18.8v0v-18.8H110.9z M147.2,346.5h-18.1h0h-18.1v-18.8H92.8v-18.8v0v-18.8h18.1v18.8H129v18.8h18.1V346.5z
			 M165.3,271.2h-18.1v-18.8h18.1V271.2z M219.8,346.5h-18.1h0h-18.1h0h-18.1v-18.8v0v-18.8h18.1v18.8h18.1h0h18.1V346.5z
			 M219.8,271.2L219.8,271.2v18.8v0v18.8h-18.1v-18.8v0v-18.8v0v-18.8h18.1V271.2z M274.2,327.7L274.2,327.7v18.8h-18.1v-18.8h-18.1
			v-18.8H256h0h18.1V327.7z M274.2,252.4H256v18.8h-18.1v-18.8v0v-18.8v0v-18.8H256v18.8h18.1V252.4z M310.5,290.1h-18.1v-18.8h18.1
			V290.1z M310.5,252.4h-18.1v-18.8h18.1V252.4z M328.6,233.6h-18.1v-18.8h18.1V233.6z M346.8,271.2L346.8,271.2v18.8h-18.1v-18.8v0
			v-18.8h18.1V271.2z M364.9,346.5h-18.1v-18.8h18.1V346.5z M364.9,252.4h-18.1v-18.8h18.1V252.4z M383.1,290.1L383.1,290.1v18.8
			h-18.1v-18.8v0v-18.8h18.1V290.1z M383.1,195.9L383.1,195.9v18.8h-18.1h0h-18.1v-18.8h-18.1h0h-18.1v-18.8v0v-18.8h18.1v18.8h18.2
			v-18.8h18.1v18.8h18.1V195.9z M401.2,233.6h-18.1v-18.8h18.1V233.6z M437.5,308.9h-18.1v-18.8h18.1V308.9z M437.5,271.2h-18.1h0
			h-18.1v-18.8v0v-18.8h18.1v18.8h18.1V271.2z M473.8,290.1h-18.1h0h-18.1v-18.8h18.1h0h18.1V290.1z M491.9,346.5h-18.1v-18.8h18.1
			V346.5z M491.9,308.9h-18.1v-18.8h18.1V308.9z M528.2,290.1L528.2,290.1v18.8h-18.1v-18.8v0v-18.8h18.1V290.1z M546.4,327.7h-18.1
			v-18.8h18.1V327.7z M564.5,346.5h-18.1v-18.8h18.1V346.5z M582.7,327.7h-18.1v-18.8h18.1V327.7z M655.2,346.5h-18.1h0H619v-18.8
			h18.1h0h18.1V346.5z M673.4,290.1h-18.1v18.8h-18.1v-18.8H619v-18.8v0v-18.8h18.1h0h18.1v18.8h18.1V290.1z M709.7,327.7
			L709.7,327.7v18.8h-18.1v-18.8h-18.1v-18.8v0v-18.8h18.1v18.8h18.1V327.7z M727.8,308.9h-18.1v-18.8h18.1V308.9z M746,346.5h-18.1
			v-18.8H746V346.5z M764.1,308.9L764.1,308.9v-18.8h18.1v18.8v0v18.8h-18.1V308.9z M818.5,346.5h-18.1v18.8h-18.1h0h-18.1v-18.8
			h18.1v-18.8h18.1h0h18.1V346.5z M836.7,327.7h-18.1v-18.8h18.1h0h18.1v18.8H836.7L836.7,327.7z"/>
		<polygon class="st3" points="800.4,233.6 818.6,233.6 818.6,214.7 800.4,214.7 800.4,233.6 782.2,233.6 782.2,252.4 800.4,252.4 
					"/>
		<rect x="419.3" y="158.3" class="st3" width="18.2" height="18.8"/>
		<polygon class="st3" points="165.3,195.9 165.3,177.1 183.5,177.1 183.5,158.3 165.3,158.3 165.3,177.1 147.2,177.1 147.2,158.3 
			129,158.3 129,177.1 147.2,177.1 147.2,195.9 		"/>
		<rect x="74.6" y="384.2" class="st3" width="18.2" height="18.9"/>
		<rect x="2" y="384.2" class="st3" width="18.2" height="18.9"/>
		<rect x="691.5" y="214.7" class="st3" width="18.2" height="18.9"/>
		<path class="st3" d="M1000,308.9v-18.9h-18.1v-18.8h-18.2v18.9h18.1v18.8h-18.1v18.8h-18.1v-18.8v0v-18.8h-18.1v-18.8h-18.2v18.9
			h18.1v18.8v0v18.8h18.1v18.8v0v18.8h-18.1v-18.8h-18.1h0h-18.1v18.9h18.1h0h18.1v18.8h18.1V403h18.2v-18.9h-18.1v-18.8h18.1h0
			h18.1h0h18.1v-18.8v0v-18.8h-18.1v-18.8H1000z M981.8,346.5h-18.1v-18.8h18.1V346.5z"/>
		<rect x="2" y="45.3" class="st3" width="18.2" height="18.9"/>
		<rect x="86.9" y="45.3" class="st3" width="18.2" height="18.9"/>
		<polygon class="st3" points="20.2,101.8 38.3,101.8 38.3,83 56.5,83 56.5,64.1 38.3,64.1 38.3,82.9 20.2,82.9 		"/>
		<rect x="2" y="120.6" class="st3" width="18.2" height="18.9"/>
		<polygon class="st3" points="74.6,139.5 92.8,139.5 92.8,120.6 94,120.6 94,101.8 75.8,101.8 75.8,101.8 57.7,101.8 57.7,120.6 
			74.6,120.6 		"/>
		<rect x="38.3" y="384.2" class="st3" width="18.2" height="18.9"/>
		<rect x="120.2" y="82.9" class="st3" width="18.2" height="18.9"/>
		<rect x="129" y="120.6" class="st3" width="18.2" height="18.9"/>
		<rect x="156.5" y="120.6" class="st3" width="18.2" height="18.9"/>
		<rect x="206.6" y="101.8" class="st3" width="18.2" height="18.9"/>
		<rect x="259.1" y="101.8" class="st3" width="18.2" height="18.9"/>
	</g>
	<rect x="582.7" y="365.4" class="st0" width="18.2" height="18.8"/>
	<g>
		<rect x="981.8" y="365.4" class="st4" width="18.2" height="18.8"/>
		<rect x="582.7" y="177.1" class="st4" width="18.2" height="18.9"/>
		<rect x="637.1" y="290.1" class="st4" width="18.2" height="18.9"/>
		<polygon class="st4" points="455.7,195.9 455.7,177.1 437.5,177.1 437.5,195.9 419.3,195.9 419.3,214.8 437.5,214.8 437.5,195.9 
					"/>
		<rect x="455.6" y="271.2" class="st4" width="18.2" height="18.9"/>
		<rect x="328.6" y="271.2" class="st4" width="18.2" height="18.9"/>
		<rect x="401.2" y="346.5" class="st4" width="18.2" height="18.9"/>
		<rect x="237.9" y="252.4" class="st4" width="18.2" height="18.9"/>
		<rect x="256" y="365.4" class="st4" width="18.2" height="18.8"/>
		<rect x="38.3" y="214.7" class="st4" width="18.2" height="18.9"/>
		<rect x="110.9" y="271.2" class="st4" width="18.2" height="18.9"/>
		<rect x="38.3" y="365.4" class="st4" width="18.2" height="18.8"/>
		<rect x="963.7" y="252.4" class="st4" width="18.2" height="18.9"/>
		<rect x="2" y="214.7" class="st4" width="18.2" height="18.9"/>
		<polygon class="st4" points="38.3,271.2 20.2,271.2 20.2,290.1 38.3,290.1 38.3,271.3 56.5,271.3 56.5,252.4 38.3,252.4 		"/>
		<rect x="165.3" y="214.7" class="st4" width="18.2" height="18.9"/>
		<rect x="110.9" y="308.9" class="st4" width="18.2" height="18.9"/>
		<rect x="165.3" y="308.9" class="st4" width="18.2" height="18.9"/>
		<rect x="673.4" y="233.6" class="st4" width="18.2" height="18.9"/>
		<rect x="673.4" y="290.1" class="st4" width="18.2" height="18.9"/>
		<rect x="691.5" y="327.7" class="st4" width="18.2" height="18.9"/>
		<rect x="727.8" y="365.4" class="st4" width="18.2" height="18.8"/>
		<rect x="818.5" y="233.6" class="st4" width="18.2" height="18.9"/>
		<rect x="782.2" y="252.4" class="st4" width="18.2" height="18.9"/>
		<rect x="818.5" y="308.9" class="st4" width="18.2" height="18.9"/>
		<rect x="854.8" y="327.7" class="st4" width="18.2" height="18.9"/>
		<rect x="891.1" y="365.4" class="st4" width="18.2" height="18.8"/>
		<rect x="981.8" y="308.9" class="st4" width="18.2" height="18.9"/>
		<rect x="183.5" y="158.3" class="st4" width="18.2" height="18.8"/>
		<rect x="219.8" y="139.4" class="st4" width="18.2" height="18.9"/>
		<rect x="237.9" y="214.7" class="st4" width="18.2" height="18.9"/>
		<rect x="237.9" y="308.9" class="st4" width="18.2" height="18.9"/>
		<polygon class="st4" points="383.1,233.6 401.2,233.6 401.2,214.7 383.1,214.7 383.1,195.9 364.9,195.9 364.9,214.8 383.1,214.8 
					"/>
		<rect x="364.9" y="290.1" class="st4" width="18.2" height="18.9"/>
		<polygon class="st4" points="528.2,214.7 510.1,214.7 510.1,233.6 528.2,233.6 528.2,252.4 546.4,252.4 546.4,233.6 546.4,233.6 
			546.4,214.7 528.2,214.7 		"/>
		<rect x="491.9" y="346.5" class="st4" width="18.2" height="18.9"/>
		<rect x="582.7" y="271.2" class="st4" width="18.2" height="18.9"/>
		<rect x="600.8" y="365.4" class="st4" width="18.2" height="18.8"/>
	</g>
	<rect x="546.4" y="403" class="st0" width="18.2" height="18.8"/>
	<rect x="564.5" y="403" class="st0" width="18.2" height="18.8"/>
	<polygon class="st5" points="981.9,421.9 981.8,421.9 963.7,421.9 963.7,421.9 945.6,421.9 945.5,421.9 927.4,421.9 927.4,421.9 
		909.3,421.9 909.3,421.9 891.1,421.9 891.1,421.9 873,421.9 873,421.9 854.8,421.9 854.8,421.9 836.7,421.9 836.7,421.9 
		818.6,421.9 818.5,421.9 800.4,421.9 800.4,421.9 782.3,421.9 782.2,421.9 764.1,421.9 764.1,421.9 746,421.9 746,421.9 
		727.8,421.9 727.8,421.9 709.7,421.9 709.7,421.9 691.5,421.9 691.5,421.9 673.4,421.9 673.4,421.9 655.2,421.9 655.2,421.9 
		637.1,421.9 637.1,421.9 619,421.9 618.9,421.9 600.8,421.9 600.8,421.9 582.7,421.9 582.7,421.9 564.5,421.9 564.5,421.9 
		546.4,421.9 546.4,421.9 528.2,421.9 528.2,421.9 510.1,421.9 510.1,421.9 491.9,421.9 491.9,421.9 473.8,421.9 473.8,421.9 
		455.7,421.9 455.6,421.9 437.5,421.9 437.5,421.9 419.4,421.9 419.3,421.9 401.2,421.9 401.2,421.9 383.1,421.9 383.1,421.9 
		364.9,421.9 364.9,421.9 346.8,421.9 346.8,421.9 328.6,421.9 328.6,421.9 310.5,421.9 310.5,421.9 292.4,421.9 292.3,421.9 
		274.2,421.9 274.2,421.9 256.1,421.9 256,421.9 237.9,421.9 237.9,421.9 219.8,421.9 219.8,421.9 201.6,421.9 201.6,421.9 
		183.5,421.9 183.5,421.9 165.3,421.9 165.3,421.9 147.2,421.9 147.2,421.9 129.1,421.9 129,421.9 110.9,421.9 110.9,421.9 
		92.8,421.9 92.7,421.9 74.6,421.9 74.6,421.9 56.5,421.9 56.5,421.9 38.3,421.9 38.3,421.9 20.2,421.9 20.2,421.9 2,421.9 2,440.7 
		2,440.7 2,459.5 20.2,459.5 20.2,459.5 38.3,459.5 38.3,459.5 56.5,459.5 56.5,459.5 74.6,459.5 74.6,459.5 92.7,459.5 92.8,459.5 
		110.9,459.5 110.9,459.5 129,459.5 129.1,459.5 147.2,459.5 147.2,459.5 165.3,459.5 165.3,459.5 183.5,459.5 183.5,459.5 
		201.6,459.5 201.6,459.5 219.8,459.5 219.8,459.5 237.9,459.5 237.9,459.5 256,459.5 256.1,459.5 274.2,459.5 274.2,459.5 
		292.3,459.5 292.4,459.5 310.5,459.5 310.5,459.5 328.6,459.5 328.6,459.5 346.8,459.5 346.8,459.5 364.9,459.5 364.9,459.5 
		383.1,459.5 383.1,459.5 401.2,459.5 401.2,459.5 419.3,459.5 419.4,459.5 437.5,459.5 437.5,459.5 455.6,459.5 455.7,459.5 
		473.8,459.5 473.8,459.5 491.9,459.5 491.9,459.5 510.1,459.5 510.1,459.5 528.2,459.5 528.2,459.5 546.4,459.5 546.4,459.5 
		564.5,459.5 564.5,459.5 582.7,459.5 582.7,459.5 600.8,459.5 600.8,459.5 618.9,459.5 619,459.5 637.1,459.5 637.1,459.5 
		655.2,459.5 655.2,459.5 673.4,459.5 673.4,459.5 691.5,459.5 691.5,459.5 709.7,459.5 709.7,459.5 727.8,459.5 727.8,459.5 
		746,459.5 746,459.5 764.1,459.5 764.1,459.5 782.2,459.5 782.3,459.5 800.4,459.5 800.4,459.5 818.5,459.5 818.6,459.5 
		836.7,459.5 836.7,459.5 854.8,459.5 854.8,459.5 873,459.5 873,459.5 891.1,459.5 891.1,459.5 909.3,459.5 909.3,459.5 
		927.4,459.5 927.4,459.5 945.5,459.5 945.6,459.5 963.7,459.5 963.7,459.5 981.8,459.5 981.9,459.5 1000,459.5 1000,440.7 
		1000,440.7 1000,421.9 	"/>
	<path class="st6" d="M982.9,289v-16.7v-2.1v-18.8h-20.2v18.8v2.1v18.8h18.1v16.7h-18.1v18.8h-16.1V310v-2.1V289h-18.1v-18.8h-20.2
		V289v2.1v16.7h-16.1V289H874v-16.7h18.1v-20.9H872v18.8h-16.1v-18.8h-18.1v-18.8h-18.1v-18.8h-20.2v18.8h-16.1v-18.8h-20.2v20.9
		h18.1v16.7v2.1v16.7h-16.1h-2H747v-16.7v-2.1v-18.8h-20.2v18.8h-18.1v18.8v2.1V289h-16.1v-16.7v-2.1v-16.7v-2.1v-16.7h18.1v-20.9
		h-20.2v18.8h-16.1h-2h-16.1v-18.8h-20.2v18.8h-18.1v18.8h-16.1h-2h-16.1v-16.7h18.1v-20.9h-18.1V197h18.1V176h-20.2v18.8h-16.1h-2
		h-16.1V176h-18.1h-2h-18.1v18.8v2.1v16.7v2.1v18.8h18.1v16.7h-18.1v18.8H493h-2h-16.1v-16.7H493v-18.8v-2.1v-16.7v-2.1V197v-2.1
		V176h-20.2v18.8v2.1v16.7v2.1v16.7h-18.1v18.8h-16.1v-16.7v-2.1v-16.7h18.1V197v-2.1V176h-18.1v-18.8h-20.2v20.9h18.1v16.7h-18.1
		v18.8h-16.1V197v-2.1V176h-18.1v-16.7h18.1v-20.9H382v18.8h-16.1v-18.8h-20.2v18.8h-16.1v-18.8h-18.1v-18.8h-20.2v20.9h18.1v16.7
		h-18.1V176v2.1V197h18.1v16.7h-16.1h-2h-16.1v-18.8h-18.1v-16.7h18.1v-20.9H255V176h-16.1v-16.7v-2.1v-18.8h-20.2v18.8v2.1v18.8
		h18.1v16.7v2.1v16.7h-16.1v-18.8h-18.1h-2h-18.1v18.8h-18.1v18.8h-16.1v-18.8h-18.1v-18.8h-18.1v-16.7V176v-18.8h-1.6v-18.6H93.8
		v-16.9H95v-20.9H76.8h-2H56.7v18.8H37.3v18.8v2.1v16.7v2.1V176H21.2h-2H1V197h18.1v16.7H1v18.8v2.1v18.8h18.1v16.7H1V289v2.1v16.7
		v2.1v16.7v2.1v16.7v2.1v16.7v2.1v16.7v2.1V402v2.1v16.7v2.1v16.7v2.1v16.7v2.1v16.7v2.1v18.8h18.1h2h16.1h2h16.1h2h16.1h2h16.1h2
		h16.1h2H128h2h16.1h2h16.1h2h16.1h2h16.1h2h16.1h2h16.1h2H255h2h16.1h2h16.1h2h16.1h2h16.1h2h16.1h2h16.1h2H382h2h16.1h2h16.1h2
		h16.1h2h16.1h2h16.1h2h16.1h2h16.1h2h16.1h2h16.1h2h16.1h2h16.1h2h16.1h2h16.1h2h16.1h2h16.1h2h16.1h2h16.1h2h16.1h2h16.1h2h16.1h2
		h16.1h2h16.1h2h16.1h2h16.1h2h16.1h2h16.1h2H872h2h16.1h2h16.1h2h16.1h2h16.1h2h16.1h2h16.1h2h18.1v-18.8v-2.1v-16.7v-2.1v-16.7
		v-2.1v-16.7v-2.1V402h-18.1v-16.7h18.1v-18.8v-2.1v-16.7v-2.1v-16.7v-2.1V310v-2.1V289H982.9z M964.7,253.4h16.1v16.7h-16.1V253.4z
		 M964.7,289v-16.7h16.1V289h0v0H964.7z M980.8,383.2h-16.1h-2h-16.1v-16.7h16.1h2h16.1V383.2z M39.3,197v-2.1v-16.7h16.1h2h16.1
		v16.7H55.4v18.8H39.3V197z M57.5,140.5v-2.1v-16.7h16.1v18.8h16.6v18.9h1.5V176H75.6v-18.8H57.5V140.5z M184.5,215.8h16.1v16.7
		h-16.1V215.8z M311.5,176v-16.7h16.1v18.8h20.2v-18.8h16.1v18.8H382v16.7h-18.1v18.8h-16.1v-18.8h-18.1h-2h-16.1v-16.7V176z
		 M436.5,253.5v16.7h-16.1h-2h-16.1v-16.7v-2.1v-16.7h16.1v18.8H436.5z M511.1,289v-16.7h16.1V289v2.1v16.7h-16.1v-16.7V289z
		 M547.4,251.4v-16.7v-2.1v-16.7h16.1v16.7v2.1v18.8h18.1v16.7v2.1V289h-16.1h-2h-16.1v-16.7v-2.1v-16.7V251.4z M529.2,197h16.1
		v16.7h-16.1V197z M529.2,232.5v-16.7v0h16.1v0h0v16.7H529.2z M565.5,215.8h16.1v16.7h-16.1L565.5,215.8L565.5,215.8z M620,270.2
		v-16.7h16.1h2h16.1v18.8h18.1V289h-16.1h-2h-16.1h-2H620v-16.7V270.2z M654.2,251.4h-16.1v-16.7h16.1V251.4L654.2,251.4z
		 M656.2,253.5L656.2,253.5h16.1v16.7v0h-16.1V253.5z M801.4,253.5v-2.1v-16.7h16.1v16.7v2.1v18.8h18.1h2h16.1V289h-16.1h-2h-18.1
		v18.8h-16.1V289h-18.1v-16.7h18.1V253.5z M819.5,253.5h16.1v16.7h-16.1V253.5z M910.3,310h16.1v18.8h18.1v16.7h-16.1h-2h-16.1h-2
		h-18.1v18.8v2.1v16.7H874v-16.7v-2.1v-16.7v-2.1v-16.7h16.1h2h18.1V310z M980.8,364.3L980.8,364.3l-16.1,0v-16.7h16.1V364.3z
		 M21.2,272.3h16.1V289H21.2V272.3z M21.2,215.8h16.1v16.7H21.2V215.8z M39.3,215.8L39.3,215.8l16.1,0v0v16.7H39.3V215.8z
		 M57.5,159.3h16.1V176h0v0H57.5V159.3L57.5,159.3z M75.6,178.2L75.6,178.2l16.1,0v0v16.7H75.6v0h0L75.6,178.2L75.6,178.2z
		 M73.6,197v16.7H57.5h0V197L73.6,197L73.6,197L73.6,197z M184.5,234.6L184.5,234.6l16.1,0v0v16.7h-16.1V234.6z M238.9,215.8H255
		v16.7h-16.1v0V215.8z M438.5,291.1L438.5,291.1l16.1,0v0v16.7h-16.1h0L438.5,291.1L438.5,291.1z M690.5,307.9h-16.1v0v-16.7h16.1
		V307.9z M855.8,310L855.8,310l16.1,0v0v16.7h-16.1h0L855.8,310L855.8,310z M890.1,326.7H874v0V310h16.1V326.7z M980.8,439.6h-16.1
		v-16.7h16.1V439.6z M980.8,458.5h-16.1v-16.7h16.1V458.5z M980.8,477.3h-16.1v-16.7h16.1V477.3z M962.7,477.3h-16.1v-16.7h16.1
		V477.3z M944.5,477.3h-16.1v-16.7h16.1V477.3z M926.4,477.3h-16.1v-16.7h16.1V477.3z M908.2,477.3h-16.1v-16.7h16.1V477.3z
		 M890.1,477.3H874v-16.7h16.1V477.3z M872,477.3h-16.1v-16.7H872V477.3z M853.8,477.3h-16.1v-16.7h16.1V477.3z M835.7,477.3h-16.1
		v-16.7h16.1V477.3z M817.5,477.3h-16.1v-16.7h16.1V477.3z M799.4,477.3h-16.1v-16.7h16.1V477.3z M781.2,477.3h-16.1v-16.7h16.1
		V477.3z M763.1,477.3H747v-16.7h16.1V477.3z M744.9,477.3h-16.1v-16.7h16.1V477.3z M726.8,477.3h-16.1v-16.7h16.1V477.3z
		 M708.7,477.3h-16.1v-16.7h16.1V477.3z M690.5,477.3h-16.1v-16.7h16.1V477.3z M672.4,477.3h-16.1v-16.7h16.1V477.3z M654.2,477.3
		h-16.1v-16.7h16.1V477.3z M636.1,477.3H620v-16.7h16.1V477.3z M617.9,477.3h-16.1v-16.7h16.1V477.3z M599.8,477.3h-16.1v-16.7h16.1
		V477.3z M581.6,477.3h-16.1v-16.7h16.1V477.3z M563.5,477.3h-16.1v-16.7h16.1V477.3z M545.4,477.3h-16.1v-16.7h16.1V477.3z
		 M527.2,477.3h-16.1v-16.7h16.1V477.3z M509.1,477.3H493v-16.7h16.1V477.3z M490.9,477.3h-16.1v-16.7h16.1V477.3z M472.8,477.3
		h-16.1v-16.7h16.1V477.3z M454.6,477.3h-16.1v-16.7h16.1V477.3z M436.5,477.3h-16.1v-16.7h16.1V477.3z M418.3,477.3h-16.1v-16.7
		h16.1V477.3z M400.2,477.3h-16.1v-16.7h16.1V477.3z M382,477.3h-16.1v-16.7H382V477.3z M363.9,477.3h-16.1v-16.7h16.1V477.3z
		 M345.8,477.3h-16.1v-16.7h16.1V477.3z M327.6,477.3h-16.1v-16.7h16.1V477.3z M309.5,477.3h-16.1v-16.7h16.1V477.3z M291.3,477.3
		h-16.1v-16.7h16.1V477.3z M273.2,477.3h-16.1v-16.7h16.1V477.3z M255,477.3h-16.1v-16.7H255V477.3z M236.9,477.3h-16.1v-16.7h16.1
		V477.3z M218.7,477.3h-16.1v-16.7h16.1V477.3z M200.6,477.3h-16.1v-16.7h16.1V477.3z M182.5,477.3h-16.1v-16.7h16.1V477.3z
		 M164.3,477.3h-16.1v-16.7h16.1V477.3z M146.2,477.3h-16.1v-16.7h16.1V477.3z M128,477.3h-16.1v-16.7H128V477.3z M109.9,477.3H93.8
		v-16.7h16.1V477.3z M91.7,477.3H75.6v-16.7h16.1V477.3z M73.6,477.3H57.5v-16.7h16.1V477.3z M55.4,477.3H39.3v-16.7h16.1V477.3z
		 M37.3,477.3H21.2v-16.7h16.1V477.3z M21.2,441.7h16.1v16.7H21.2V441.7z M21.2,422.9h16.1v16.7H21.2V422.9z M21.2,404.1h16.1v16.7
		H21.2V404.1z M21.2,385.3h16.1V402H21.2V385.3z M21.2,366.4h16.1v16.7H21.2V366.4z M21.2,347.6h16.1v16.7H21.2V347.6z M21.2,328.8
		h16.1v16.7H21.2V328.8z M21.2,310h16.1v16.7H21.2V310z M21.2,291.1h16.1v16.7H21.2V291.1z M39.3,272.3h16.1V289H39.3V272.3z
		 M93.8,234.6h16.1v16.7H93.8V234.6z M529.2,310h16.1v16.7h-16.1V310z M601.8,291.1h16.1v16.7h-16.1h0L601.8,291.1L601.8,291.1z
		 M783.3,328.8h16.1h2h16.1v16.7h-16.1h-2h-16.1V328.8z M853.8,364.3v2.1v16.7h-16.1v-16.7v-2.1v-16.7h16.1V364.3z M39.3,234.6h16.1
		v16.7H39.3V234.6z M93.8,253.5L93.8,253.5l16.1,0v0v16.7H93.8V253.5z M166.3,272.3h16.1V289h-16.1V272.3z M184.5,272.3h16.1V289h0
		h-16.1V272.3z M184.5,253.5h16.1h0v16.7h-16.1V253.5z M202.6,234.6h16.1v16.7v0h-16.1v0V234.6z M347.8,253.5L347.8,253.5l16.1,0v0
		v16.7h-16.1h0L347.8,253.5L347.8,253.5z M382,232.5h-16.1v-16.7H382V232.5z M456.7,291.1h16.1v16.7h-16.1V291.1z M529.2,328.8
		L529.2,328.8l16.1,0v0v16.7h-16.1V328.8z M728.8,310h16.1v16.7v0h-16.1v0V310z M747,328.8h16.1v16.7H747h0L747,328.8L747,328.8z
		 M783.3,347.6L783.3,347.6l16.1,0v16.7h-16.1V347.6z M892.1,385.3h16.1h0V402h0h-16.1V385.3z M910.3,366.4h16.1v16.7v0h-16.1v0
		V366.4z M926.4,385.3V402h-16.1v-16.7H926.4z M962.7,458.5h-16.1v-16.7h16.1V458.5z M944.5,458.5h-16.1v-16.7h16.1V458.5z
		 M926.4,458.5h-16.1v-16.7h16.1V458.5z M908.2,458.5h-16.1v-16.7h16.1V458.5z M890.1,458.5H874v-16.7h16.1V458.5z M872,458.5h-16.1
		v-16.7H872V458.5z M853.8,458.5h-16.1v-16.7h16.1V458.5z M835.7,458.5h-16.1v-16.7h16.1V458.5z M817.5,458.5h-16.1v-16.7h16.1
		V458.5z M799.4,458.5h-16.1v-16.7h16.1V458.5z M781.2,458.5h-16.1v-16.7h16.1V458.5z M763.1,458.5H747v-16.7h16.1V458.5z
		 M744.9,458.5h-16.1v-16.7h16.1V458.5z M726.8,458.5h-16.1v-16.7h16.1V458.5z M708.7,458.5h-16.1v-16.7h16.1V458.5z M690.5,458.5
		h-16.1v-16.7h16.1V458.5z M672.4,458.5h-16.1v-16.7h16.1V458.5z M654.2,458.5h-16.1v-16.7h16.1V458.5z M636.1,458.5H620v-16.7h16.1
		V458.5z M617.9,458.5h-16.1v-16.7h16.1V458.5z M599.8,458.5h-16.1v-16.7h16.1V458.5z M581.6,458.5h-16.1v-16.7h16.1V458.5z
		 M563.5,458.5h-16.1v-16.7h16.1V458.5z M545.4,458.5h-16.1v-16.7h16.1V458.5z M527.2,458.5h-16.1v-16.7h16.1V458.5z M509.1,458.5
		H493v-16.7h16.1V458.5z M490.9,458.5h-16.1v-16.7h16.1V458.5z M472.8,458.5h-16.1v-16.7h16.1V458.5z M454.6,458.5h-16.1v-16.7h16.1
		V458.5z M436.5,458.5h-16.1v-16.7h16.1V458.5z M418.3,458.5h-16.1v-16.7h16.1V458.5z M400.2,458.5h-16.1v-16.7h16.1V458.5z
		 M382,458.5h-16.1v-16.7H382V458.5z M363.9,458.5h-16.1v-16.7h16.1V458.5z M345.8,458.5h-16.1v-16.7h16.1V458.5z M327.6,458.5
		h-16.1v-16.7h16.1V458.5z M309.5,458.5h-16.1v-16.7h16.1V458.5z M291.3,458.5h-16.1v-16.7h16.1V458.5z M273.2,458.5h-16.1v-16.7
		h16.1V458.5z M255,458.5h-16.1v-16.7H255V458.5z M236.9,458.5h-16.1v-16.7h16.1V458.5z M218.7,458.5h-16.1v-16.7h16.1V458.5z
		 M200.6,458.5h-16.1v-16.7h16.1V458.5z M182.5,458.5h-16.1v-16.7h16.1V458.5z M164.3,458.5h-16.1v-16.7h16.1V458.5z M146.2,458.5
		h-16.1v-16.7h16.1V458.5z M128,458.5h-16.1v-16.7H128V458.5z M109.9,458.5H93.8v-16.7h16.1V458.5z M91.7,458.5H75.6v-16.7h16.1
		V458.5z M73.6,458.5H57.5v-16.7h16.1V458.5z M55.4,458.5H39.3v-16.7h16.1V458.5z M39.3,291.1h16.1v16.7H39.3V291.1z M166.3,291.1
		h16.1v16.7h-16.1V291.1z M257.1,272.3h16.1V289h-16.1V272.3z M438.5,310h16.1v16.7h-16.1V310z M456.7,310h16.1v16.7h-16.1V310z
		 M710.7,347.6h16.1v16.7h-16.1V347.6z M892.1,404.1h16.1v16.7h-16.1V404.1z M962.7,439.6h-16.1v-16.7h16.1V439.6z M39.3,422.9h16.1
		v16.7H39.3V422.9z M39.3,404.1h16.1v16.7H39.3V404.1z M39.3,385.3h16.1V402H39.3V385.3z M39.3,366.4h16.1v16.7H39.3V366.4z
		 M39.3,347.6h16.1v16.7H39.3V347.6z M39.3,328.8h16.1v16.7H39.3V328.8z M39.3,310h16.1v16.7H39.3V310z M57.5,291.1h16.1v16.7H57.5
		V291.1z M57.5,272.3h16.1V289H57.5V272.3z M57.5,253.5h16.1v16.7H57.5V253.5z M93.8,272.3h16.1V289H93.8V272.3z M184.5,291.1h16.1
		v16.7h-16.1V291.1z M311.5,291.1h16.1v16.7h-16.1V291.1z M329.7,291.1h16.1v16.7h-16.1V291.1z M347.8,272.3h16.1h0V289h0h-16.1
		V272.3z M438.5,328.8h16.1v16.7h-16.1V328.8z M529.2,347.6h16.1v16.7h-16.1V347.6z M583.7,328.8h16.1v16.7h-16.1V328.8z
		 M601.8,328.8h16.1h0v16.7h0h-16.1V328.8z M692.5,366.4h16.1v16.7h-16.1V366.4z M710.7,366.4h16.1v16.7h-16.1V366.4z M747,347.6
		h16.1v16.7v0H747v0V347.6z M783.3,366.4h16.1v16.7h-16.1V366.4z M801.4,366.4h16.1v16.7h-16.1V366.4z M944.5,439.6h-16.1v-16.7
		h16.1V439.6z M926.4,439.6h-16.1v-16.7h16.1V439.6z M908.2,439.6h-16.1v-16.7h16.1V439.6z M890.1,439.6H874v-16.7h16.1V439.6z
		 M872,439.6h-16.1v-16.7H872V439.6z M853.8,439.6h-16.1v-16.7h16.1V439.6z M835.7,439.6h-16.1v-16.7h16.1V439.6z M817.5,439.6
		h-16.1v-16.7h16.1V439.6z M799.4,439.6h-16.1v-16.7h16.1V439.6z M781.2,439.6h-16.1v-16.7h16.1V439.6z M763.1,439.6H747v-16.7h16.1
		V439.6z M744.9,439.6h-16.1v-16.7h16.1V439.6z M726.8,439.6h-16.1v-16.7h16.1V439.6z M708.7,439.6h-16.1v-16.7h16.1V439.6z
		 M690.5,439.6h-16.1v-16.7h16.1V439.6z M672.4,439.6h-16.1v-16.7h16.1V439.6z M654.2,439.6h-16.1v-16.7h16.1V439.6z M636.1,439.6
		H620v-16.7h16.1V439.6z M617.9,439.6h-16.1v-16.7h16.1V439.6z M599.8,439.6h-16.1v-16.7h16.1V439.6z M581.6,439.6h-16.1v-16.7h16.1
		V439.6z M563.5,439.6h-16.1v-16.7h16.1V439.6z M545.4,439.6h-16.1v-16.7h16.1V439.6z M527.2,439.6h-16.1v-16.7h16.1V439.6z
		 M509.1,439.6H493v-16.7h16.1V439.6z M490.9,439.6h-16.1v-16.7h16.1V439.6z M472.8,439.6h-16.1v-16.7h16.1V439.6z M454.6,439.6
		h-16.1v-16.7h16.1V439.6z M436.5,439.6h-16.1v-16.7h16.1V439.6z M418.3,439.6h-16.1v-16.7h16.1V439.6z M400.2,439.6h-16.1v-16.7
		h16.1V439.6z M382,439.6h-16.1v-16.7H382V439.6z M363.9,439.6h-16.1v-16.7h16.1V439.6z M345.8,439.6h-16.1v-16.7h16.1V439.6z
		 M327.6,439.6h-16.1v-16.7h16.1V439.6z M309.5,439.6h-16.1v-16.7h16.1V439.6z M291.3,439.6h-16.1v-16.7h16.1V439.6z M273.2,439.6
		h-16.1v-16.7h16.1V439.6z M255,439.6h-16.1v-16.7H255V439.6z M236.9,439.6h-16.1v-16.7h16.1V439.6z M218.7,439.6h-16.1v-16.7h16.1
		V439.6z M200.6,439.6h-16.1v-16.7h16.1V439.6z M182.5,439.6h-16.1v-16.7h16.1V439.6z M164.3,439.6h-16.1v-16.7h16.1V439.6z
		 M146.2,439.6h-16.1v-16.7h16.1V439.6z M128,439.6h-16.1v-16.7H128V439.6z M109.9,439.6H93.8v-16.7h16.1V439.6z M91.7,439.6H75.6
		v-16.7h16.1V439.6z M73.6,439.6H57.5v-16.7h16.1V439.6z M166.3,310h16.1v16.7h-16.1V310z M220.8,291.1h16.1v16.7h-16.1V291.1z
		 M257.1,291.1h16.1v16.7h-16.1V291.1z M311.5,310h16.1v16.7h-16.1V310z M347.8,291.1h16.1v16.7h-16.1V291.1z M456.7,328.8h16.1h0
		v16.7h0h-16.1V328.8z M547.4,347.6h16.1v16.7v0h-16.1v0V347.6z M583.7,347.6h16.1v16.7h-16.1V347.6z M692.5,385.3h16.1V402h-16.1
		V385.3z M57.5,310h16.1v16.7H57.5V310z M93.8,291.1h16.1v16.7H93.8V291.1z M184.5,310h16.1v16.7h-16.1V310z M202.6,310h16.1v16.7
		h-16.1V310z M220.8,310h16.1v16.7h-16.1V310z M329.7,310h16.1v16.7h-16.1V310z M438.5,347.6h16.1v16.7h-16.1V347.6z M529.2,366.4
		h16.1h0v16.7h0h-16.1V366.4z M601.8,347.6h16.1v16.7h-16.1V347.6z M710.7,385.3h16.1V402h-16.1V385.3z M783.3,385.3h16.1V402h-16.1
		V385.3z M801.4,385.3h16.1V402h-16.1V385.3z M835.7,420.8h-16.1v-16.7h16.1V420.8z M817.5,420.8h-16.1v-16.7h16.1V420.8z
		 M799.4,420.8h-16.1v-16.7h16.1V420.8z M781.2,420.8h-16.1v-16.7h16.1V420.8z M763.1,420.8H747v-16.7h16.1V420.8z M744.9,420.8
		h-16.1v-16.7h16.1V420.8z M726.8,420.8h-16.1v-16.7h16.1V420.8z M708.7,420.8h-16.1v-16.7h16.1V420.8z M781.2,402h-16.1v-16.7h16.1
		V402z M728.8,402v-16.7h16.1V402H728.8z M690.5,420.8h-16.1v-16.7h16.1V420.8z M672.4,420.8h-16.1v-16.7h16.1V420.8z M654.2,420.8
		h-16.1v-16.7h16.1V420.8z M636.1,420.8H620v-16.7h16.1V420.8z M617.9,420.8h-16.1v-16.7h16.1V420.8z M599.8,420.8h-16.1v-16.7h16.1
		V420.8z M581.6,420.8h-16.1v-16.7h16.1V420.8z M563.5,420.8h-16.1v-16.7h16.1V420.8z M545.4,420.8h-16.1v-16.7h16.1V420.8z
		 M527.2,420.8h-16.1v-16.7h16.1V420.8z M509.1,420.8H493v-16.7h16.1V420.8z M490.9,420.8h-16.1v-16.7h16.1V420.8z M472.8,420.8
		h-16.1v-16.7h16.1V420.8z M454.6,420.8h-16.1v-16.7h16.1V420.8z M436.5,420.8h-16.1v-16.7h16.1V420.8z M418.3,420.8h-16.1v-16.7
		h16.1V420.8z M400.2,420.8h-16.1v-16.7h16.1V420.8z M382,420.8h-16.1v-16.7H382V420.8z M363.9,420.8h-16.1v-16.7h16.1V420.8z
		 M345.8,420.8h-16.1v-16.7h16.1V420.8z M327.6,420.8h-16.1v-16.7h16.1V420.8z M309.5,420.8h-16.1v-16.7h16.1V420.8z M291.3,420.8
		h-16.1v-16.7h16.1V420.8z M273.2,420.8h-16.1v-16.7h16.1V420.8z M255,420.8h-16.1v-16.7H255V420.8z M236.9,420.8h-16.1v-16.7h16.1
		V420.8z M218.7,420.8h-16.1v-16.7h16.1V420.8z M200.6,420.8h-16.1v-16.7h16.1V420.8z M182.5,420.8h-16.1v-16.7h16.1V420.8z
		 M164.3,420.8h-16.1v-16.7h16.1V420.8z M146.2,420.8h-16.1v-16.7h16.1V420.8z M128,420.8h-16.1v-16.7H128V420.8z M109.9,420.8H93.8
		v-16.7h16.1V420.8z M91.7,420.8H75.6v-16.7h16.1V420.8z M73.6,420.8H57.5v-16.7h16.1V420.8z M57.5,385.3h16.1V402H57.5V385.3z
		 M57.5,366.4h16.1v16.7H57.5V366.4z M57.5,347.6h16.1v16.7H57.5V347.6z M57.5,328.8h16.1v16.7H57.5V328.8z M75.6,310h16.1v16.7
		H75.6V310z M166.3,328.8h16.1v16.7h-16.1V328.8z M257.1,310h16.1v16.7h-16.1V310z M311.5,328.8h16.1v16.7h-16.1V328.8z M347.8,310
		h16.1v16.7h-16.1V310z M456.7,347.6h16.1v16.7h-16.1V347.6z M583.7,366.4h16.1v16.7h-16.1V366.4z M93.8,310h16.1v16.7H93.8V310z
		 M184.5,328.8h16.1v16.7h-16.1V328.8z M202.6,328.8h16.1v16.7h-16.1V328.8z M220.8,328.8h16.1v16.7h-16.1V328.8z M329.7,328.8h16.1
		v16.7h-16.1V328.8z M438.5,366.4h16.1v16.7h-16.1V366.4z M527.2,402h-16.1v-16.7h16.1V402z M509.1,402H493v-16.7h16.1V402z
		 M490.9,402h-16.1v-16.7h16.1V402z M472.8,402h-16.1v-16.7h16.1V402z M454.6,402h-16.1v-16.7h16.1V402z M436.5,402h-16.1v-16.7
		h16.1V402z M418.3,402h-16.1v-16.7h16.1V402z M400.2,402h-16.1v-16.7h16.1V402z M382,402h-16.1v-16.7H382V402z M363.9,402h-16.1
		v-16.7h16.1V402z M345.8,402h-16.1v-16.7h16.1V402z M327.6,402h-16.1v-16.7h16.1V402z M309.5,402h-16.1v-16.7h16.1V402z M291.3,402
		h-16.1v-16.7h16.1V402z M273.2,402h-16.1v-16.7h16.1V402z M255,402h-16.1v-16.7H255V402z M236.9,402h-16.1v-16.7h16.1V402z
		 M218.7,402h-16.1v-16.7h16.1V402z M200.6,402h-16.1v-16.7h16.1V402z M182.5,402h-16.1v-16.7h16.1V402z M164.3,402h-16.1v-16.7
		h16.1V402z M146.2,402h-16.1v-16.7h16.1V402z M128,402h-16.1v-16.7H128V402z M109.9,402H93.8v-16.7h16.1V402z M91.7,402H75.6v-16.7
		h16.1V402z M75.6,328.8h16.1v16.7H75.6V328.8z M166.3,347.6h16.1v16.7h-16.1V347.6z M238.9,328.8H255v16.7h-16.1V328.8z
		 M257.1,328.8h16.1v16.7h-16.1V328.8z M311.5,347.6h16.1v16.7h-16.1V347.6z M347.8,328.8h16.1v16.7h-16.1V328.8z M75.6,366.4h16.1
		v16.7H75.6V366.4z M75.6,347.6h16.1v16.7H75.6V347.6z M93.8,328.8h16.1v16.7H93.8V328.8z M184.5,347.6h16.1v16.7h-16.1V347.6z
		 M202.6,347.6h16.1v16.7h-16.1V347.6z M220.8,347.6h16.1v16.7h-16.1V347.6z M329.7,347.6h16.1v16.7h-16.1V347.6z M400.2,383.2
		h-16.1v-16.7h16.1V383.2z M382,383.2h-16.1v-16.7H382V383.2z M363.9,383.2h-16.1v-16.7h16.1V383.2z M345.8,383.2h-16.1v-16.7h16.1
		V383.2z M327.6,383.2h-16.1v-16.7h16.1V383.2z M347.8,347.6h16.1v16.7h-16.1V347.6z M382,364.3h-16.1v-16.7H382V364.3z
		 M309.5,383.2h-16.1v-16.7h16.1V383.2z M291.3,383.2h-16.1v-16.7h16.1V383.2z M273.2,383.2h-16.1v-16.7h16.1V383.2z M255,383.2
		h-16.1v-16.7H255V383.2z M236.9,383.2h-16.1v-16.7h16.1V383.2z M218.7,383.2h-16.1v-16.7h16.1V383.2z M200.6,383.2h-16.1v-16.7
		h16.1V383.2z M182.5,383.2h-16.1v-16.7h16.1V383.2z M238.9,347.6H255v16.7h-16.1V347.6z M257.1,347.6h16.1v16.7h-16.1V347.6z
		 M291.3,364.3h-16.1v-16.7h16.1V364.3z M164.3,383.2h-16.1v-16.7h16.1V383.2z M146.2,383.2h-16.1v-16.7h16.1V383.2z M128,383.2
		h-16.1v-16.7H128V383.2z M109.9,383.2H93.8v-16.7h16.1V383.2z M93.8,347.6h16.1v16.7H93.8V347.6z M128,364.3h-16.1v-16.7H128V364.3
		z M146.2,364.3h-16.1v-16.7h16.1V364.3z M128,345.5h-16.1v-16.7H128V345.5z M418.3,383.2h-16.1v-16.7h16.1V383.2z M400.2,364.3
		h-16.1v-16.7h16.1V364.3z M382,345.5h-16.1v-16.7H382V345.5z M309.5,364.3h-16.1v-16.7h16.1V364.3z M164.3,364.3h-16.1v-16.7h16.1
		V364.3z M456.7,366.4h16.1v16.7h-16.1V366.4z M490.9,383.2h-16.1v-16.7h16.1V383.2z M436.5,383.2h-16.1v-16.7h16.1V383.2z
		 M291.3,345.5h-16.1v-16.7h16.1V345.5z M146.2,345.5h-16.1v-16.7h16.1V345.5z M128,326.7h-16.1V310H128V326.7z M529.2,385.3h16.1
		V402h-16.1V385.3z M601.8,366.4h16.1v16.7h-16.1V366.4z M617.9,402h-16.1v-16.7h16.1V402z M599.8,402h-16.1v-16.7h16.1V402z
		 M620,385.3h16.1V402H620V385.3z M581.6,402h-16.1v-16.7h16.1V402z M563.5,385.3V402h-16.1v-16.7v0L563.5,385.3L563.5,385.3z
		 M509.1,383.2H493v-16.7h16.1V383.2z M418.3,364.3h-16.1v-16.7h16.1V364.3z M400.2,345.5h-16.1v-16.7h16.1V345.5z M382,326.7h-16.1
		V310H382V326.7z M309.5,345.5h-16.1v-16.7h16.1V345.5z M255,326.7h-16.1V310H255V326.7z M164.3,345.5h-16.1v-16.7h16.1V345.5z
		 M672.4,402h-16.1v-16.7h16.1V402z M654.2,385.3V402h-16.1v-16.7v0L654.2,385.3L654.2,385.3z M636.1,383.2H620v-16.7h16.1h0
		L636.1,383.2L636.1,383.2z M565.5,366.4h16.1v16.7h-16.1h0L565.5,366.4L565.5,366.4z M563.5,383.2h-16.1v-16.7h16.1V383.2z
		 M527.2,383.2h-16.1v-16.7h16.1V383.2z M436.5,364.3h-16.1v-16.7h16.1V364.3z M291.3,326.7h-16.1V310h16.1V326.7z M146.2,326.7
		h-16.1V310h16.1V326.7z M128,307.8h-16.1v-16.7H128V307.8z M91.7,307.8H75.6v-16.7h16.1V307.8z M853.8,420.8h-16.1v-16.7h16.1
		V420.8z M763.1,385.3V402H747v-16.7v0L763.1,385.3L763.1,385.3z M690.5,402h-16.1v-16.7h16.1V402z M654.2,383.2h-16.1v-16.7h16.1
		V383.2z M654.2,364.3L654.2,364.3l-16.1,0v0v-16.7h16.1V364.3z M581.6,364.3h-16.1v-16.7h16.1V364.3z M509.1,364.3H493v-16.7h16.1
		V364.3z M490.9,347.6v16.7h-16.1v-16.7v0L490.9,347.6L490.9,347.6z M418.3,345.5h-16.1v-16.7h16.1V345.5z M400.2,326.7h-16.1V310
		h16.1V326.7z M309.5,326.7h-16.1V310h16.1V326.7z M255,307.8h-16.1v-16.7H255V307.8z M164.3,326.7h-16.1V310h16.1V326.7z
		 M872,420.8h-16.1v-16.7H872V420.8z M819.6,402v-16.7h16.1V402H819.6z M781.2,383.2h-16.1h0v-16.7h0h16.1V383.2z M763.1,366.4v16.7
		H747v-16.7H763.1z M745,383.2L745,383.2h-16.1v-16.7h16.1h0V383.2z M656.3,383.2L656.3,383.2l0-16.7h0h16.1v16.7H656.3z
		 M636.1,347.6v16.7H620v-16.7v0L636.1,347.6L636.1,347.6z M527.2,364.3h-16.1v-16.7h16.1V364.3z M490.9,345.5h-16.1v-16.7h16.1
		V345.5z M436.5,345.5h-16.1v-16.7h16.1V345.5z M400.2,307.8h-16.1v-16.7h16.1V307.8z M382,291.1v16.7h-16.1v-16.7v0L382,291.1
		L382,291.1z M275.2,307.8v-16.7h16.1v16.7H275.2z M146.2,307.8h-16.1v-16.7h16.1V307.8z M128,289h-16.1v-16.7H128V289z M91.7,289
		H75.6v-16.7h16.1V289z M944.5,420.8h-16.1v-16.7h16.1V420.8z M926.4,404.1v16.7h-16.1v-16.7v0L926.4,404.1L926.4,404.1z
		 M890.1,420.8H874v-16.7h16.1V420.8z M638.1,328.8h16.1v16.7h-16.1h0L638.1,328.8L638.1,328.8z M636.1,345.5H620v-16.7h16.1V345.5z
		 M617.9,326.7h-16.1V310h16.1V326.7z M547.4,345.5v-16.7h16.1v16.7H547.4z M509.1,345.5H493h0v-16.7h0h16.1V345.5z M490.9,326.7
		L490.9,326.7l-16.1,0v0V310h16.1V326.7z M402.2,326.7V310h16.1v16.7H402.2z M382,289h-16.1v-16.7H382V289z M382,270.2L382,270.2
		l-16.1,0v0v-16.7H382V270.2z M255,289h-16.1v-16.7H255V289z M236.9,272.3V289h-16.1h0v-16.7H236.9z M218.7,291.1v16.7h-16.1v-16.7
		v0L218.7,291.1L218.7,291.1z M164.3,307.8h-16.1v-16.7h16.1V307.8z M128,270.2h-16.1v-16.7H128V270.2z M855.8,402v-16.7H872V402
		H855.8z M853.8,385.3V402h-16.1v-16.7v0L853.8,385.3L853.8,385.3z M835.7,383.2h-16.1v-16.7h16.1L835.7,383.2L835.7,383.2z
		 M819.6,364.3v-16.7h16.1h0v16.7H819.6z M817.5,347.6v16.7h-16.1v-16.7L817.5,347.6L817.5,347.6z M765.1,364.3v-16.7h16.1v16.7
		H765.1z M744.9,347.6v16.7h-16.1v-16.7v0L744.9,347.6L744.9,347.6z M690.5,366.4v16.7h-16.1v-16.7v0L690.5,366.4L690.5,366.4z
		 M672.4,364.3h-16.1v-16.7h16.1h0L672.4,364.3L672.4,364.3z M656.3,345.5v-16.7h16.1v16.7H656.3z M654.2,326.7h-16.1V310h16.1
		V326.7z M636.1,326.7L636.1,326.7l-16.1,0v0V310h16.1V326.7z M581.6,328.8v16.7h-16.1v-16.7v0L581.6,328.8L581.6,328.8z
		 M511.1,345.5v-16.7h16.1v16.7H511.1z M384.1,289L384.1,289l0-16.7h0h16.1V289H384.1z M345.8,272.3V289h-16.1v-16.7v0L345.8,272.3
		L345.8,272.3z M309.5,291.1v16.7h-16.1v-16.7v0L309.5,291.1L309.5,291.1z M291.3,289h-16.1v-16.7h16.1h0L291.3,289L291.3,289z
		 M275.2,270.2v-16.7h16.1v16.7H275.2z M220.8,270.2v-16.7h0h16.1v16.7H220.8z M218.7,253.5v16.7v2.1V289h-16.1v-16.7v-2.1v-16.7
		H218.7z M130.1,289v-16.7h16.1V289H130.1z M75.6,270.2v-16.7h16.1v16.7H75.6z M57.5,251.4v-16.7h16.1v16.7H57.5z M962.7,420.8
		h-16.1v-16.7h16.1V420.8z M928.4,402L928.4,402l0-16.7h0h16.1V402H928.4z M853.8,328.8v16.7v0h-16.1v0v-16.7v0L853.8,328.8
		L853.8,328.8z M835.7,326.7h-16.1V310h16.1h0L835.7,326.7L835.7,326.7z M819.6,328.8h16.1v16.7h-16.1h0L819.6,328.8L819.6,328.8z
		 M744.9,328.8v16.7h-16.1v-16.7H744.9z M726.8,345.5L726.8,345.5h-16.1v-16.7h16.1h0V345.5z M692.5,347.6h16.1v16.7h-16.1h0
		L692.5,347.6L692.5,347.6z M690.5,364.3h-16.1v-16.7h16.1V364.3z M599.8,307.8h-16.1v-16.7h16.1V307.8z M583.7,310L583.7,310
		l16.1,0v0v16.7h-16.1h0L583.7,310L583.7,310z M581.6,326.7h-16.1V310h16.1V326.7z M547.4,310h16.1h0v16.7h0h-16.1h0L547.4,310
		L547.4,310z M493,326.7V310h16.1v16.7H493z M490.9,307.8h-16.1v-16.7h16.1V307.8z M436.5,310v16.7h-16.1V310v0L436.5,310L436.5,310
		z M418.3,307.8h-16.1v-16.7h16.1h0L418.3,307.8L418.3,307.8z M365.9,234.6H382v16.7h-16.1h0L365.9,234.6L365.9,234.6z M363.9,251.4
		h-16.1v-16.7h16.1V251.4z M345.8,251.4L345.8,251.4L345.8,251.4l-16.1,0v0v-16.7h16.1h0V251.4z M345.8,253.5v16.7h-16.1v-16.7
		H345.8z M327.6,270.2L327.6,270.2h-16.1v-16.7h16.1h0V270.2z M311.5,272.3h16.1V289h-16.1h0L311.5,272.3L311.5,272.3z M309.5,289
		h-16.1v-16.7h16.1V289z M273.2,253.5v16.7h-16.1v-16.7L273.2,253.5L273.2,253.5z M255,270.2h-16.1v-16.7v0H255V270.2z M111.9,234.6
		H128v16.7h-16.1h0L111.9,234.6L111.9,234.6z M39.3,253.5h16.1v16.7H39.3V253.5z M944.5,347.6v16.7h-16.1v-16.7L944.5,347.6
		L944.5,347.6z M926.4,364.3h-16.1v-16.7h16.1V364.3z M908.2,364.3h-16.1v-16.7h16.1V364.3z M908.2,366.4v16.7h-16.1h0v-16.7H908.2z
		 M890.1,385.3V402H874v-16.7v0L890.1,385.3L890.1,385.3z M872,383.2h-16.1h0v-16.7H872L872,383.2L872,383.2z M855.8,364.3v-16.7h0
		H872v16.7H855.8z M855.8,345.5v-16.7H872h0v16.7H855.8z M853.8,326.7h-16.1V310h16.1V326.7z M835.7,307.8h-16.1h0v-16.7h16.1V307.8
		z M817.5,310v16.7v0h-16.1V310v0L817.5,310L817.5,310z M799.4,310v16.7h-16.1v0h0V310H799.4z M781.3,328.8v16.7h0h-16.1v-16.7v0
		L781.3,328.8L781.3,328.8L781.3,328.8z M763.1,326.7H747V310h16.1L763.1,326.7L763.1,326.7z M747,307.8v-16.7h16.1h0v16.7H747z
		 M708.7,328.8v16.7h-16.1v-16.7L708.7,328.8L708.7,328.8z M690.5,345.5L690.5,345.5l-16.1,0v0v-16.7v0h16.1V345.5z M672.4,326.7
		h-16.1V310h16.1h0L672.4,326.7L672.4,326.7z M672.4,291.1v16.7h-16.1v-16.7L672.4,291.1L672.4,291.1z M654.2,307.8h-16.1v-16.7
		h16.1V307.8z M636.1,307.8H620v-16.7v0h16.1V307.8z M599.8,272.3V289v0h-16.1v0h0v-16.7H599.8z M581.7,291.1v16.7h0v0h-16.1v0
		v-16.7L581.7,291.1L581.7,291.1L581.7,291.1z M563.5,307.8h-16.1v-16.7v0h16.1V307.8z M545.4,291.1v16.7v0h-16.1v0h0v-16.7H545.4z
		 M527.2,310v16.7h0h-16.1V310v0L527.2,310L527.2,310L527.2,310z M436.5,307.8h-16.1v-16.7h16.1V307.8z M418.3,289h-16.1v-16.7v0
		h16.1V289z M400.2,270.2h-16.1v-16.7h16.1L400.2,270.2L400.2,270.2z M384.1,251.4v-16.7h16.1h0v16.7H384.1z M384.1,232.5v-16.7
		h16.1v16.7H384.1z M382,197v16.7h-16.1h0V197L382,197L382,197z M363.9,215.8v16.7v0h-16.1v0v-16.7v0L363.9,215.8L363.9,215.8z
		 M345.8,213.7L345.8,213.7h-16.1V197h16.1V213.7z M309.5,253.5v16.7v0h-16.1v0v-16.7v0L309.5,253.5L309.5,253.5z M291.3,251.4
		h-16.1h0v-16.7h0h16.1h0L291.3,251.4L291.3,251.4z M273.2,232.5h-16.1v-16.7h16.1V232.5L273.2,232.5z M255,234.6h2h16.1v16.7h-16.1
		h-2h-16.1v-16.7H255z M236.9,251.4L236.9,251.4h-16.1v-16.7h16.1h0V251.4z M166.3,251.4v-16.7h16.1v16.7H166.3z M164.3,272.3V289
		h-16.1v-16.7v0L164.3,272.3L164.3,272.3z M146.2,270.2h-16.1v-16.7h16.1h0L146.2,270.2L146.2,270.2z M130.1,251.4v-16.7h16.1v16.7
		H130.1z M111.9,232.5v-16.7H128v16.7H111.9z M109.9,215.8v16.7v0H93.8v0h0v-16.7L109.9,215.8L109.9,215.8z M91.8,234.6v16.7h0H75.6
		v-16.7v0L91.8,234.6L91.8,234.6L91.8,234.6z M73.6,232.5H57.5v-16.7h16.1L73.6,232.5L73.6,232.5z M37.3,234.6v16.7H21.2v-16.7H37.3
		z M964.7,420.8v-16.7h16.1v16.7H964.7z M962.7,402h-16.1v-16.7v0h16.1V402z M944.5,383.2h-16.1v-16.7h16.1h0L944.5,383.2
		L944.5,383.2z M946.6,364.3v-16.7h16.1v16.7L946.6,364.3L946.6,364.3z M964.7,328.8h16.1v16.7h-16.1V328.8z M855.8,307.8v-16.7H872
		v16.7H855.8z M853.8,307.8L853.8,307.8L853.8,307.8l-16.1,0v0v-16.7h16.1v0h0V307.8z M783.3,291.1L783.3,291.1l16.1,0v16.7h0h-16.1
		L783.3,291.1L783.3,291.1z M781.2,307.8v2.1v16.7h-16.1V310v-2.1v-16.7h16.1V307.8z M728.8,291.1L728.8,291.1l16.1,0v0v16.7h-16.1
		h0L728.8,291.1L728.8,291.1z M728.8,289v-16.7h16.1V289H728.8z M726.8,307.8h-16.1v-16.7h16.1V307.8z M710.7,310L710.7,310l16.1,0
		v0v16.7h-16.1h0L710.7,310L710.7,310z M708.7,326.7h-16.1h-2h-16.1V310h16.1h2h16.1V326.7z M618,289L618,289h-16.1v-16.7H618V289z
		 M545.4,270.2h-16.1v-16.7h16.1V270.2z M529.2,272.3h16.1V289h0h-16.1L529.2,272.3L529.2,272.3z M509.1,307.8L509.1,307.8H493
		v-16.7h16.1V307.8z M456.7,272.3h16.1V289h-16.1h0L456.7,272.3L456.7,272.3z M454.6,289h-16.1v-16.7h16.1V289z M436.5,289
		L436.5,289L436.5,289l-16.1,0v0v-16.7h16.1v0h0V289z M329.7,215.8h16.1v16.7h-16.1h0L329.7,215.8L329.7,215.8z M327.6,232.5h-16.1
		v-16.7h16.1V232.5z M311.5,234.6L311.5,234.6l16.1,0v0v16.7h-16.1h0L311.5,234.6L311.5,234.6z M309.5,251.4h-16.1v-16.7h16.1V251.4
		z M202.6,215.8h16.1v16.7h-16.1h0L202.6,215.8L202.6,215.8z M166.3,253.5h16.1v16.7h-16.1h0L166.3,253.5L166.3,253.5z M164.3,270.2
		h-16.1v-16.7h16.1V270.2z M91.7,213.7v18.8H75.6v-16.7v-2.1V197h16.1h2h16.1v16.7H91.7z M964.7,309.9h16.1v0v16.7h-16.1h0V309.9z
		 M962.7,328.8L962.7,328.8v16.7h-16.1h0v-16.7h0v0H962.7z M944.6,326.7L944.6,326.7L944.6,326.7l-16.1,0V310h0h16.1V326.7z
		 M944.6,291.1v16.7h-16.1v-16.7v0H944.6z M910.3,272.3h16.1V289h0h-16.1V272.3z M910.3,291.1h16.1v16.7v0h-16.1v0h0V291.1z
		 M908.2,309.9L908.2,309.9L908.2,309.9l0,16.8h-16.1V310v0H908.2z M890.1,291.1v16.7h0H874h0v-16.7h0v0H890.1z M874,253.4h16.1
		v16.8H874v0h0V253.4z M872,272.3L872,272.3L872,272.3l0,16.7h0v0h-16.1v0h0v-16.7h0v0H872z M853.8,253.4v16.7h0v0h-16.1v-16.7v0
		H853.8z M835.7,234.6v16.7h0h-16.1v-16.7h0v0H835.7z M801.4,215.8h16.1v16.7h0v0h-16.1v0h0V215.8z M765.1,232.5v-16.8h16.1v16.7h0
		v0H765.1z M783.3,234.6L783.3,234.6L783.3,234.6l16.1,0v0h0v16.7h-16.1V234.6z M783.3,253.5h16.1v16.7h-16.1v0h0V253.5z
		 M781.2,272.3L781.2,272.3L781.2,272.3l0,16.7h0v0h-16.1v0v-16.7H781.2z M763.1,272.3V289H747h0v-16.7h0v0H763.1z M745,270.2
		L745,270.2L745,270.2l-16.1,0v0v-16.7H745V270.2z M728.8,234.6H745v16.7h-16.1h0V234.6z M710.7,253.4h16.1v0v16.7h-16.1V253.4z
		 M710.7,272.3h16.1h0V289h0v0h-16.1v0h0V272.3z M708.7,291.1L708.7,291.1L708.7,291.1l0,16.7h0v0h-16.1v-16.7v0H708.7z M690.5,289
		L690.5,289h-16.1h0v-16.7h0h16.1V289z M690.5,270.2h-16.1v-16.7h16.1V270.2z M692.5,215.8h16.1v16.8h-16.1v0h0V215.8z M690.5,234.6
		L690.5,234.6L690.5,234.6l0,16.7h-16.1v-16.7H690.5z M672.4,234.6v16.7h-16.1v-16.7v0H672.4z M638.1,215.8h16.1v16.7h0h-16.1h0
		V215.8z M619.9,234.6h16.1v0v16.7H620v0h0V234.6z M617.9,253.4L617.9,253.4L617.9,253.4l0,16.7h-16.1v-16.7H617.9z M599.8,253.4
		v16.7h-16.1v-16.7h0v0H599.8z M581.7,251.4L581.7,251.4L581.7,251.4l-16.1,0v-16.7h16.1h0V251.4z M599.8,215.8v16.8h-16.1v0v-16.7
		v0H599.8z M583.7,178.1h16.1v16.8h-16.1v0h0V178.1z M581.6,197L581.6,197L581.6,197l0,16.7h0h-16.1V197H581.6z M563.5,197v16.7v0
		h-16.1v0h0V197h0v0H563.5z M545.4,178.1v16.7h0v0h-16.1v0v-16.7H545.4z M511.1,178.1h16.1v16.7h-16.1V178.1z M511.1,197h16.1h0
		v16.7h0h-16.1V197z M511.1,232.5v-16.7h16.1v16.7v0H511.1z M529.2,234.6L529.2,234.6h16.1v16.7h-16.1h0V234.6z M511.1,253.4h16.1v0
		v16.7v0h-16.1v0h0V253.4z M509.1,272.3L509.1,272.3L509.1,272.3l0,16.7H493v-16.7H509.1z M490.9,272.3V289h-16.1v-16.7v0H490.9z
		 M472.8,270.2L472.8,270.2h-16.1v-16.7h16.1h0V270.2z M490.9,251.4h-16.1v0v-16.7h16.1V251.4z M474.8,178.1h16.1v16.7h-16.1V178.1z
		 M474.8,197h16.1v16.7h-16.1V197z M474.8,215.8h16.1v16.7h-16.1h0V215.8z M456.6,234.6h16.1v0v16.7h-16.1h0V234.6z M454.6,253.4
		L454.6,253.4v16.7v0h-16.1v0h0v-16.7h0v0H454.6z M436.5,251.4L436.5,251.4L436.5,251.4l-16.1,0v-16.7h0h16.1V251.4z M436.5,232.5
		h-16.1v-16.7h16.1h0V232.5z M454.6,213.7h-16.1v0V197h16.1V213.7z M420.4,176.1v-16.8h16.1V176h0v0H420.4z M438.5,178.2
		L438.5,178.2L438.5,178.2l16.1,0v16.7h-16.1h0V178.2z M420.4,197h16.1v0v16.7h-16.1h0V197z M418.3,215.8L418.3,215.8v16.7v0h-16.1
		v0v-16.7v0H418.3z M400.2,213.7L400.2,213.7h-16.1V197h16.1V213.7z M400.2,178.1v16.7h-16.1h0v-16.7h0v0H400.2z M384.1,140.5h16.1
		v16.8h-16.1v0h0V140.5z M382,159.3L382,159.3L382,159.3l0,16.7h0v0h-16.1v-16.7h0v0H382z M347.8,140.5h16.1v16.7h0v0h-16.1v0h0
		V140.5z M345.8,159.3L345.8,159.3L345.8,159.3l0,16.8h-16.1v-16.7h0v0H345.8z M293.3,138.4v-16.8h16.1v16.7h0v0H293.3z
		 M311.5,140.5L311.5,140.5L311.5,140.5l16.1,0v16.7h0v0h-16.1v0h0V140.5z M293.3,159.3h16.1v0h0V176h-16.1V159.3z M293.3,194.9
		v-16.7h16.1v16.7h0v0H293.3z M311.5,197L311.5,197L311.5,197l16.1,0v16.7v0h-16.1v0h0V197z M309.5,215.8L309.5,215.8L309.5,215.8
		l0,16.7h0v0h-16.1v0v-16.7H309.5z M291.3,215.8v16.7h-16.1v-16.7v0H291.3z M273.2,197v16.7h0h-16.1V197v0H273.2z M257.1,159.3h16.1
		v16.8h-16.1v0h0V159.3z M220.8,140.5h16.1v16.7h-16.1V140.5z M220.8,176.1v-16.7h16.1V176h0v0H220.8z M238.9,178.2L238.9,178.2
		L238.9,178.2l16.1,0v0h0v16.7h0h-16.1V178.2z M238.9,197H255v16.7h-16.1h0V197z M236.9,215.8L236.9,215.8v16.7h-16.1v-16.7v0H236.9
		z M218.8,197v16.7h0h-16.1V197H218.8z M184.5,197h16.1v16.7v0h-16.1v0h0V197z M166.3,215.8h16.1v0h0v16.7h0h-16.1h0V215.8z
		 M164.3,234.6L164.3,234.6v16.7v0h-16.1v0v-16.7v0H164.3z M146.2,215.8v16.7h0h-16.1v-16.7v0H146.2z M128,197v16.7h0h-16.1h0V197h0
		v0H128z M109.9,194.9L109.9,194.9L109.9,194.9l-16.1,0v-16.7h16.1V194.9z M93.8,176L93.8,176l0-16.6h16.1V176H93.8z M108.3,157.2
		H92.2v-16.5h16.1V157.2z M91.8,138.4H75.6v-16.7h1.2h14.9V138.4z M93,102.8v16.7H76.8v-16.7H93z M58.7,102.8h16.1v16.7h-1.2v0H58.7
		V102.8z M39.3,121.6h16.1v16.7H39.3V121.6z M39.3,140.5h16.1v16.7h0H39.3V140.5z M39.3,159.3h16.1v16.7H39.3v0h0V159.3z
		 M37.3,178.1L37.3,178.1L37.3,178.1l0,16.7H21.2v-16.7H37.3z M3,194.9v-16.8h16.1v16.7v0H3z M21.2,197L21.2,197h16.1v16.7h0H21.2h0
		V197z M3,215.8h16.1v0v16.7H3V215.8z M3,251.4v-16.7h16.1v16.7v0H3z M21.2,253.5L21.2,253.5h16.1v16.7H21.2h0V253.5z M3,272.3h16.1
		v0V289H3V272.3z M3,291.1h16.1v16.7H3V291.1z M3,310h16.1v16.7H3V310z M3,328.8h16.1v16.7H3V328.8z M3,347.6h16.1v16.7H3V347.6z
		 M3,366.4h16.1v16.7H3V366.4z M3,385.3h16.1V402H3V385.3z M3,404.1h16.1v16.7H3V404.1z M3,422.9h16.1v16.7H3V422.9z M3,441.7h16.1
		v16.7H3V441.7z M3,460.6h16.1v16.7H3V460.6z M3,496.1v-16.7h16.1v16.7H3z M21.2,496.1v-16.7h16.1v16.7H21.2z M39.3,496.1v-16.7
		h16.1v16.7H39.3z M57.5,496.1v-16.7h16.1v16.7H57.5z M75.6,496.1v-16.7h16.1v16.7H75.6z M93.8,496.1v-16.7h16.1v16.7H93.8z
		 M111.9,496.1v-16.7H128v16.7H111.9z M130.1,496.1v-16.7h16.1v16.7H130.1z M148.2,496.1v-16.7h16.1v16.7H148.2z M166.3,496.1v-16.7
		h16.1v16.7H166.3z M184.5,496.1v-16.7h16.1v16.7H184.5z M202.6,496.1v-16.7h16.1v16.7H202.6z M220.8,496.1v-16.7h16.1v16.7H220.8z
		 M238.9,496.1v-16.7H255v16.7H238.9z M257.1,496.1v-16.7h16.1v16.7H257.1z M275.2,496.1v-16.7h16.1v16.7H275.2z M293.4,496.1v-16.7
		h16.1v16.7H293.4z M311.5,496.1v-16.7h16.1v16.7H311.5z M329.7,496.1v-16.7h16.1v16.7H329.7z M347.8,496.1v-16.7h16.1v16.7H347.8z
		 M365.9,496.1v-16.7H382v16.7H365.9z M384.1,496.1v-16.7h16.1v16.7H384.1z M402.2,496.1v-16.7h16.1v16.7H402.2z M420.4,496.1v-16.7
		h16.1v16.7H420.4z M438.5,496.1v-16.7h16.1v16.7H438.5z M456.7,496.1v-16.7h16.1v16.7H456.7z M474.8,496.1v-16.7h16.1v16.7H474.8z
		 M493,496.1v-16.7h16.1v16.7H493z M511.1,496.1v-16.7h16.1v16.7H511.1z M529.2,496.1v-16.7h16.1v16.7H529.2z M547.4,496.1v-16.7
		h16.1v16.7H547.4z M565.5,496.1v-16.7h16.1v16.7H565.5z M583.7,496.1v-16.7h16.1v16.7H583.7z M601.8,496.1v-16.7h16.1v16.7H601.8z
		 M620,496.1v-16.7h16.1v16.7H620z M638.1,496.1v-16.7h16.1v16.7H638.1z M656.3,496.1v-16.7h16.1v16.7H656.3z M674.4,496.1v-16.7
		h16.1v16.7H674.4z M692.5,496.1v-16.7h16.1v16.7H692.5z M710.7,496.1v-16.7h16.1v16.7H710.7z M728.8,496.1v-16.7h16.1v16.7H728.8z
		 M747,496.1v-16.7h16.1v16.7H747z M765.1,496.1v-16.7h16.1v16.7H765.1z M783.3,496.1v-16.7h16.1v16.7H783.3z M801.4,496.1v-16.7
		h16.1v16.7H801.4z M819.6,496.1v-16.7h16.1v16.7H819.6z M837.7,496.1v-16.7h16.1v16.7H837.7z M855.8,496.1v-16.7H872v16.7H855.8z
		 M874,496.1v-16.7h16.1v16.7H874z M892.1,496.1v-16.7h16.1v16.7H892.1z M910.3,496.1v-16.7h16.1v16.7H910.3z M928.4,496.1v-16.7
		h16.1v16.7H928.4z M946.6,496.1v-16.7h16.1v16.7H946.6z M964.7,496.1v-16.7h16.1v16.7H964.7z M999,496.1h-16.1v-16.7H999V496.1z
		 M999,477.3h-16.1v-16.7H999V477.3z M999,458.5h-16.1v-16.7H999V458.5z M999,439.6h-16.1v-16.7H999V439.6z M999,404.1v16.7h-16.1
		v-16.7v0H999z M980.8,402L980.8,402h-16.1v-16.7h16.1v0h0V402z M999,383.2h-16.1v0h0v-16.7h0H999V383.2z M999,364.3h-16.1v-16.7
		H999V364.3z M999,345.5h-16.1v-16.7H999V345.5z M999,326.7h-16.1V310H999V326.7z M982.9,307.8L982.9,307.8l0-16.7h0v0H999v16.7
		H982.9z"/>
	<path class="st6" d="M21.2,44.2H1v20.9h20.2V44.2z M19.2,63.1H3V46.3h16.1V63.1z"/>
	<path class="st6" d="M106.1,44.2H85.9v20.9h20.2V44.2z M104.1,63.1H87.9V46.3h16.1V63.1z"/>
	<path class="st6" d="M19.2,81.9v20.9h20.2V84h18.1V63.1H37.3v18.8H19.2z M37.3,100.8H21.2V84h16.1v0h0V100.8z M39.3,65.2h16.1v16.8
		H39.3v0h0V65.2z"/>
	<path class="st6" d="M21.2,119.6H1v20.9h20.2V119.6z M19.2,138.4H3v-16.8h16.1V138.4z"/>
	<path class="st6" d="M139.3,81.9h-20.2v20.9h20.2V81.9z M137.3,100.8h-16.1V84h16.1V100.8z"/>
	<path class="st6" d="M128,140.5h20.2v-20.9H128V140.5z M130,121.6h16.1v16.8H130V121.6z"/>
	<path class="st6" d="M175.6,119.6h-20.2v20.9h20.2V119.6z M173.6,138.4h-16.1v-16.8h16.1V138.4z"/>
	<path class="st6" d="M164.3,176h-16.1v-18.8H128v20.9h18.1V197h20.2v-18.8h16.1h2h18.1v-20.9h-18.1h-2h-18.1V176z M130,176.1v-16.8
		h16.1V176h0v0H130z M164.3,194.9h-16.1v-16.7h0v0h16.1v0h0V194.9z M200.6,159.3v16.8h-16.1v-16.8H200.6z M182.5,159.3v16.8h-16.1v0
		h0v-16.7H182.5z"/>
	<path class="st6" d="M225.8,100.7h-20.2v20.9h20.2V100.7z M223.8,119.6h-16.1v-16.8h16.1V119.6z"/>
	<path class="st6" d="M278.2,100.7h-20.2v20.9h20.2V100.7z M276.2,119.6h-16.1v-16.8h16.1V119.6z"/>
</g>
</svg>
