<?xml version="1.0" encoding="utf-8"?>
<!-- Generator: Adobe Illustrator 19.1.0, SVG Export Plug-In . SVG Version: 6.00 Build 0)  -->
<svg version="1.1" id="_x2014_ÎÓÈ_x5F_1" xmlns="http://www.w3.org/2000/svg" xmlns:xlink="http://www.w3.org/1999/xlink"
	 x="0px" y="0px" viewBox="0 0 998 500" style="enable-background:new 0 0 998 500;" xml:space="preserve">
<style type="text/css">
	.st0{opacity:0.25;}
	.st1{fill:#AFAFAF;}
	.st2{fill:#B4B4B4;}
	.st3{opacity:0.25;fill:#B6B6B6;}
	.st4{opacity:0.25;fill:#E2E2E2;}
	.st5{fill:#D6D6D6;}
	.st6{opacity:0.25;fill:#D6D6D6;}
	.st7{opacity:0.25;fill:#C1C1C1;}
	.st8{fill:#B6B6B6;}
	#blocks{opacity:0.4;}
</style>
<g id="blocks">
	<g class="st0">
		<polygon class="st1" points="778.2,274 778.2,274 778.2,274 778.2,257.3 762.1,257.3 762.1,274 		"/>
		<polygon class="st1" points="923.4,349.3 923.4,349.3 923.4,332.6 907.2,332.6 907.2,349.3 907.3,349.3 907.3,349.3 		"/>
		<polygon class="st1" points="725.8,311.7 741.9,311.7 741.9,311.7 741.9,311.7 741.9,294.9 725.8,294.9 725.8,311.7 		"/>
	</g>
	<g class="st0">
		<polygon class="st2" points="199.6,349.3 215.7,349.3 215.7,332.6 215.7,332.6 199.6,332.6 199.6,332.6 		"/>
		<rect x="217.8" y="389.1" class="st2" width="16.1" height="16.7"/>
		<polygon class="st2" points="961.7,426.7 961.7,443.4 977.8,443.4 977.8,443.4 977.8,426.7 977.8,426.7 977.8,426.7 		"/>
		<rect x="163.3" y="407.9" class="st2" width="16.1" height="16.7"/>
		<polygon class="st2" points="90.7,311.7 106.9,311.7 106.9,294.9 106.9,294.9 90.7,294.9 90.7,294.9 		"/>
		<rect x="254" y="351.4" class="st2" width="16.1" height="16.7"/>
		<rect x="72.6" y="389.1" class="st2" width="16.1" height="16.7"/>
		<rect x="18.2" y="351.4" class="st2" width="16.1" height="16.7"/>
		<polygon class="st2" points="635.1,387 635.1,387 651.2,387 651.2,370.3 635.1,370.3 635.1,370.3 		"/>
		<rect x="544.4" y="370.3" class="st2" width="16.1" height="16.7"/>
		<polygon class="st2" points="907.3,424.6 923.4,424.6 923.4,424.6 923.4,407.9 907.3,407.9 907.3,424.6 		"/>
		<rect x="344.8" y="370.3" class="st2" width="16.1" height="16.7"/>
		<rect x="471.8" y="332.6" class="st2" width="16.1" height="16.7"/>
		<polygon class="st2" points="653.2,424.6 653.2,424.6 669.3,424.6 669.3,407.9 653.2,407.9 653.2,407.9 		"/>
		<rect x="816.5" y="426.7" class="st2" width="16.1" height="16.7"/>
		<polygon class="st2" points="780.2,405.8 796.4,405.8 796.4,389.1 780.2,389.1 780.2,389.1 		"/>
	</g>
	<polygon class="st3" points="489.9,349.3 506,349.3 506.1,349.3 506.1,332.6 489.9,332.6 	"/>
	<polygon class="st3" points="560.5,255.2 560.5,255.2 560.5,238.4 544.4,238.4 544.4,238.5 544.3,238.5 544.3,255.2 544.4,255.2 
		544.4,255.2 	"/>
	<polygon class="st3" points="562.5,238.4 562.5,255.2 578.6,255.2 578.6,255.2 578.6,238.5 578.6,238.5 578.6,238.4 	"/>
	<polygon class="st3" points="562.5,292.8 578.6,292.8 578.6,292.8 578.6,292.8 578.6,276.1 578.6,276.1 562.5,276.1 	"/>
	<rect x="489.9" y="351.4" class="st3" width="16.1" height="16.7"/>
	<polygon class="st3" points="562.5,257.3 562.5,274 578.6,274 578.6,257.3 562.5,257.3 	"/>
	<polygon class="st3" points="508.1,255.2 524.2,255.2 524.2,255.2 524.2,238.5 524.2,238.5 508.1,238.5 	"/>
	<polygon class="st3" points="489.9,370.3 489.9,387 489.9,387 506,387 506,370.3 489.9,370.3 	"/>
	<polygon class="st3" points="542.3,236.3 542.3,219.6 526.2,219.6 526.2,236.3 526.2,236.4 542.3,236.4 542.3,236.3 	"/>
	<rect x="508.1" y="219.6" class="st3" width="16.1" height="16.7"/>
	<polygon class="st3" points="580.6,294.9 580.6,311.7 596.8,311.7 596.8,294.9 580.7,294.9 580.7,294.9 	"/>
	<polygon class="st3" points="580.7,274 580.7,274 596.8,274 596.8,257.3 580.7,257.3 580.7,257.3 	"/>
	<polygon class="st3" points="598.8,294.9 598.8,311.7 614.9,311.7 614.9,294.9 614.9,294.9 614.9,294.9 	"/>
	<polygon class="st3" points="614.9,387 614.9,370.3 614.9,370.3 598.8,370.3 598.8,387 614.9,387 	"/>
	<rect x="562.5" y="426.7" class="st3" width="16.1" height="16.7"/>
	<polygon class="st3" points="560.5,332.6 544.4,332.6 544.4,332.6 544.4,349.3 560.5,349.3 	"/>
	<polygon class="st3" points="562.5,332.6 562.5,349.3 562.5,349.3 578.6,349.3 578.6,349.3 578.6,349.3 578.6,332.6 578.6,332.6 
		578.6,332.6 	"/>
	<polygon class="st3" points="526.2,313.8 526.2,330.5 542.3,330.5 542.3,330.5 542.3,313.8 526.2,313.8 	"/>
	<rect x="526.2" y="294.9" class="st3" width="16.1" height="16.7"/>
	<polygon class="st3" points="526.2,349.3 526.2,349.3 526.2,349.3 542.3,349.3 542.3,349.3 542.3,332.6 526.2,332.6 	"/>
	<polygon class="st3" points="544.3,351.4 544.3,368.1 544.4,368.1 560.5,368.1 560.5,368.1 560.5,351.4 560.5,351.4 544.4,351.4 	
		"/>
	<rect x="526.2" y="389.1" class="st3" width="16.1" height="16.7"/>
	<rect x="598.8" y="389.1" class="st3" width="16.1" height="16.7"/>
	<polygon class="st3" points="542.3,370.3 542.3,370.2 526.2,370.2 526.2,370.3 526.2,387 542.3,387 	"/>
	<rect x="508.1" y="370.3" class="st3" width="16.1" height="16.7"/>
	<polygon class="st3" points="524.2,311.7 524.2,311.7 524.2,294.9 524.2,294.9 508.1,294.9 508.1,311.7 508.1,311.7 508.1,311.7 	
		"/>
	<rect x="526.2" y="426.7" class="st3" width="16.1" height="16.7"/>
	<polygon class="st3" points="524.2,368.1 524.2,351.4 524.2,351.4 524.2,351.4 508.1,351.4 508.1,351.4 508.1,368.1 524.2,368.1 	
		"/>
	<polygon class="st3" points="542.3,424.6 542.3,407.9 542.3,407.9 526.2,407.9 526.2,424.6 542.3,424.6 	"/>
	<rect x="562.5" y="389.1" class="st3" width="16.1" height="16.7"/>
	<polygon class="st3" points="578.6,370.3 578.6,370.2 562.5,370.2 562.5,370.3 562.5,387 578.6,387 	"/>
	<polygon class="st3" points="544.4,405.8 560.5,405.8 560.5,405.8 560.5,389.1 544.4,389.1 544.4,405.8 	"/>
	<polygon class="st3" points="487.9,389.1 487.9,389.1 471.8,389.1 471.8,389.1 471.8,405.8 487.9,405.8 	"/>
	<polygon class="st3" points="471.8,274 471.8,274 487.9,274 487.9,257.3 471.8,257.3 	"/>
	<polygon class="st3" points="471.8,313.7 471.8,313.8 471.8,330.5 487.9,330.5 487.9,313.7 	"/>
	<polygon class="st3" points="471.8,292.8 471.8,292.8 487.9,292.8 487.9,276.1 471.8,276.1 	"/>
	<polygon class="st3" points="487.9,351.4 471.8,351.4 471.8,368.1 471.8,368.2 487.9,368.2 487.9,368.1 	"/>
	<rect x="471.8" y="238.5" class="st3" width="16.1" height="16.7"/>
	<polygon class="st3" points="489.9,313.7 489.9,330.5 506.1,330.5 506.1,313.8 506,313.8 506,313.7 	"/>
	<rect x="471.8" y="219.6" class="st3" width="16.1" height="16.7"/>
	<rect x="471.8" y="407.9" class="st3" width="16.1" height="16.7"/>
	<rect x="489.9" y="426.7" class="st3" width="16.1" height="16.7"/>
	<polygon class="st3" points="598.8,330.5 614.9,330.5 614.9,330.5 614.9,313.8 598.8,313.8 	"/>
	<polygon class="st3" points="415.3,313.7 399.2,313.7 399.2,313.8 399.2,330.5 415.3,330.5 	"/>
	<rect x="399.2" y="351.4" class="st3" width="16.1" height="16.7"/>
	<rect x="399.2" y="370.3" class="st3" width="16.1" height="16.7"/>
	<polygon class="st3" points="397.2,219.6 381.1,219.6 381.1,219.6 381,219.6 381,236.3 381.1,236.3 397.2,236.3 	"/>
	<polygon class="st3" points="381.1,255.2 397.2,255.2 397.2,255.2 397.2,238.5 381.1,238.5 	"/>
	<polygon class="st3" points="399.2,349.3 415.3,349.3 415.3,349.3 415.3,332.6 415.3,332.6 399.2,332.6 	"/>
	<polygon class="st3" points="415.3,257.3 415.3,257.3 399.2,257.3 399.2,257.3 399.2,274 399.2,274 415.3,274 415.3,274 	"/>
	<polygon class="st3" points="397.2,276.1 397.2,276.1 381.1,276.1 381.1,292.8 397.2,292.8 	"/>
	<polygon class="st3" points="417.3,276.1 417.3,292.8 433.5,292.8 433.5,292.8 433.5,292.8 433.5,276.1 417.4,276.1 	"/>
	<polygon class="st3" points="433.5,257.3 433.5,257.3 417.4,257.3 417.4,274 433.5,274 	"/>
	<polygon class="st3" points="453.6,292.8 453.6,292.8 469.7,292.8 469.7,276.1 469.7,276.1 453.6,276.1 	"/>
	<rect x="362.9" y="370.3" class="st3" width="16.1" height="16.7"/>
	<rect x="362.9" y="389.1" class="st3" width="16.1" height="16.7"/>
	<polygon class="st3" points="397.2,198.7 397.2,181.9 381,181.9 381,198.7 381.1,198.7 381.1,198.7 	"/>
	<polygon class="st3" points="435.5,238.5 435.5,255.2 435.5,255.2 451.6,255.2 451.6,238.5 	"/>
	<rect x="344.8" y="407.9" class="st3" width="16.1" height="16.7"/>
	<rect x="362.9" y="351.4" class="st3" width="16.1" height="16.7"/>
	<polygon class="st3" points="433.5,217.5 433.5,217.5 433.5,217.5 433.5,200.8 417.3,200.8 417.3,217.5 	"/>
	<polygon class="st3" points="417.4,313.7 417.4,330.5 417.4,330.5 433.5,330.5 433.5,330.5 433.5,330.5 433.5,313.8 433.5,313.8 
		433.5,313.7 	"/>
	<polygon class="st3" points="397.2,311.7 397.2,294.9 381.1,294.9 381.1,311.7 397.2,311.7 	"/>
	<polygon class="st3" points="453.6,294.9 453.6,311.7 469.7,311.7 469.8,311.7 469.8,294.9 469.7,294.9 	"/>
	<rect x="417.4" y="370.3" class="st3" width="16.1" height="16.7"/>
	<polygon class="st3" points="469.8,387 469.8,370.3 469.7,370.3 453.6,370.3 453.6,387 469.7,387 	"/>
	<rect x="435.5" y="351.4" class="st3" width="16.1" height="16.7"/>
	<rect x="453.6" y="332.6" class="st3" width="16.1" height="16.7"/>
	<rect x="435.5" y="370.3" class="st3" width="16.1" height="16.7"/>
	<rect x="435.5" y="389.1" class="st3" width="16.1" height="16.7"/>
	<rect x="453.6" y="351.4" class="st3" width="16.1" height="16.7"/>
	<rect x="453.6" y="407.9" class="st3" width="16.1" height="16.7"/>
	<polygon class="st3" points="598.8,332.6 598.8,349.3 598.8,349.3 614.9,349.3 614.9,332.6 598.8,332.6 	"/>
	<rect x="453.6" y="426.7" class="st3" width="16.1" height="16.7"/>
	<rect x="453.6" y="389.1" class="st3" width="16.1" height="16.7"/>
	<polygon class="st3" points="433.5,351.4 433.5,351.4 417.4,351.4 417.4,351.4 417.4,368.1 433.5,368.1 	"/>
	<rect x="399.2" y="407.9" class="st3" width="16.1" height="16.7"/>
	<rect x="381.1" y="351.4" class="st3" width="16.1" height="16.7"/>
	<polygon class="st3" points="451.6,332.6 451.6,332.6 435.5,332.6 435.5,332.6 435.5,332.6 435.5,349.3 435.5,349.3 451.6,349.3 	
		"/>
	<rect x="381.1" y="332.6" class="st3" width="16.1" height="16.7"/>
	<rect x="381.1" y="370.3" class="st3" width="16.1" height="16.7"/>
	<rect x="417.4" y="389.1" class="st3" width="16.1" height="16.7"/>
	<rect x="417.4" y="407.9" class="st3" width="16.1" height="16.7"/>
	<rect x="598.8" y="351.4" class="st3" width="16.1" height="16.7"/>
	<polygon class="st3" points="397.2,313.8 381.1,313.8 381,313.8 381,330.5 381.1,330.5 397.2,330.5 	"/>
	<polygon class="st3" points="852.8,313.7 852.8,313.8 852.8,313.8 852.8,330.5 852.8,330.5 852.8,330.5 868.9,330.5 868.9,330.5 
		869,330.5 869,313.8 868.9,313.8 868.9,313.7 	"/>
	<polygon class="st3" points="850.8,387 850.8,370.3 850.8,370.2 834.7,370.2 834.7,370.3 834.7,387 834.7,387 850.8,387 	"/>
	<polygon class="st3" points="852.8,351.4 852.8,351.4 852.8,368.1 852.8,368.1 868.9,368.1 868.9,351.4 868.9,351.4 852.8,351.4 	
		"/>
	<polygon class="st3" points="887.1,311.7 887.1,294.9 871,294.9 871,311.7 871,311.7 871,311.7 	"/>
	<polygon class="st3" points="834.7,332.6 834.7,349.3 834.7,349.3 850.8,349.3 850.8,349.3 850.8,349.3 850.8,332.6 850.8,332.6 
		850.8,332.6 	"/>
	<polygon class="st3" points="889.1,351.4 889.1,351.4 889.1,368.2 905.2,368.2 905.2,351.4 905.2,351.4 905.2,351.4 	"/>
	<rect x="816.5" y="294.9" class="st3" width="16.1" height="16.7"/>
	<polygon class="st3" points="814.5,274 814.5,274 814.5,274 814.5,257.3 798.4,257.3 798.4,274 798.4,274 798.4,274 	"/>
	<polygon class="st3" points="850.8,311.7 850.8,294.9 834.7,294.9 834.7,294.9 834.7,311.7 850.8,311.7 850.8,311.7 	"/>
	<polygon class="st3" points="796.4,349.3 796.4,332.6 780.2,332.6 780.2,332.6 780.2,332.6 780.2,349.3 796.4,349.3 	"/>
	<polygon class="st3" points="923.4,330.5 923.4,330.5 923.4,313.7 907.2,313.7 907.2,330.5 	"/>
	<rect x="979.8" y="370.3" class="st3" width="16.1" height="16.7"/>
	<rect x="979.8" y="389.1" class="st3" width="16.1" height="16.7"/>
	<polygon class="st3" points="977.8,330.5 977.8,330.5 977.8,330.5 977.8,313.8 961.7,313.8 961.7,330.5 	"/>
	<polygon class="st3" points="780.2,368.1 780.2,368.1 780.2,368.2 796.4,368.2 796.4,351.4 780.2,351.4 	"/>
	<polygon class="st3" points="977.8,351.4 977.8,351.4 961.7,351.4 961.7,368.1 961.7,368.1 977.8,368.1 	"/>
	<polygon class="st3" points="977.8,405.8 977.8,405.8 977.8,389.1 961.7,389.1 961.7,405.8 	"/>
	<polygon class="st3" points="925.4,351.4 925.4,368.2 941.5,368.2 941.5,368.1 941.5,368.1 941.5,351.4 925.4,351.4 	"/>
	<polygon class="st3" points="578.6,407.9 562.5,407.9 562.5,407.9 562.5,424.6 562.5,424.6 578.6,424.6 	"/>
	<polygon class="st3" points="941.5,332.6 925.4,332.6 925.4,332.6 925.4,349.3 941.5,349.3 	"/>
	<rect x="889.1" y="389.1" class="st3" width="16.1" height="16.7"/>
	<polygon class="st3" points="959.7,370.3 959.7,370.2 943.6,370.2 943.6,370.3 943.5,370.3 943.5,387 943.6,387 959.7,387 	"/>
	<polygon class="st3" points="943.6,443.4 959.7,443.4 959.7,426.7 943.6,426.7 943.6,426.7 	"/>
	<rect x="852.8" y="426.7" class="st3" width="16.1" height="16.7"/>
	<polygon class="st3" points="832.7,389.1 832.6,389.1 816.5,389.1 816.5,405.8 832.7,405.8 	"/>
	<polygon class="st3" points="832.7,424.6 832.7,407.9 816.5,407.9 816.5,424.6 832.6,424.6 	"/>
	<polygon class="st3" points="871,368.1 871,368.2 887.1,368.2 887.1,351.4 871,351.4 	"/>
	<polygon class="st3" points="832.6,387 832.6,370.3 816.5,370.3 816.5,370.3 816.5,387 816.5,387 	"/>
	<polygon class="st3" points="834.7,443.4 850.8,443.4 850.8,426.7 850.8,426.7 834.7,426.7 834.7,426.7 	"/>
	<polygon class="st3" points="941.5,407.9 941.5,407.9 925.4,407.9 925.4,424.6 941.5,424.6 941.5,424.6 	"/>
	<polygon class="st3" points="996,332.6 979.8,332.6 979.8,332.6 979.8,332.6 979.8,349.3 979.8,349.3 996,349.3 	"/>
	<polygon class="st3" points="762.1,370.2 762.1,370.3 762.1,387 778.2,387 778.2,387 778.2,370.3 778.2,370.3 778.2,370.2 	"/>
	<polygon class="st3" points="887.1,349.3 887.1,332.6 871,332.6 871,332.6 871,332.6 871,349.3 871,349.3 887.1,349.3 	"/>
	<rect x="907.3" y="389.1" class="st3" width="16.1" height="16.7"/>
	<rect x="344.8" y="426.7" class="st3" width="16.1" height="16.7"/>
	<polygon class="st3" points="814.5,405.8 814.5,389.1 814.5,389.1 798.4,389.1 798.4,405.8 	"/>
	<polygon class="st3" points="832.6,332.6 816.5,332.6 816.5,349.3 816.5,349.3 832.6,349.3 	"/>
	<polygon class="st3" points="762.1,313.7 762.1,330.5 762.1,330.5 778.2,330.5 778.2,330.5 778.2,330.5 778.2,313.8 778.2,313.8 
		778.2,313.7 	"/>
	<polygon class="st3" points="814.5,351.4 814.5,351.4 798.4,351.4 798.4,351.4 798.4,368.2 814.5,368.2 814.5,368.1 	"/>
	<rect x="780.2" y="426.7" class="st3" width="16.1" height="16.7"/>
	<rect x="780.2" y="407.9" class="st3" width="16.1" height="16.7"/>
	<polygon class="st3" points="780.2,276.1 780.2,276.1 780.2,276.1 780.2,292.8 796.4,292.8 796.4,276.1 796.4,276.1 796.4,276.1 	
		"/>
	<polygon class="st3" points="762.1,424.6 762.1,424.6 778.2,424.6 778.2,407.9 762.1,407.9 762.1,407.9 	"/>
	<polygon class="st3" points="943.6,405.8 943.6,405.8 959.7,405.8 959.7,389.1 943.6,389.1 	"/>
	<polygon class="st3" points="635.1,405.8 635.1,405.8 651.2,405.8 651.2,405.8 651.2,389.1 635.1,389.1 	"/>
	<polygon class="st3" points="635.1,292.8 651.2,292.8 651.2,292.8 651.2,276.1 635.1,276.1 	"/>
	<polygon class="st3" points="616.9,368.1 616.9,368.2 633.1,368.2 633.1,368.1 633.1,351.4 616.9,351.4 	"/>
	<polygon class="st3" points="669.3,332.6 669.3,332.6 653.2,332.6 653.2,349.3 669.3,349.3 	"/>
	<polygon class="st3" points="651.2,274 651.2,257.3 635.1,257.3 635.1,274 635.1,274 651.2,274 	"/>
	<polygon class="st3" points="760.1,370.3 744,370.3 743.9,370.3 743.9,387 744,387 760.1,387 	"/>
	<polygon class="st3" points="653.2,405.8 669.3,405.8 669.4,405.8 669.4,389.1 669.3,389.1 653.2,389.1 	"/>
	<polygon class="st3" points="669.4,351.4 669.3,351.4 653.2,351.4 653.2,368.1 669.3,368.1 669.4,368.1 	"/>
	<polygon class="st3" points="653.2,294.9 653.2,311.7 669.3,311.7 669.3,311.7 669.3,294.9 653.2,294.9 	"/>
	<rect x="653.2" y="370.3" class="st3" width="16.1" height="16.7"/>
	<polygon class="st3" points="669.3,276.1 653.2,276.1 653.2,276.1 653.2,292.8 669.3,292.8 	"/>
	<rect x="598.8" y="426.7" class="st3" width="16.1" height="16.7"/>
	<rect x="580.7" y="370.3" class="st3" width="16.1" height="16.7"/>
	<rect x="580.7" y="389.1" class="st3" width="16.1" height="16.7"/>
	<polygon class="st3" points="689.5,332.6 689.5,332.6 689.5,349.3 705.6,349.3 705.6,349.3 705.7,349.3 705.7,332.6 705.6,332.6 
		705.6,332.6 	"/>
	<polygon class="st3" points="596.8,351.4 596.8,351.4 580.7,351.4 580.7,351.4 580.6,351.4 580.6,368.1 580.7,368.1 596.8,368.1 	
		"/>
	<rect x="635.1" y="351.4" class="st3" width="16.1" height="16.7"/>
	<polygon class="st3" points="687.5,370.2 671.4,370.2 671.4,370.3 671.4,387 671.4,387 687.5,387 687.5,387 	"/>
	<polygon class="st3" points="705.7,274 705.7,257.3 689.5,257.3 689.5,274 689.5,274 689.5,274 	"/>
	<rect x="671.4" y="294.9" class="st3" width="16.1" height="16.7"/>
	<polygon class="st3" points="671.4,313.8 671.4,330.5 671.4,330.5 687.5,330.5 687.5,330.5 687.5,313.8 671.4,313.8 	"/>
	<polygon class="st3" points="633.1,332.6 616.9,332.6 616.9,332.6 616.9,349.3 633.1,349.3 	"/>
	<polygon class="st3" points="725.8,405.8 741.9,405.8 741.9,389.1 741.9,389.1 725.8,389.1 725.8,389.1 	"/>
	<polygon class="st3" points="741.9,332.6 741.9,332.6 725.8,332.6 725.8,332.6 725.8,332.6 725.8,349.3 725.8,349.3 741.9,349.3 	
		"/>
	<polygon class="st3" points="725.8,368.1 725.8,368.2 741.9,368.2 741.9,368.1 741.9,351.4 725.8,351.4 	"/>
	<polygon class="st3" points="741.9,276.1 725.8,276.1 725.8,292.8 725.8,292.8 741.9,292.8 	"/>
	<rect x="707.7" y="426.7" class="st3" width="16.1" height="16.7"/>
	<polygon class="st3" points="760.1,330.5 760.1,313.7 744,313.7 744,313.8 743.9,313.8 743.9,330.5 744,330.5 	"/>
	<polygon class="st3" points="744,405.8 744,405.8 760.1,405.8 760.1,405.8 760.1,389.1 744,389.1 	"/>
	<polygon class="st3" points="707.7,351.4 707.6,351.4 707.6,368.1 707.7,368.1 723.8,368.1 723.8,351.4 723.8,351.4 707.7,351.4 	
		"/>
	<polygon class="st3" points="760.1,332.6 760.1,332.6 744,332.6 744,349.3 760.1,349.3 	"/>
	<polygon class="st3" points="760.1,368.1 760.1,351.4 744,351.4 744,368.1 760.1,368.1 	"/>
	<polygon class="st3" points="635.1,443.4 651.2,443.4 651.2,426.7 651.2,426.7 635.1,426.7 635.1,426.7 	"/>
	<polygon class="st3" points="633.1,292.8 633.1,276.1 633.1,276.1 616.9,276.1 616.9,292.8 616.9,292.8 616.9,292.8 	"/>
	<polygon class="st3" points="616.9,424.6 633.1,424.6 633.1,424.6 633.1,407.9 633.1,407.9 616.9,407.9 	"/>
	<rect x="671.4" y="426.7" class="st3" width="16.1" height="16.7"/>
	<polygon class="st3" points="707.7,370.3 707.7,387 723.8,387 723.8,387 723.8,370.3 723.8,370.3 	"/>
	<polygon class="st3" points="633.1,389.1 633.1,389.1 616.9,389.1 616.9,389.1 616.9,405.8 633.1,405.8 	"/>
	<polygon class="st3" points="723.8,294.9 723.8,294.9 707.6,294.9 707.6,311.7 723.8,311.7 	"/>
	<polygon class="st3" points="707.6,330.5 707.7,330.5 707.7,330.5 723.8,330.5 723.8,330.5 723.8,330.5 723.8,313.8 723.8,313.8 
		707.6,313.8 	"/>
	<rect x="689.5" y="407.9" class="st3" width="16.1" height="16.7"/>
	<polygon class="st3" points="705.6,389.1 689.5,389.1 689.5,389.1 689.5,405.8 689.5,405.8 705.6,405.8 	"/>
	<polygon class="st3" points="451.6,311.7 451.6,311.7 451.6,294.9 451.6,294.9 435.5,294.9 435.5,294.9 435.5,294.9 435.5,311.7 
		435.5,311.7 435.5,311.7 	"/>
	<polygon class="st3" points="145.2,313.8 145.2,330.5 161.3,330.5 161.3,313.8 161.3,313.7 145.2,313.7 	"/>
	<polygon class="st3" points="197.6,255.2 197.6,255.2 197.6,238.4 181.4,238.4 181.4,255.2 181.5,255.2 181.5,255.2 	"/>
	<polygon class="st3" points="161.3,276.1 161.3,276.1 145.2,276.1 145.2,276.1 145.2,292.8 145.2,292.8 161.3,292.8 161.3,292.8 	
		"/>
	<polygon class="st3" points="199.6,257.3 199.6,274 199.6,274 215.7,274 215.7,257.3 199.6,257.3 	"/>
	<polygon class="st3" points="199.6,292.8 199.6,292.8 215.7,292.8 215.7,292.8 215.7,276.1 199.6,276.1 	"/>
	<polygon class="st3" points="215.7,255.2 215.7,238.4 199.6,238.4 199.6,255.2 215.7,255.2 	"/>
	<rect x="145.2" y="389.1" class="st3" width="16.1" height="16.7"/>
	<rect x="145.2" y="332.6" class="st3" width="16.1" height="16.7"/>
	<rect x="145.2" y="351.4" class="st3" width="16.1" height="16.7"/>
	<rect x="145.2" y="370.3" class="st3" width="16.1" height="16.7"/>
	<rect x="163.3" y="276.1" class="st3" width="16.1" height="16.7"/>
	<rect x="181.5" y="332.6" class="st3" width="16.1" height="16.7"/>
	<polygon class="st3" points="197.6,294.9 197.6,294.9 181.5,294.9 181.5,311.7 197.6,311.7 	"/>
	<rect x="181.5" y="351.4" class="st3" width="16.1" height="16.7"/>
	<polygon class="st3" points="197.6,330.5 197.6,313.8 181.5,313.8 181.5,330.5 197.6,330.5 	"/>
	<polygon class="st3" points="197.6,276.1 197.6,276.1 181.5,276.1 181.5,276.1 181.5,292.8 197.6,292.8 	"/>
	<rect x="163.3" y="332.6" class="st3" width="16.1" height="16.7"/>
	<polygon class="st3" points="88.7,236.4 88.7,219.6 88.7,219.6 72.6,219.6 72.6,219.6 72.6,219.6 72.6,236.3 72.6,236.3 
		72.6,236.4 	"/>
	<rect x="199.6" y="351.4" class="st3" width="16.1" height="16.7"/>
	<polygon class="st3" points="163.3,294.9 163.3,311.7 163.3,311.7 179.4,311.7 179.4,294.9 163.3,294.9 	"/>
	<rect x="163.3" y="313.8" class="st3" width="16.1" height="16.7"/>
	<polygon class="st3" points="90.7,236.4 106.9,236.4 106.9,236.3 106.9,236.3 106.9,219.6 90.7,219.6 	"/>
	<rect x="127" y="332.6" class="st3" width="16.1" height="16.7"/>
	<rect x="127" y="313.8" class="st3" width="16.1" height="16.7"/>
	<rect x="72.6" y="332.6" class="st3" width="16.1" height="16.7"/>
	<polygon class="st3" points="106.9,274 106.9,274 106.9,257.3 106.9,257.3 90.7,257.3 90.7,274 90.7,274 90.7,274 	"/>
	<rect x="127" y="351.4" class="st3" width="16.1" height="16.7"/>
	<polygon class="st3" points="143.2,274 143.2,257.3 127,257.3 127,257.3 127,274 143.1,274 	"/>
	<rect x="90.7" y="313.8" class="st3" width="16.1" height="16.7"/>
	<rect x="72.6" y="351.4" class="st3" width="16.1" height="16.7"/>
	<rect x="72.6" y="370.3" class="st3" width="16.1" height="16.7"/>
	<rect x="127" y="276.1" class="st3" width="16.1" height="16.7"/>
	<polygon class="st3" points="125,255.2 125,238.4 108.9,238.4 108.9,238.5 108.9,238.5 108.9,255.2 108.9,255.2 125,255.2 	"/>
	<rect x="108.9" y="332.6" class="st3" width="16.1" height="16.7"/>
	<rect x="108.9" y="294.9" class="st3" width="16.1" height="16.7"/>
	<polygon class="st3" points="72.6,163.1 72.6,179.9 88.7,179.9 88.7,163.1 73.8,163.1 	"/>
	<rect x="72.6" y="144.3" class="st3" width="16.1" height="16.7"/>
	<polygon class="st3" points="108.9,292.8 108.9,292.8 125,292.8 125,276.1 108.9,276.1 108.9,276.1 	"/>
	<rect x="344.8" y="389.1" class="st3" width="16.1" height="16.7"/>
	<rect x="54.5" y="370.3" class="st3" width="16.1" height="16.7"/>
	<rect x="89.2" y="182.2" class="st3" width="16.1" height="16.5"/>
	<rect x="108.9" y="257.3" class="st3" width="16.1" height="16.7"/>
	<polygon class="st3" points="54.7,161.1 69.6,161.1 69.6,161 70.9,161 70.9,144.3 54.7,144.3 	"/>
	<polygon class="st3" points="127,311.7 143.1,311.7 143.2,311.7 143.2,294.9 143.1,294.9 127,294.9 	"/>
	<rect x="36.3" y="276.1" class="st3" width="16.1" height="16.7"/>
	<rect x="36.3" y="313.8" class="st3" width="16.1" height="16.7"/>
	<rect x="54.5" y="389.1" class="st3" width="16.1" height="16.7"/>
	<rect x="36.3" y="332.6" class="st3" width="16.1" height="16.7"/>
	<polygon class="st3" points="36.3,198.7 52.4,198.7 52.4,198.7 52.4,182 36.3,182 	"/>
	<rect x="18.2" y="276.1" class="st3" width="16.1" height="16.7"/>
	<polygon class="st3" points="18.1,311.7 18.2,311.7 34.3,311.7 34.3,294.9 18.2,294.9 18.1,294.9 	"/>
	<rect x="18.2" y="257.3" class="st3" width="16.1" height="16.7"/>
	<polygon class="st3" points="18.1,238.5 18.1,255.2 18.2,255.2 34.3,255.2 34.3,255.2 34.3,238.5 18.2,238.5 	"/>
	<polygon class="st3" points="36.3,217.5 36.3,217.5 36.3,217.5 52.4,217.5 52.4,200.8 36.3,200.8 	"/>
	<rect x="84.9" y="87.8" class="st3" width="16.1" height="16.8"/>
	<polygon class="st3" points="18.2,219.6 18.2,236.3 34.3,236.3 34.3,219.6 34.3,219.6 34.3,219.6 	"/>
	<rect x="36.3" y="163.1" class="st3" width="16.1" height="16.7"/>
	<polygon class="st3" points="70.6,238.5 70.6,238.5 70.6,238.4 54.4,238.4 54.4,255.2 54.5,255.2 70.6,255.2 	"/>
	<polygon class="st3" points="70.6,274 70.6,257.3 54.5,257.3 54.5,274 70.6,274 	"/>
	<rect x="54.5" y="276.1" class="st3" width="16.1" height="16.7"/>
	<rect x="36.3" y="426.7" class="st3" width="16.1" height="16.7"/>
	<rect x="36.3" y="389.1" class="st3" width="16.1" height="16.7"/>
	<rect x="18.2" y="370.3" class="st3" width="16.1" height="16.7"/>
	<rect x="54.5" y="332.6" class="st3" width="16.1" height="16.7"/>
	<rect x="54.5" y="294.9" class="st3" width="16.1" height="16.7"/>
	<rect x="54.5" y="351.4" class="st3" width="16.1" height="16.7"/>
	<rect x="54.5" y="313.8" class="st3" width="16.1" height="16.7"/>
	<rect x="0" y="426.7" class="st3" width="16.1" height="16.7"/>
	<rect x="0" y="332.6" class="st3" width="16.1" height="16.7"/>
	<polygon class="st3" points="70.6,217.5 70.6,200.8 54.5,200.8 54.5,200.8 54.5,217.5 70.6,217.5 70.6,217.5 	"/>
	<polygon class="st3" points="16.1,313.8 16.1,313.7 0,313.7 0,330.5 16.1,330.5 	"/>
	<polygon class="st3" points="16.1,236.4 16.1,236.3 16.1,219.6 0,219.6 0,236.4 	"/>
	<rect x="36.3" y="370.3" class="st3" width="16.1" height="16.7"/>
	<rect x="0" y="351.4" class="st3" width="16.1" height="16.7"/>
	<polygon class="st3" points="16.1,292.8 16.1,292.8 16.1,276.1 0,276.1 0,292.8 	"/>
	<rect x="0" y="370.3" class="st3" width="16.1" height="16.7"/>
	<rect x="0" y="389.1" class="st3" width="16.1" height="16.7"/>
	<polygon class="st3" points="106.9,200.9 90.7,200.9 90.7,217.5 90.7,217.5 106.9,217.5 	"/>
	<polygon class="st3" points="326.6,257.3 326.6,274 326.6,274 342.7,274 342.7,257.3 326.6,257.3 	"/>
	<polygon class="st3" points="326.6,276.1 326.6,292.8 326.6,292.8 342.7,292.8 342.7,292.8 342.8,292.8 342.8,276.1 342.7,276.1 	
		"/>
	<polygon class="st3" points="360.9,257.3 360.9,257.3 344.8,257.3 344.8,257.3 344.8,274 344.8,274 360.9,274 360.9,274 	"/>
	<polygon class="st3" points="342.8,238.4 326.6,238.4 326.6,255.2 342.7,255.2 342.8,255.2 	"/>
	<rect x="344.8" y="332.6" class="st3" width="16.1" height="16.7"/>
	<polygon class="st3" points="362.9,200.8 362.9,200.8 362.9,200.8 362.9,217.5 379,217.5 379,217.5 379,217.5 379,200.8 379,200.8 
		379,200.8 	"/>
	<polygon class="st3" points="324.6,198.7 324.6,198.7 324.6,198.7 324.6,181.9 308.5,181.9 308.5,182 308.5,182 308.5,198.7 
		308.5,198.7 308.5,198.7 	"/>
	<rect x="344.8" y="351.4" class="st3" width="16.1" height="16.7"/>
	<polygon class="st3" points="326.6,200.8 326.6,200.8 326.6,200.8 326.6,217.5 342.8,217.5 342.8,200.8 342.7,200.8 342.7,200.8 	
		"/>
	<polygon class="st3" points="324.6,255.2 324.6,255.2 324.6,238.4 308.5,238.4 308.5,238.5 308.5,238.5 308.5,255.2 308.5,255.2 
		308.5,255.2 	"/>
	<polygon class="st3" points="360.9,198.7 360.9,198.7 360.9,198.7 360.9,181.9 344.8,181.9 344.8,198.7 344.8,198.7 344.8,198.7 	
		"/>
	<rect x="272.2" y="407.9" class="st3" width="16.1" height="16.7"/>
	<polygon class="st3" points="360.9,330.5 360.9,313.8 360.9,313.8 344.8,313.8 344.8,330.5 360.9,330.5 	"/>
	<rect x="272.2" y="351.4" class="st3" width="16.1" height="16.7"/>
	<rect x="272.2" y="389.1" class="st3" width="16.1" height="16.7"/>
	<rect x="272.2" y="332.6" class="st3" width="16.1" height="16.7"/>
	<rect x="272.2" y="370.3" class="st3" width="16.1" height="16.7"/>
	<polygon class="st3" points="344.8,294.9 344.8,294.9 344.8,311.7 344.8,311.7 360.9,311.7 360.9,294.9 360.9,294.9 344.8,294.9 	
		"/>
	<polygon class="st3" points="362.9,276.1 362.9,292.8 362.9,292.8 379,292.8 379,276.1 362.9,276.1 	"/>
	<polygon class="st3" points="362.9,311.7 362.9,311.7 379,311.7 379,311.7 379,294.9 362.9,294.9 	"/>
	<polygon class="st3" points="288.3,330.5 288.3,313.8 288.3,313.8 272.2,313.8 272.2,330.5 288.3,330.5 	"/>
	<rect x="362.9" y="257.3" class="st3" width="16.1" height="16.7"/>
	<rect x="308.5" y="332.6" class="st3" width="16.1" height="16.7"/>
	<rect x="308.5" y="370.3" class="st3" width="16.1" height="16.7"/>
	<rect x="308.5" y="351.4" class="st3" width="16.1" height="16.7"/>
	<polygon class="st3" points="324.6,313.8 308.5,313.8 308.5,313.8 308.5,330.5 308.5,330.5 324.6,330.5 	"/>
	<polygon class="st3" points="324.6,311.7 324.6,294.9 324.6,294.9 308.5,294.9 308.5,311.7 324.6,311.7 	"/>
	<polygon class="st3" points="324.6,292.8 324.6,276.1 324.6,276.1 308.5,276.1 308.5,276.1 308.5,276.1 308.5,292.8 308.5,292.8 	
		"/>
	<rect x="326.6" y="370.3" class="st3" width="16.1" height="16.7"/>
	<rect x="326.6" y="389.1" class="st3" width="16.1" height="16.7"/>
	<rect x="326.6" y="351.4" class="st3" width="16.1" height="16.7"/>
	<rect x="326.6" y="332.6" class="st3" width="16.1" height="16.7"/>
	<polygon class="st3" points="290.3,257.3 290.3,274 290.3,274 306.4,274 306.4,274 306.5,274 306.5,257.3 306.4,257.3 306.4,257.3 
			"/>
	<polygon class="st3" points="306.4,332.6 306.4,332.6 290.3,332.6 290.3,332.6 290.3,349.3 306.4,349.3 	"/>
	<rect x="290.3" y="351.4" class="st3" width="16.1" height="16.7"/>
	<rect x="290.3" y="389.1" class="st3" width="16.1" height="16.7"/>
	<polygon class="st3" points="306.4,294.9 306.4,294.9 290.3,294.9 290.3,294.9 290.3,311.7 290.3,311.7 306.4,311.7 306.4,311.7 	
		"/>
	<polygon class="st3" points="290.3,236.4 306.4,236.4 306.4,236.3 306.5,236.3 306.5,219.6 290.3,219.6 	"/>
	<polygon class="st3" points="306.5,200.8 306.4,200.8 306.4,200.8 290.3,200.8 290.3,217.5 306.5,217.5 	"/>
	<rect x="290.3" y="370.3" class="st3" width="16.1" height="16.7"/>
	<polygon class="st3" points="306.5,179.9 306.5,163.1 290.3,163.1 290.3,179.9 306.4,179.9 306.4,179.9 	"/>
	<rect x="290.3" y="426.7" class="st3" width="16.1" height="16.7"/>
	<rect x="235.9" y="332.6" class="st3" width="16.1" height="16.7"/>
	<rect x="199.6" y="407.9" class="st3" width="16.1" height="16.7"/>
	<rect x="199.6" y="426.7" class="st3" width="16.1" height="16.7"/>
	<rect x="272.2" y="294.9" class="st3" width="16.1" height="16.7"/>
	<rect x="181.5" y="407.9" class="st3" width="16.1" height="16.7"/>
	<rect x="181.5" y="389.1" class="st3" width="16.1" height="16.7"/>
	<polygon class="st3" points="233.9,217.5 233.9,200.8 217.7,200.8 217.7,217.5 233.9,217.5 233.9,217.5 	"/>
	<rect x="235.9" y="313.8" class="st3" width="16.1" height="16.7"/>
	<rect x="163.3" y="389.1" class="st3" width="16.1" height="16.7"/>
	<rect x="235.9" y="389.1" class="st3" width="16.1" height="16.7"/>
	<rect x="72.6" y="313.8" class="st3" width="16.1" height="16.7"/>
	<rect x="108.9" y="407.9" class="st3" width="16.1" height="16.7"/>
	<rect x="90.7" y="389.1" class="st3" width="16.1" height="16.7"/>
	<rect x="72.6" y="426.7" class="st3" width="16.1" height="16.7"/>
	<rect x="90.7" y="370.3" class="st3" width="16.1" height="16.7"/>
	<rect x="72.6" y="294.9" class="st3" width="16.1" height="16.7"/>
	<polygon class="st3" points="72.6,276.1 72.6,276.1 72.6,292.8 88.7,292.8 88.7,292.8 88.7,276.1 88.7,276.1 88.7,276.1 	"/>
	<rect x="127" y="407.9" class="st3" width="16.1" height="16.7"/>
	<rect x="127" y="389.1" class="st3" width="16.1" height="16.7"/>
	<rect x="145.2" y="426.7" class="st3" width="16.1" height="16.7"/>
	<rect x="235.9" y="370.3" class="st3" width="16.1" height="16.7"/>
	<rect x="108.9" y="389.1" class="st3" width="16.1" height="16.7"/>
	<rect x="199.6" y="389.1" class="st3" width="16.1" height="16.7"/>
	<rect x="217.8" y="370.3" class="st3" width="16.1" height="16.7"/>
	<rect x="217.8" y="332.6" class="st3" width="16.1" height="16.7"/>
	<polygon class="st3" points="233.9,294.9 217.8,294.9 217.7,294.9 217.7,311.7 233.9,311.7 	"/>
	<polygon class="st3" points="233.9,292.8 233.9,276.1 233.9,276.1 217.8,276.1 217.8,292.8 233.9,292.8 	"/>
	<rect x="217.8" y="351.4" class="st3" width="16.1" height="16.7"/>
	<polygon class="st3" points="233.9,313.8 217.7,313.8 217.7,330.5 217.8,330.5 233.9,330.5 	"/>
	<rect x="235.9" y="426.7" class="st3" width="16.1" height="16.7"/>
	<polygon class="st3" points="288.3,257.3 272.2,257.3 272.2,257.3 272.2,274 288.3,274 	"/>
	<polygon class="st3" points="288.3,276.1 288.3,276.1 272.2,276.1 272.2,276.1 272.2,292.8 272.2,292.8 288.3,292.8 288.3,292.8 	
		"/>
	<rect x="254" y="426.7" class="st3" width="16.1" height="16.7"/>
	<polygon class="st3" points="235.9,219.6 235.9,219.6 235.9,219.6 235.9,236.3 252,236.3 252,236.3 252,219.6 252,219.6 252,219.6 
			"/>
	<polygon class="st3" points="270.2,255.2 270.2,238.4 254,238.4 254,238.5 254,255.2 270.2,255.2 	"/>
	<polygon class="st3" points="233.9,257.3 233.9,257.3 217.8,257.3 217.8,257.3 217.8,274 233.9,274 	"/>
	<rect x="254" y="313.8" class="st3" width="16.1" height="16.7"/>
	<rect x="254" y="332.6" class="st3" width="16.1" height="16.7"/>
	<polygon class="st3" points="270.2,294.9 270.2,294.9 254,294.9 254,311.7 270.2,311.7 	"/>
	<rect x="254" y="389.1" class="st3" width="16.1" height="16.7"/>
	<polygon class="st3" points="235.9,255.2 235.9,255.2 252,255.2 252,238.5 235.9,238.5 	"/>
	<polygon class="st3" points="254,274 270.2,274 270.2,274 270.2,257.3 254,257.3 	"/>
	<polygon class="st3" points="270.2,217.5 270.2,200.8 254,200.8 254,217.5 254,217.5 254,217.5 	"/>
	<polygon class="st4" points="671.4,276.1 671.4,292.8 687.5,292.8 687.5,276.1 687.5,276.1 687.5,276.1 	"/>
	<rect x="979.8" y="351.4" class="st4" width="16.1" height="16.7"/>
	<rect x="163.3" y="351.4" class="st4" width="16.1" height="16.7"/>
	<polygon class="st4" points="741.9,424.6 741.9,407.9 741.9,407.9 725.8,407.9 725.8,424.6 741.9,424.6 	"/>
	<polygon class="st4" points="252,257.3 235.9,257.3 235.9,274 235.9,274 252,274 	"/>
	<rect x="217.7" y="181.9" class="st4" width="16.1" height="16.7"/>
	<polygon class="st4" points="832.7,292.8 832.7,276.1 816.5,276.1 816.5,276.1 816.5,276.1 816.5,292.8 832.6,292.8 	"/>
	<rect x="961.7" y="294.9" class="st4" width="16.1" height="16.7"/>
	<polygon class="st4" points="780.2,311.7 780.2,311.7 780.2,311.7 796.4,311.7 796.4,294.9 780.2,294.9 	"/>
	<polygon class="st4" points="869,370.3 868.9,370.3 852.8,370.3 852.8,387 869,387 	"/>
	<polygon class="st4" points="52.4,257.3 52.4,257.3 36.3,257.3 36.3,257.3 36.3,274 52.4,274 	"/>
	<rect x="36.3" y="294.9" class="st4" width="16.1" height="16.7"/>
	<polygon class="st4" points="252,294.9 235.9,294.9 235.9,294.9 235.9,311.7 252,311.7 	"/>
	<rect x="108.9" y="313.8" class="st4" width="16.1" height="16.7"/>
	<rect x="108.9" y="351.4" class="st4" width="16.1" height="16.7"/>
	<polygon class="st4" points="16.1,257.3 16.1,257.3 0,257.3 0,274 16.1,274 	"/>
	<rect x="36.3" y="407.9" class="st4" width="16.1" height="16.7"/>
	<rect x="235.9" y="351.4" class="st4" width="16.1" height="16.7"/>
	<polygon class="st4" points="163.3,257.3 163.3,274 163.3,274 179.4,274 179.5,274 179.5,257.3 179.4,257.3 179.4,257.3 	"/>
	<polygon class="st4" points="671.4,349.3 671.4,349.3 687.5,349.3 687.5,332.6 671.4,332.6 	"/>
	<rect x="18.2" y="313.8" class="st4" width="16.1" height="16.7"/>
	<rect x="254" y="407.9" class="st4" width="16.1" height="16.7"/>
	<polygon class="st4" points="469.7,330.5 469.7,313.8 453.6,313.8 453.6,313.8 453.6,330.5 453.6,330.5 	"/>
	<polygon class="st4" points="379,238.5 379,238.4 362.9,238.4 362.9,255.2 362.9,255.2 379,255.2 	"/>
	<polygon class="st4" points="342.7,313.8 342.7,313.7 326.6,313.7 326.6,313.8 326.6,330.5 342.7,330.5 	"/>
	<polygon class="st4" points="379,332.6 379,332.6 362.9,332.6 362.9,332.6 362.9,349.3 379,349.3 	"/>
	<rect x="381.1" y="257.3" class="st4" width="16.1" height="16.7"/>
	<polygon class="st4" points="905.2,424.6 905.2,407.9 889.1,407.9 889.1,424.6 889.1,424.6 	"/>
	<polygon class="st4" points="816.5,351.4 816.5,368.1 832.6,368.1 832.7,368.1 832.7,351.4 832.6,351.4 	"/>
	<polygon class="st4" points="979.8,424.6 996,424.6 996,407.9 979.8,407.9 979.8,407.9 979.8,424.6 979.8,424.6 	"/>
	<rect x="399.2" y="389.1" class="st4" width="16.1" height="16.7"/>
	<polygon class="st4" points="596.8,330.5 596.8,313.8 580.6,313.8 580.6,330.5 580.7,330.5 580.7,330.5 596.8,330.5 	"/>
	<polygon class="st4" points="580.6,236.3 580.7,236.3 580.7,236.4 596.8,236.4 596.8,219.6 580.6,219.6 	"/>
	<polygon class="st4" points="705.6,370.3 705.6,370.2 689.5,370.2 689.5,387 705.6,387 	"/>
	<rect x="598.8" y="407.9" class="st4" width="16.1" height="16.7"/>
	<rect x="635.1" y="332.6" class="st4" width="16.1" height="16.7"/>
	<polygon class="st4" points="542.3,276.1 526.2,276.1 526.2,276.1 526.2,292.8 526.2,292.8 542.3,292.8 	"/>
	<polygon class="st4" points="542.3,257.3 542.3,257.3 542.3,257.3 526.2,257.3 526.2,257.3 526.2,274 542.3,274 	"/>
	<rect x="489.9" y="389.1" class="st4" width="16.1" height="16.7"/>
	<polygon class="st4" points="435.5,219.6 435.5,219.6 435.5,236.3 435.5,236.3 451.6,236.3 451.6,219.6 435.5,219.6 	"/>
	<polygon class="st4" points="524.2,274 524.2,257.3 508.1,257.3 508.1,274 524.2,274 	"/>
	<polygon class="st4" points="417.3,255.2 417.4,255.2 433.5,255.2 433.5,238.5 433.5,238.4 417.3,238.4 	"/>
	<g class="st0">
		<rect x="90.7" y="332.6" class="st5" width="16.1" height="16.7"/>
		<rect x="36.3" y="351.4" class="st5" width="16.1" height="16.7"/>
		<rect x="90.7" y="351.4" class="st5" width="16.1" height="16.7"/>
		<rect x="108.9" y="370.3" class="st5" width="16.1" height="16.7"/>
		<rect x="127" y="370.3" class="st5" width="16.1" height="16.7"/>
		<rect x="18.2" y="332.6" class="st5" width="16.1" height="16.7"/>
		<rect x="961.7" y="370.3" class="st5" width="16.1" height="16.7"/>
		<polygon class="st5" points="941.5,405.8 941.5,389.1 941.5,389.1 925.4,389.1 925.4,405.8 		"/>
		<rect x="762.1" y="389.1" class="st5" width="16.1" height="16.7"/>
		<rect x="199.6" y="370.3" class="st5" width="16.1" height="16.7"/>
		<rect x="181.5" y="370.3" class="st5" width="16.1" height="16.7"/>
		<rect x="163.3" y="370.3" class="st5" width="16.1" height="16.7"/>
	</g>
	<rect x="254" y="370.3" class="st6" width="16.1" height="16.7"/>
	<rect x="671.4" y="445.6" class="st6" width="16.1" height="16.7"/>
	<rect x="598.8" y="445.6" class="st6" width="16.1" height="16.7"/>
	<rect x="417.4" y="445.6" class="st6" width="16.1" height="16.7"/>
	<rect x="580.7" y="445.6" class="st6" width="16.1" height="16.7"/>
	<rect x="580.7" y="407.9" class="st6" width="16.1" height="16.7"/>
	<rect x="562.5" y="445.6" class="st6" width="16.1" height="16.7"/>
	<rect x="580.7" y="426.7" class="st6" width="16.1" height="16.7"/>
	<rect x="653.2" y="426.7" class="st6" width="16.1" height="16.7"/>
	<polygon class="st6" points="687.5,407.9 671.4,407.9 671.4,407.9 671.4,424.6 687.5,424.6 687.5,407.9 	"/>
	<rect x="616.9" y="426.7" class="st6" width="16.1" height="16.7"/>
	<rect x="653.2" y="445.6" class="st6" width="16.1" height="16.7"/>
	<polygon class="st6" points="560.5,426.7 560.5,426.7 544.4,426.7 544.4,426.7 544.4,443.4 560.5,443.4 	"/>
	<rect x="635.1" y="445.6" class="st6" width="16.1" height="16.7"/>
	<rect x="544.4" y="445.6" class="st6" width="16.1" height="16.7"/>
	<rect x="435.5" y="426.7" class="st6" width="16.1" height="16.7"/>
	<rect x="435.5" y="445.6" class="st6" width="16.1" height="16.7"/>
	<rect x="453.6" y="445.6" class="st6" width="16.1" height="16.7"/>
	<rect x="471.8" y="426.7" class="st6" width="16.1" height="16.7"/>
	<rect x="435.5" y="407.9" class="st6" width="16.1" height="16.7"/>
	<rect x="417.4" y="426.7" class="st6" width="16.1" height="16.7"/>
	<rect x="489.9" y="445.6" class="st6" width="16.1" height="16.7"/>
	<rect x="508.1" y="426.7" class="st6" width="16.1" height="16.7"/>
	<rect x="508.1" y="445.6" class="st6" width="16.1" height="16.7"/>
	<rect x="526.2" y="445.6" class="st6" width="16.1" height="16.7"/>
	<rect x="689.5" y="445.6" class="st6" width="16.1" height="16.7"/>
	<rect x="508.1" y="407.9" class="st6" width="16.1" height="16.7"/>
	<rect x="508.1" y="389.1" class="st6" width="16.1" height="16.7"/>
	<rect x="616.9" y="445.6" class="st6" width="16.1" height="16.7"/>
	<rect x="871" y="445.6" class="st6" width="16.1" height="16.7"/>
	<rect x="689.5" y="426.7" class="st6" width="16.1" height="16.7"/>
	<rect x="889.1" y="445.6" class="st6" width="16.1" height="16.7"/>
	<polygon class="st6" points="887.1,426.7 887.1,426.7 871,426.7 871,426.7 871,443.4 887.1,443.4 	"/>
	<rect x="852.8" y="445.6" class="st6" width="16.1" height="16.7"/>
	<rect x="834.7" y="445.6" class="st6" width="16.1" height="16.7"/>
	<rect x="816.5" y="445.6" class="st6" width="16.1" height="16.7"/>
	<rect x="961.7" y="445.6" class="st6" width="16.1" height="16.7"/>
	<polygon class="st6" points="979.8,462.3 996,462.3 996,445.5 979.8,445.5 979.8,445.6 	"/>
	<polygon class="st6" points="907.3,462.3 923.4,462.3 923.4,445.6 923.4,445.5 907.3,445.5 907.3,445.6 	"/>
	<rect x="943.6" y="445.6" class="st6" width="16.1" height="16.7"/>
	<polygon class="st6" points="941.5,426.7 925.4,426.7 925.4,426.7 925.4,443.4 925.4,443.4 941.5,443.4 	"/>
	<rect x="925.4" y="445.6" class="st6" width="16.1" height="16.7"/>
	<polygon class="st6" points="905.2,443.4 905.2,426.7 905.2,426.7 889.1,426.7 889.1,443.4 905.2,443.4 	"/>
	<rect x="744" y="445.6" class="st6" width="16.1" height="16.7"/>
	<rect x="707.7" y="445.6" class="st6" width="16.1" height="16.7"/>
	<rect x="725.8" y="426.7" class="st6" width="16.1" height="16.7"/>
	<rect x="725.8" y="445.6" class="st6" width="16.1" height="16.7"/>
	<rect x="707.7" y="389.1" class="st6" width="16.1" height="16.7"/>
	<rect x="707.7" y="407.9" class="st6" width="16.1" height="16.7"/>
	<rect x="780.2" y="445.6" class="st6" width="16.1" height="16.7"/>
	<polygon class="st6" points="760.1,426.7 760.1,426.7 744,426.7 744,426.7 744,443.4 760.1,443.4 	"/>
	<rect x="798.4" y="426.7" class="st6" width="16.1" height="16.7"/>
	<rect x="798.4" y="445.6" class="st6" width="16.1" height="16.7"/>
	<rect x="798.4" y="407.9" class="st6" width="16.1" height="16.7"/>
	<rect x="762.1" y="445.6" class="st6" width="16.1" height="16.7"/>
	<rect x="762.1" y="426.7" class="st6" width="16.1" height="16.7"/>
	<rect x="471.8" y="445.6" class="st6" width="16.1" height="16.7"/>
	<rect x="127" y="426.7" class="st6" width="16.1" height="16.7"/>
	<rect x="145.2" y="445.6" class="st6" width="16.1" height="16.7"/>
	<rect x="127" y="445.6" class="st6" width="16.1" height="16.7"/>
	<rect x="145.2" y="407.9" class="st6" width="16.1" height="16.7"/>
	<rect x="90.7" y="426.7" class="st6" width="16.1" height="16.7"/>
	<rect x="108.9" y="445.6" class="st6" width="16.1" height="16.7"/>
	<rect x="108.9" y="426.7" class="st6" width="16.1" height="16.7"/>
	<polygon class="st6" points="852.8,424.6 852.8,424.6 868.9,424.6 869,424.6 869,407.9 852.8,407.9 	"/>
	<rect x="235.9" y="407.9" class="st6" width="16.1" height="16.7"/>
	<rect x="290.3" y="407.9" class="st6" width="16.1" height="16.7"/>
	<rect x="163.3" y="445.6" class="st6" width="16.1" height="16.7"/>
	<polygon class="st6" points="869,389.1 852.8,389.1 852.8,389.1 852.8,405.8 869,405.8 	"/>
	<rect x="489.9" y="407.9" class="st6" width="16.1" height="16.7"/>
	<rect x="90.7" y="445.6" class="st6" width="16.1" height="16.7"/>
	<rect x="90.7" y="407.9" class="st6" width="16.1" height="16.7"/>
	<rect x="163.3" y="426.7" class="st6" width="16.1" height="16.7"/>
	<rect x="18.2" y="389.1" class="st6" width="16.1" height="16.7"/>
	<rect x="18.2" y="407.9" class="st6" width="16.1" height="16.7"/>
	<rect x="0" y="445.6" class="st6" width="16.1" height="16.7"/>
	<rect x="18.2" y="445.6" class="st6" width="16.1" height="16.7"/>
	<rect x="72.6" y="407.9" class="st6" width="16.1" height="16.7"/>
	<rect x="0" y="407.9" class="st6" width="16.1" height="16.7"/>
	<rect x="18.2" y="426.7" class="st6" width="16.1" height="16.7"/>
	<rect x="54.5" y="426.7" class="st6" width="16.1" height="16.7"/>
	<rect x="72.6" y="445.6" class="st6" width="16.1" height="16.7"/>
	<rect x="54.5" y="445.6" class="st6" width="16.1" height="16.7"/>
	<rect x="54.5" y="407.9" class="st6" width="16.1" height="16.7"/>
	<rect x="36.3" y="445.6" class="st6" width="16.1" height="16.7"/>
	<rect x="217.8" y="407.9" class="st6" width="16.1" height="16.7"/>
	<rect x="326.6" y="426.7" class="st6" width="16.1" height="16.7"/>
	<rect x="344.8" y="445.6" class="st6" width="16.1" height="16.7"/>
	<rect x="362.9" y="407.9" class="st6" width="16.1" height="16.7"/>
	<rect x="326.6" y="445.6" class="st6" width="16.1" height="16.7"/>
	<rect x="362.9" y="445.6" class="st6" width="16.1" height="16.7"/>
	<rect x="326.6" y="407.9" class="st6" width="16.1" height="16.7"/>
	<rect x="381.1" y="407.9" class="st6" width="16.1" height="16.7"/>
	<rect x="381.1" y="426.7" class="st6" width="16.1" height="16.7"/>
	<rect x="399.2" y="445.6" class="st6" width="16.1" height="16.7"/>
	<rect x="381.1" y="445.6" class="st6" width="16.1" height="16.7"/>
	<rect x="362.9" y="426.7" class="st6" width="16.1" height="16.7"/>
	<rect x="381.1" y="389.1" class="st6" width="16.1" height="16.7"/>
	<rect x="181.5" y="445.6" class="st6" width="16.1" height="16.7"/>
	<rect x="308.5" y="426.7" class="st6" width="16.1" height="16.7"/>
	<rect x="217.8" y="445.6" class="st6" width="16.1" height="16.7"/>
	<rect x="235.9" y="445.6" class="st6" width="16.1" height="16.7"/>
	<rect x="217.8" y="426.7" class="st6" width="16.1" height="16.7"/>
	<rect x="399.2" y="426.7" class="st6" width="16.1" height="16.7"/>
	<rect x="308.5" y="445.6" class="st6" width="16.1" height="16.7"/>
	<rect x="181.5" y="426.7" class="st6" width="16.1" height="16.7"/>
	<rect x="199.6" y="445.6" class="st6" width="16.1" height="16.7"/>
	<rect x="308.5" y="389.1" class="st6" width="16.1" height="16.7"/>
	<rect x="290.3" y="445.6" class="st6" width="16.1" height="16.7"/>
	<rect x="254" y="445.6" class="st6" width="16.1" height="16.7"/>
	<rect x="308.5" y="407.9" class="st6" width="16.1" height="16.7"/>
	<rect x="272.2" y="426.7" class="st6" width="16.1" height="16.7"/>
	<rect x="272.2" y="445.6" class="st6" width="16.1" height="16.7"/>
	<rect x="616.9" y="464.4" class="st7" width="16.1" height="16.7"/>
	<rect x="653.2" y="464.4" class="st7" width="16.1" height="16.7"/>
	<rect x="635.1" y="483.2" class="st7" width="16.1" height="16.7"/>
	<rect x="671.4" y="464.4" class="st7" width="16.1" height="16.7"/>
	<rect x="635.1" y="464.4" class="st7" width="16.1" height="16.7"/>
	<rect x="653.2" y="483.2" class="st7" width="16.1" height="16.7"/>
	<rect x="671.4" y="483.2" class="st7" width="16.1" height="16.7"/>
	<rect x="689.5" y="483.2" class="st7" width="16.1" height="16.7"/>
	<rect x="707.7" y="464.4" class="st7" width="16.1" height="16.7"/>
	<rect x="725.8" y="464.4" class="st7" width="16.1" height="16.7"/>
	<rect x="725.8" y="483.2" class="st7" width="16.1" height="16.7"/>
	<rect x="707.7" y="483.2" class="st7" width="16.1" height="16.7"/>
	<rect x="689.5" y="464.4" class="st7" width="16.1" height="16.7"/>
	<rect x="544.4" y="464.4" class="st7" width="16.1" height="16.7"/>
	<rect x="526.2" y="483.2" class="st7" width="16.1" height="16.7"/>
	<rect x="526.2" y="464.4" class="st7" width="16.1" height="16.7"/>
	<rect x="744" y="483.2" class="st7" width="16.1" height="16.7"/>
	<rect x="616.9" y="483.2" class="st7" width="16.1" height="16.7"/>
	<rect x="508.1" y="483.2" class="st7" width="16.1" height="16.7"/>
	<rect x="508.1" y="464.4" class="st7" width="16.1" height="16.7"/>
	<rect x="544.4" y="483.2" class="st7" width="16.1" height="16.7"/>
	<rect x="489.9" y="464.4" class="st7" width="16.1" height="16.7"/>
	<rect x="598.8" y="483.2" class="st7" width="16.1" height="16.7"/>
	<rect x="598.8" y="464.4" class="st7" width="16.1" height="16.7"/>
	<rect x="580.7" y="483.2" class="st7" width="16.1" height="16.7"/>
	<rect x="562.5" y="483.2" class="st7" width="16.1" height="16.7"/>
	<rect x="562.5" y="464.4" class="st7" width="16.1" height="16.7"/>
	<rect x="580.7" y="464.4" class="st7" width="16.1" height="16.7"/>
	<rect x="907.3" y="483.2" class="st7" width="16.1" height="16.7"/>
	<rect x="889.1" y="464.4" class="st7" width="16.1" height="16.7"/>
	<rect x="907.3" y="464.4" class="st7" width="16.1" height="16.7"/>
	<rect x="925.4" y="483.2" class="st7" width="16.1" height="16.7"/>
	<rect x="871" y="464.4" class="st7" width="16.1" height="16.7"/>
	<rect x="889.1" y="483.2" class="st7" width="16.1" height="16.7"/>
	<rect x="925.4" y="464.4" class="st7" width="16.1" height="16.7"/>
	<rect x="979.8" y="483.2" class="st7" width="16.1" height="16.7"/>
	<rect x="871" y="483.2" class="st7" width="16.1" height="16.7"/>
	<rect x="961.7" y="464.4" class="st7" width="16.1" height="16.7"/>
	<rect x="979.8" y="464.4" class="st7" width="16.1" height="16.7"/>
	<rect x="943.6" y="483.2" class="st7" width="16.1" height="16.7"/>
	<rect x="961.7" y="483.2" class="st7" width="16.1" height="16.7"/>
	<rect x="744" y="464.4" class="st7" width="16.1" height="16.7"/>
	<rect x="780.2" y="464.4" class="st7" width="16.1" height="16.7"/>
	<rect x="798.4" y="464.4" class="st7" width="16.1" height="16.7"/>
	<rect x="798.4" y="483.2" class="st7" width="16.1" height="16.7"/>
	<rect x="780.2" y="483.2" class="st7" width="16.1" height="16.7"/>
	<rect x="762.1" y="483.2" class="st7" width="16.1" height="16.7"/>
	<rect x="762.1" y="464.4" class="st7" width="16.1" height="16.7"/>
	<rect x="852.8" y="483.2" class="st7" width="16.1" height="16.7"/>
	<rect x="834.7" y="464.4" class="st7" width="16.1" height="16.7"/>
	<rect x="852.8" y="464.4" class="st7" width="16.1" height="16.7"/>
	<rect x="816.5" y="464.4" class="st7" width="16.1" height="16.7"/>
	<rect x="816.5" y="483.2" class="st7" width="16.1" height="16.7"/>
	<rect x="834.7" y="483.2" class="st7" width="16.1" height="16.7"/>
	<rect x="943.6" y="464.4" class="st7" width="16.1" height="16.7"/>
	<rect x="108.9" y="464.4" class="st7" width="16.1" height="16.7"/>
	<rect x="145.2" y="483.2" class="st7" width="16.1" height="16.7"/>
	<rect x="163.3" y="483.2" class="st7" width="16.1" height="16.7"/>
	<rect x="127" y="464.4" class="st7" width="16.1" height="16.7"/>
	<rect x="163.3" y="464.4" class="st7" width="16.1" height="16.7"/>
	<rect x="127" y="483.2" class="st7" width="16.1" height="16.7"/>
	<rect x="145.2" y="464.4" class="st7" width="16.1" height="16.7"/>
	<rect x="199.6" y="464.4" class="st7" width="16.1" height="16.7"/>
	<rect x="217.8" y="483.2" class="st7" width="16.1" height="16.7"/>
	<rect x="217.8" y="464.4" class="st7" width="16.1" height="16.7"/>
	<rect x="199.6" y="483.2" class="st7" width="16.1" height="16.7"/>
	<rect x="181.5" y="464.4" class="st7" width="16.1" height="16.7"/>
	<rect x="181.5" y="483.2" class="st7" width="16.1" height="16.7"/>
	<rect x="0" y="464.4" class="st7" width="16.1" height="16.7"/>
	<rect x="489.9" y="483.2" class="st7" width="16.1" height="16.7"/>
	<rect x="36.3" y="483.2" class="st7" width="16.1" height="16.7"/>
	<rect x="18.2" y="483.2" class="st7" width="16.1" height="16.7"/>
	<rect x="18.2" y="464.4" class="st7" width="16.1" height="16.7"/>
	<rect x="235.9" y="483.2" class="st7" width="16.1" height="16.7"/>
	<rect x="0" y="483.2" class="st7" width="16.1" height="16.7"/>
	<rect x="72.6" y="483.2" class="st7" width="16.1" height="16.7"/>
	<rect x="90.7" y="483.2" class="st7" width="16.1" height="16.7"/>
	<rect x="72.6" y="464.4" class="st7" width="16.1" height="16.7"/>
	<rect x="54.5" y="483.2" class="st7" width="16.1" height="16.7"/>
	<rect x="90.7" y="464.4" class="st7" width="16.1" height="16.7"/>
	<rect x="108.9" y="483.2" class="st7" width="16.1" height="16.7"/>
	<rect x="54.5" y="464.4" class="st7" width="16.1" height="16.7"/>
	<rect x="36.3" y="464.4" class="st7" width="16.1" height="16.7"/>
	<rect x="399.2" y="464.4" class="st7" width="16.1" height="16.7"/>
	<rect x="417.4" y="483.2" class="st7" width="16.1" height="16.7"/>
	<rect x="399.2" y="483.2" class="st7" width="16.1" height="16.7"/>
	<rect x="381.1" y="464.4" class="st7" width="16.1" height="16.7"/>
	<rect x="381.1" y="483.2" class="st7" width="16.1" height="16.7"/>
	<rect x="417.4" y="464.4" class="st7" width="16.1" height="16.7"/>
	<rect x="453.6" y="483.2" class="st7" width="16.1" height="16.7"/>
	<rect x="453.6" y="464.4" class="st7" width="16.1" height="16.7"/>
	<rect x="471.8" y="483.2" class="st7" width="16.1" height="16.7"/>
	<rect x="471.8" y="464.4" class="st7" width="16.1" height="16.7"/>
	<rect x="362.9" y="464.4" class="st7" width="16.1" height="16.7"/>
	<rect x="235.9" y="464.4" class="st7" width="16.1" height="16.7"/>
	<rect x="435.5" y="483.2" class="st7" width="16.1" height="16.7"/>
	<rect x="435.5" y="464.4" class="st7" width="16.1" height="16.7"/>
	<rect x="272.2" y="464.4" class="st7" width="16.1" height="16.7"/>
	<rect x="272.2" y="483.2" class="st7" width="16.1" height="16.7"/>
	<rect x="290.3" y="483.2" class="st7" width="16.1" height="16.7"/>
	<rect x="254" y="483.2" class="st7" width="16.1" height="16.7"/>
	<rect x="254" y="464.4" class="st7" width="16.1" height="16.7"/>
	<rect x="290.3" y="464.4" class="st7" width="16.1" height="16.7"/>
	<rect x="308.5" y="464.4" class="st7" width="16.1" height="16.7"/>
	<rect x="344.8" y="483.2" class="st7" width="16.1" height="16.7"/>
	<rect x="344.8" y="464.4" class="st7" width="16.1" height="16.7"/>
	<rect x="326.6" y="464.4" class="st7" width="16.1" height="16.7"/>
	<rect x="308.5" y="483.2" class="st7" width="16.1" height="16.7"/>
	<rect x="362.9" y="483.2" class="st7" width="16.1" height="16.7"/>
	<rect x="326.6" y="483.2" class="st7" width="16.1" height="16.7"/>
	<rect x="0" y="87.8" class="st3" width="16.1" height="16.8"/>
	<g class="st0">
		<polygon class="st8" points="52.4,123.4 52.4,106.6 36.3,106.6 36.3,123.4 36.3,123.4 36.3,123.4 		"/>
		<polygon class="st8" points="18.1,125.5 18.1,142.2 34.3,142.2 34.3,125.5 34.3,125.5 34.3,125.5 		"/>
	</g>
	<rect x="0" y="163.1" class="st3" width="16.1" height="16.8"/>
	<rect x="118.2" y="125.5" class="st3" width="16.1" height="16.8"/>
	<rect x="127" y="163.1" class="st3" width="16.1" height="16.8"/>
	<rect x="154.4" y="163.1" class="st3" width="16.1" height="16.8"/>
	<rect x="181.5" y="200.8" class="st4" width="16.1" height="16.8"/>
	<rect x="204.6" y="144.3" class="st3" width="16.1" height="16.8"/>
	<rect x="257.1" y="144.3" class="st3" width="16.1" height="16.8"/>
</g>
</svg>
