<?xml version="1.0" encoding="utf-8"?>
<!-- Generator: Adobe Illustrator 19.2.1, SVG Export Plug-In . SVG Version: 6.00 Build 0)  -->
<?xml-stylesheet href="/css/activate.css" type="text/css"?>
<!DOCTYPE svg PUBLIC "-//W3C//DTD SVG 1.1//EN" "http://www.w3.org/Graphics/SVG/1.1/DTD/svg11.dtd">
<svg version="1.1" xmlns="http://www.w3.org/2000/svg" xmlns:xlink="http://www.w3.org/1999/xlink" x="0px" y="0px"
	 viewBox="0 0 222.6 363.6" style="enable-background:new 0 0 222.6 363.6;" xml:space="preserve">
	 <script xlink:href="/js/TimelineLite.min.js"/>
	 <script xlink:href="/js/scripts.js"/>
<style type="text/css">
	.st0{fill:#E83644;}
	.st1{fill:#2EBEC1;}
	.st2{fill:#B72133;}
	.st3{fill:#DB232A;}
	.st4{fill:#146488;}
	.st5{fill:#0D5075;}
	.st6{fill:#063249;}
	.st7{fill:#00AFB4;}
	.st8{fill:#009E9E;}
	.st9{fill:#9E2036;}
	.st10{fill:#093D5E;}
	.st11{fill:#EFC818;}
	.st12{fill:#F47721;}
</style>
<g id="flame">
	<title>clean-rocket</title>
	<polygon class="st0" points="81.6,22.3 81.6,29.8 74.2,29.8 74.2,37.2 81.6,37.2 81.6,37.1 89.1,37.1 89.1,22.3 81.6,22.3 	"/>
	<polygon class="st1" points="74.2,244.9 81.6,244.9 81.6,237.4 74.2,237.4 74.2,244.9 	"/>
	<polygon class="st1" points="66.8,215.2 66.8,222.6 74.2,222.6 74.2,215.2 66.8,215.2 	"/>
	<polygon class="st1" points="74.2,222.6 74.2,230 81.6,230 81.6,222.6 74.2,222.6 	"/>
	<polygon class="st1" points="66.8,237.4 66.8,230 59.4,230 59.4,170.7 51.9,170.7 51.9,155.8 44.5,155.8 44.5,118.7 37.1,118.7 
		37.1,222.6 44.5,222.6 44.5,244.9 51.9,244.9 51.9,259.7 59.4,259.7 59.4,274.6 81.6,274.6 81.6,259.7 74.2,259.7 74.2,244.9 
		66.8,244.9 66.8,237.4 	"/>
	<polygon class="st2" points="51.9,244.9 44.5,244.9 44.5,259.7 51.9,259.7 51.9,244.9 	"/>
	<polygon class="st2" points="51.9,259.7 51.9,274.6 59.4,274.6 59.4,259.7 51.9,259.7 	"/>
	<polygon class="st2" points="37.1,207.8 37.1,141 29.7,141 29.7,222.6 37.1,222.6 37.1,207.8 	"/>
	<polygon class="st2" points="44.5,230 44.5,222.6 37.1,222.6 37.1,244.9 44.5,244.9 44.5,230 	"/>
	<polygon class="st3" points="51.9,274.6 51.9,259.7 44.5,259.7 44.5,244.9 37.1,244.9 37.1,222.6 29.7,222.6 29.7,163.2 
		22.3,163.2 22.3,185.5 14.8,185.5 14.8,215.2 7.4,215.2 7.4,244.9 0,244.9 0,296.8 7.4,296.8 7.4,311.7 14.8,311.7 14.8,319.1 
		29.7,319.1 29.7,311.7 37.1,311.7 37.1,304.2 44.5,304.2 44.5,289.4 51.9,289.4 51.9,282 59.4,282 59.4,274.6 51.9,274.6 	"/>
	<polygon class="st3" points="111.3,22.3 111.3,0 103.9,0 103.9,7.4 96.5,7.4 96.5,14.8 89.1,14.8 89.1,37.1 118.7,37.1 118.7,22.3 
		111.3,22.3 	"/>
	<polygon class="st2" points="141,29.8 141,22.3 133.6,22.3 133.6,14.8 126.1,14.8 126.1,7.4 118.7,7.4 118.7,0 111.3,0 111.3,22.3 
		118.7,22.3 118.7,37.1 141,37.1 141,37.2 148.4,37.2 148.4,29.8 141,29.8 	"/>
	<polygon class="st4" points="96.5,289.4 89.1,289.4 89.1,282 96.5,282 96.5,289.4 	"/>
	<polygon class="st4" points="89.1,282 81.6,282 81.6,274.6 89.1,274.6 89.1,282 	"/>
	<polygon class="st5" points="89.1,274.6 89.1,282 96.5,282 96.5,274.6 89.1,274.6 	"/>
	<polygon class="st5" points="96.5,289.4 103.9,289.4 103.9,282 96.5,282 96.5,289.4 	"/>
	<polygon class="st5" points="126.2,289.4 133.6,289.4 133.6,282 126.2,282 126.2,289.4 	"/>
	<polygon class="st5" points="133.6,274.6 133.6,282 141,282 141,274.6 133.6,274.6 	"/>
	<polygon class="st6" points="148.4,274.6 141,274.6 141,282 133.6,282 133.6,289.4 148.4,289.4 148.4,282 155.8,282 155.8,274.6 
		148.4,274.6 	"/>
	<path class="st7" d="M133.6,200.4v-44.5h-7.4v7.4H96.5v-7.4H89v-7.4h-7.4V141h-7.4v-22.3h7.4v-14.8H89v-7.4h7.4v-7.4h29.7V66.8
		h-7.4V37.1H74.2v7.4h-7.4v14.8h-7.4v14.8h-7.4v22.3h-7.4v59.4h7.4v14.8h7.4V230h7.4v14.8h7.4v-7.4h7.4v7.4h-7.4v14.8h7.4v14.9h29.7
		v-14.9h7.4v-14.8h7.4V230h7.4v-22.3h7.4v-7.4H133.6L133.6,200.4z M81.6,230h-7.4v-7.4h-7.4v-7.4h7.4v7.4h7.4L81.6,230L81.6,230
		L81.6,230z M126.1,192.9h-7.4v-7.4h7.4V192.9L126.1,192.9z"/>
	<polygon class="st8" points="126.2,185.5 118.7,185.5 118.7,192.9 126.2,192.9 126.2,185.5 	"/>
	<polygon class="st8" points="178.1,118.7 178.1,96.5 170.7,96.5 170.7,74.2 163.2,74.2 163.2,59.4 155.8,59.4 155.8,44.5 
		148.4,44.5 148.4,37.1 118.7,37.1 118.7,66.8 126.2,66.8 126.2,96.5 133.6,96.5 133.6,103.9 141,103.9 141,118.7 148.4,118.7 
		148.4,141 141,141 141,148.4 133.6,148.4 133.6,230 126.2,230 126.2,244.9 118.7,244.9 118.7,259.7 111.3,259.7 111.3,274.6 
		163.2,274.6 163.2,259.7 170.7,259.7 170.7,244.9 178.1,244.9 178.1,222.6 185.5,222.6 185.5,118.7 178.1,118.7 	"/>
	<polygon class="st9" points="185.5,141 185.5,222.6 192.9,222.6 192.9,141 185.5,141 	"/>
	<polygon class="st9" points="178.1,230 178.1,244.9 185.5,244.9 185.5,222.6 178.1,222.6 178.1,230 	"/>
	<polygon class="st9" points="170.7,252.3 170.7,259.7 178.1,259.7 178.1,244.9 170.7,244.9 170.7,252.3 	"/>
	<polygon class="st9" points="163.2,267.1 163.2,274.6 170.7,274.6 170.7,259.7 163.2,259.7 163.2,267.1 	"/>
	<polygon class="st2" points="215.2,244.9 215.2,215.2 207.8,215.2 207.8,185.5 200.4,185.5 200.4,163.2 192.9,163.2 192.9,222.6 
		185.5,222.6 185.5,244.9 178.1,244.9 178.1,259.7 170.7,259.7 170.7,274.6 163.2,274.6 163.2,282 170.7,282 170.7,289.4 
		178.1,289.4 178.1,304.2 185.5,304.2 185.5,311.7 192.9,311.7 192.9,319.1 207.8,319.1 207.8,311.7 215.2,311.7 215.2,296.8 
		222.6,296.8 222.6,244.9 215.2,244.9 	"/>
	<polygon class="st10" points="81.6,274.6 66.8,274.6 66.8,282 74.2,282 74.2,289.4 89.1,289.4 89.1,282 81.6,282 81.6,274.6 	"/>
	<polygon class="st10" points="118.7,274.6 96.5,274.6 96.5,282 103.9,282 103.9,289.4 126.2,289.4 126.2,282 133.6,282 
		133.6,274.6 118.7,274.6 	"/>
	<polygon class="st10" points="133.6,118.7 133.6,103.9 118.7,103.9 118.7,96.5 103.9,96.5 103.9,103.9 89.1,103.9 89.1,118.7 
		81.6,118.7 81.6,133.6 89.1,133.6 89.1,148.4 103.9,148.4 103.9,155.8 118.7,155.8 118.7,148.4 133.6,148.4 133.6,133.6 141,133.6 
		141,118.7 133.6,118.7 	"/>
	<polygon class="st7" points="103.9,96.5 96.5,96.5 96.5,89.1 103.9,89.1 103.9,96.5 	"/>
	<polygon class="st7" points="103.9,96.5 96.5,96.5 96.5,89.1 103.9,89.1 103.9,96.5 	"/>
	<polygon class="st7" points="81.6,118.7 74.2,118.7 74.2,111.3 81.6,111.3 81.6,118.7 	"/>
	<polygon class="st7" points="103.9,163.2 96.5,163.2 96.5,155.8 103.9,155.8 103.9,163.2 	"/>
	<polygon class="st7" points="103.9,163.2 96.5,163.2 96.5,155.8 103.9,155.8 103.9,163.2 	"/>
	<polygon class="st7" points="81.6,141 74.2,141 74.2,133.6 81.6,133.6 81.6,141 	"/>
	<polygon class="st7" points="81.6,118.7 74.2,118.7 74.2,111.3 81.6,111.3 81.6,118.7 	"/>
	<polygon class="st7" points="81.6,141 74.2,141 74.2,133.6 81.6,133.6 81.6,141 	"/>
	<polygon class="st3" points="89.1,111.3 96.5,111.3 96.5,103.9 103.9,103.9 103.9,96.5 89.1,96.5 89.1,103.9 81.6,103.9 
		81.6,118.7 89.1,118.7 89.1,111.3 	"/>
	<polygon class="st3" points="111.3,89.1 103.9,89.1 103.9,96.5 111.3,96.5 111.3,89.1 	"/>
	<polygon class="st3" points="81.6,118.7 74.2,118.7 74.2,133.6 81.6,133.6 81.6,118.7 	"/>
	<polygon class="st3" points="111.3,163.2 111.3,155.8 103.9,155.8 103.9,163.2 111.3,163.2 	"/>
	<polygon class="st3" points="81.6,148.4 89.1,148.4 89.1,155.8 103.9,155.8 103.9,148.4 96.5,148.4 96.5,141 89.1,141 89.1,133.6 
		81.6,133.6 81.6,148.4 	"/>
	<polygon class="st7" points="118.7,96.5 126.2,96.5 126.2,89.1 118.7,89.1 118.7,96.5 	"/>
	<polygon class="st8" points="118.7,96.5 126.2,96.5 126.2,89.1 118.7,89.1 118.7,96.5 	"/>
	<polygon class="st8" points="141,118.7 148.4,118.7 148.4,111.3 141,111.3 141,118.7 	"/>
	<polygon class="st7" points="118.7,163.2 126.2,163.2 126.2,155.8 118.7,155.8 118.7,163.2 	"/>
	<polygon class="st8" points="118.7,163.2 126.2,163.2 126.2,155.8 118.7,155.8 118.7,163.2 	"/>
	<polygon class="st8" points="141,141 148.4,141 148.4,133.6 141,133.6 141,141 	"/>
	<polygon class="st8" points="141,141 148.4,141 148.4,133.6 141,133.6 141,141 	"/>
	<polygon class="st3" points="118.7,96.5 118.7,103.9 126.2,103.9 126.2,96.5 118.7,96.5 	"/>
	<polygon class="st3" points="111.3,89.1 111.3,96.5 118.7,96.5 118.7,89.1 111.3,89.1 	"/>
	<polygon class="st3" points="111.3,163.2 118.7,163.2 118.7,155.8 111.3,155.8 111.3,163.2 	"/>
	<polygon class="st3" points="126.2,103.9 126.2,111.3 133.6,111.3 133.6,103.9 126.2,103.9 	"/>
	<polygon class="st3" points="126.2,148.4 118.7,148.4 118.7,155.8 133.6,155.8 133.6,141 126.2,141 126.2,148.4 	"/>
	<polygon class="st2" points="126.2,96.5 126.2,103.9 133.6,103.9 133.6,96.5 126.2,96.5 	"/>
	<polygon class="st2" points="141,103.9 133.6,103.9 133.6,118.7 141,118.7 141,103.9 	"/>
	<polygon class="st2" points="141,118.7 141,133.6 148.4,133.6 148.4,118.7 141,118.7 	"/>
	<polygon class="st2" points="133.6,141 133.6,148.4 141,148.4 141,133.6 133.6,133.6 133.6,141 	"/>
</g>
<g id="Layer_2">
	<polygon class="st11" points="111.3,341.3 103.9,341.3 103.9,333.9 111.3,333.9 111.3,341.3 	"/>
	<polygon class="st11" points="103.9,341.3 96.5,341.3 96.5,333.9 103.9,333.9 103.9,341.3 	"/>
	<polygon class="st11" points="103.9,333.9 96.5,333.9 96.5,326.5 103.9,326.5 103.9,333.9 	"/>
	<polygon class="st11" points="96.5,319.1 89.1,319.1 89.1,311.7 96.5,311.7 96.5,319.1 	"/>
	<polygon class="st11" points="96.5,326.5 89.1,326.5 89.1,319.1 96.5,319.1 96.5,326.5 	"/>
	<polygon class="st11" points="96.5,341.3 89.1,341.3 89.1,333.9 96.5,333.9 96.5,341.3 	"/>
	<polygon class="st11" points="96.5,333.9 89.1,333.9 89.1,326.5 96.5,326.5 96.5,333.9 	"/>
	<polygon class="st11" points="89.1,311.7 81.6,311.7 81.6,304.2 89.1,304.2 89.1,311.7 	"/>
	<polygon class="st11" points="89.1,319.1 81.6,319.1 81.6,311.7 89.1,311.7 89.1,319.1 	"/>
	<polygon class="st11" points="89.1,326.5 81.6,326.5 81.6,319.1 89.1,319.1 89.1,326.5 	"/>
	<polygon class="st11" points="111.3,356.2 103.9,356.2 103.9,348.8 111.3,348.8 111.3,356.2 	"/>
	<polygon class="st11" points="111.3,348.8 103.9,348.8 103.9,341.3 111.3,341.3 111.3,348.8 	"/>
	<polygon class="st11" points="103.9,348.8 96.5,348.8 96.5,341.3 103.9,341.3 103.9,348.8 	"/>
	<polygon class="st11" points="111.3,363.6 103.9,363.6 103.9,356.2 111.3,356.2 111.3,363.6 	"/>
	<polygon class="st12" points="103.9,356.2 96.5,356.2 96.5,348.8 103.9,348.8 103.9,356.2 	"/>
	<polygon class="st11" points="89.1,296.8 81.6,296.8 81.6,289.4 89.1,289.4 89.1,296.8 	"/>
	<polygon class="st11" points="89.1,304.2 81.6,304.2 81.6,296.8 89.1,296.8 89.1,304.2 	"/>
	<polygon class="st12" points="111.3,296.8 103.9,296.8 103.9,289.4 111.3,289.4 111.3,296.8 	"/>
	<polygon class="st12" points="111.3,304.2 103.9,304.2 103.9,296.8 111.3,296.8 111.3,304.2 	"/>
	<polygon class="st12" points="111.3,319.1 103.9,319.1 103.9,311.7 111.3,311.7 111.3,319.1 	"/>
	<polygon class="st12" points="111.3,311.7 103.9,311.7 103.9,304.2 111.3,304.2 111.3,311.7 	"/>
	<polygon class="st12" points="103.9,296.8 96.5,296.8 96.5,289.4 103.9,289.4 103.9,296.8 	"/>
	<polygon class="st12" points="103.9,304.2 96.5,304.2 96.5,296.8 103.9,296.8 103.9,304.2 	"/>
	<polygon class="st12" points="103.9,319.1 96.5,319.1 96.5,311.7 103.9,311.7 103.9,319.1 	"/>
	<polygon class="st12" points="103.9,311.7 96.5,311.7 96.5,304.2 103.9,304.2 103.9,311.7 	"/>
	<polygon class="st12" points="96.5,296.8 89.1,296.8 89.1,289.4 96.5,289.4 96.5,296.8 	"/>
	<polygon class="st12" points="96.5,311.7 89.1,311.7 89.1,304.2 96.5,304.2 96.5,311.7 	"/>
	<polygon class="st3" points="96.5,304.2 89.1,304.2 89.1,296.8 96.5,296.8 96.5,304.2 	"/>
	<polygon class="st12" points="111.3,333.9 103.9,333.9 103.9,326.5 111.3,326.5 111.3,333.9 	"/>
	<polygon class="st12" points="111.3,326.5 103.9,326.5 103.9,319.1 111.3,319.1 111.3,326.5 	"/>
	<polygon class="st12" points="103.9,326.5 96.5,326.5 96.5,319.1 103.9,319.1 103.9,326.5 	"/>
	<polygon class="st11" points="111.3,341.3 118.7,341.3 118.7,333.9 111.3,333.9 111.3,341.3 	"/>
	<polygon class="st11" points="118.7,341.3 126.2,341.3 126.2,333.9 118.7,333.9 118.7,341.3 	"/>
	<polygon class="st11" points="118.7,333.9 126.2,333.9 126.2,326.5 118.7,326.5 118.7,333.9 	"/>
	<polygon class="st11" points="126.2,319.1 133.6,319.1 133.6,311.7 126.2,311.7 126.2,319.1 	"/>
	<polygon class="st11" points="126.2,326.5 133.6,326.5 133.6,319.1 126.2,319.1 126.2,326.5 	"/>
	<polygon class="st11" points="126.2,341.3 133.6,341.3 133.6,333.9 126.2,333.9 126.2,341.3 	"/>
	<polygon class="st11" points="126.2,333.9 133.6,333.9 133.6,326.5 126.2,326.5 126.2,333.9 	"/>
	<polygon class="st11" points="133.6,311.7 141,311.7 141,304.2 133.6,304.2 133.6,311.7 	"/>
	<polygon class="st11" points="133.6,319.1 141,319.1 141,311.7 133.6,311.7 133.6,319.1 	"/>
	<polygon class="st11" points="133.6,326.5 141,326.5 141,319.1 133.6,319.1 133.6,326.5 	"/>
	<polygon class="st11" points="111.3,356.2 118.7,356.2 118.7,348.8 111.3,348.8 111.3,356.2 	"/>
	<polygon class="st11" points="111.3,348.8 118.7,348.8 118.7,341.3 111.3,341.3 111.3,348.8 	"/>
	<polygon class="st12" points="118.7,348.8 126.2,348.8 126.2,341.3 118.7,341.3 118.7,348.8 	"/>
	<polygon class="st11" points="111.3,363.6 118.7,363.6 118.7,356.2 111.3,356.2 111.3,363.6 	"/>
	<polygon class="st11" points="118.7,356.2 126.2,356.2 126.2,348.8 118.7,348.8 118.7,356.2 	"/>
	<polygon class="st11" points="133.6,296.8 141,296.8 141,289.4 133.6,289.4 133.6,296.8 	"/>
	<polygon class="st11" points="133.6,304.2 141,304.2 141,296.8 133.6,296.8 133.6,304.2 	"/>
	<polygon class="st12" points="111.3,296.8 118.7,296.8 118.7,289.4 111.3,289.4 111.3,296.8 	"/>
	<polygon class="st3" points="111.3,304.2 118.7,304.2 118.7,296.8 111.3,296.8 111.3,304.2 	"/>
	<polygon class="st12" points="111.3,319.1 118.7,319.1 118.7,311.7 111.3,311.7 111.3,319.1 	"/>
	<polygon class="st12" points="111.3,311.7 118.7,311.7 118.7,304.2 111.3,304.2 111.3,311.7 	"/>
	<polygon class="st12" points="118.7,296.8 126.2,296.8 126.2,289.4 118.7,289.4 118.7,296.8 	"/>
	<polygon class="st12" points="118.7,304.2 126.2,304.2 126.2,296.8 118.7,296.8 118.7,304.2 	"/>
	<polygon class="st12" points="118.7,319.1 126.2,319.1 126.2,311.7 118.7,311.7 118.7,319.1 	"/>
	<polygon class="st12" points="118.7,311.7 126.2,311.7 126.2,304.2 118.7,304.2 118.7,311.7 	"/>
	<polygon class="st12" points="126.2,296.8 133.6,296.8 133.6,289.4 126.2,289.4 126.2,296.8 	"/>
	<polygon class="st12" points="126.2,311.7 133.6,311.7 133.6,304.2 126.2,304.2 126.2,311.7 	"/>
	<polygon class="st11" points="126.2,304.2 133.6,304.2 133.6,296.8 126.2,296.8 126.2,304.2 	"/>
	<polygon class="st12" points="111.3,333.9 118.7,333.9 118.7,326.5 111.3,326.5 111.3,333.9 	"/>
	<polygon class="st11" points="111.3,326.5 118.7,326.5 118.7,319.1 111.3,319.1 111.3,326.5 	"/>
	<polygon class="st12" points="118.7,326.5 126.2,326.5 126.2,319.1 118.7,319.1 118.7,326.5 	"/>
</g>
</svg>
