<?xml version="1.0" standalone="no"?>
<!DOCTYPE svg PUBLIC "-//W3C//DTD SVG 20010904//EN"
 "http://www.w3.org/TR/2001/REC-SVG-20010904/DTD/svg10.dtd">
<svg version="1.0" xmlns="http://www.w3.org/2000/svg"
 width="1024.000000pt" height="1024.000000pt" viewBox="0 0 1024.000000 1024.000000"
 preserveAspectRatio="xMidYMid meet">
<metadata>
Created by potrace 1.11, written by Peter Selinger 2001-2013
</metadata>
<g transform="translate(0.000000,1024.000000) scale(0.100000,-0.100000)"
fill="#000000" stroke="none">
<path d="M0 5120 l0 -5120 5120 0 5120 0 0 5120 0 5120 -5120 0 -5120 0 0
-5120z m6905 2360 l55 54 266 -264 c145 -146 308 -311 361 -368 l96 -103 -49
-50 -48 -49 -56 52 -55 53 53 -55 52 -56 -50 -49 -50 -49 -58 54 -57 55 55
-57 54 -58 -49 -50 -49 -50 -56 52 -55 53 52 -55 53 -55 -52 -52 -52 -53 52
-53 52 -53 -50 -49 -50 -49 -58 54 -57 55 55 -57 54 -58 -49 -50 -49 -50 -56
52 -55 53 53 -55 52 -56 -50 -49 -50 -49 -52 49 -53 50 50 -52 49 -53 -49 -50
-49 -50 -103 102 -103 103 52 52 53 53 -108 107 -107 108 -56 -55 -55 -55
-101 108 -101 108 -54 -53 -53 -53 -52 53 -53 52 -107 -107 -108 -107 -53 52
-52 52 -105 -105 -104 -105 52 -53 52 -52 -105 -105 -105 -105 52 -52 52 -53
-52 -53 -52 -52 105 -105 105 -105 -52 -52 -53 -53 108 -108 107 -107 52 53
53 52 102 -102 103 -103 -317 -320 c-175 -176 -221 -224 -103 -107 l215 212
50 -50 50 -50 -210 -213 -210 -212 212 210 213 210 50 -50 50 -50 -630 -630
-630 -630 -50 50 -50 50 367 370 368 370 -370 -368 -370 -367 -50 50 -50 50
370 373 370 372 -372 -370 -373 -370 -50 50 -50 49 107 111 108 110 -110 -107
-110 -108 -105 105 -105 105 -105 -107 c-58 -59 -81 -86 -52 -58 l52 49 50
-49 50 -50 -50 -50 -50 -50 -417 417 -418 418 105 105 104 105 -52 53 -52 52
105 105 105 105 -50 50 c-28 28 -50 55 -50 60 0 6 69 79 153 162 l153 152 -48
48 c-26 26 -48 52 -48 58 0 5 329 338 730 740 l730 730 53 -53 53 -52 157 157
157 158 53 -53 53 -52 157 157 157 158 53 -53 53 -52 104 105 105 105 55 -55
55 -55 105 105 105 105 52 -52 53 -52 55 54z m890 -790 l100 -100 -50 -50 -50
-50 -50 50 -49 50 49 53 50 52 -52 -50 -53 -49 -52 49 -53 50 50 -53 50 -52
-50 -50 -50 -50 -50 50 -49 50 99 100 c55 55 102 100 105 100 3 0 50 -45 105
-100z m-262 -158 l47 -48 -50 -49 -50 -49 -52 49 -53 50 50 -53 50 -52 -50
-50 -50 -50 -50 50 -49 50 99 100 c55 55 102 100 105 100 3 0 27 -22 53 -48z
m210 0 l47 -48 -50 -49 -50 -49 -52 49 -53 50 50 -53 50 -52 -50 -50 -50 -50
-50 50 -49 50 99 100 c55 55 102 100 105 100 3 0 27 -22 53 -48z m210 0 l47
-48 -50 -49 -50 -49 -52 49 -53 50 50 -53 50 -52 -50 -50 -50 -50 -50 50 -49
50 99 100 c55 55 102 100 105 100 3 0 27 -22 53 -48z m-420 -210 l47 -48 -50
-49 -50 -49 -52 49 -53 50 50 -53 50 -52 -50 -50 -50 -50 -50 50 -49 50 99
100 c55 55 102 100 105 100 3 0 27 -22 53 -48z m210 0 l47 -48 -50 -49 -50
-49 -52 49 -53 50 50 -53 50 -52 -50 -50 -50 -50 -50 50 -49 50 99 100 c55 55
102 100 105 100 3 0 27 -22 53 -48z m210 0 l47 -48 -50 -49 -50 -49 -52 49
-53 50 50 -53 50 -52 -50 -50 -50 -50 -50 50 -49 50 99 100 c55 55 102 100
105 100 3 0 27 -22 53 -48z m-630 -210 l47 -48 -50 -49 -50 -49 -52 49 -53 50
50 -53 50 -52 -50 -50 -50 -50 -50 50 -49 50 99 100 c55 55 102 100 105 100 3
0 27 -22 53 -48z m210 0 l47 -48 -50 -49 -50 -49 -52 49 -53 50 50 -53 50 -52
-50 -50 -50 -50 -50 50 -49 50 99 100 c55 55 102 100 105 100 3 0 27 -22 53
-48z m262 -52 l100 -100 -103 -102 -102 -103 -50 50 -50 50 50 50 50 49 53
-49 52 -50 -50 53 -49 52 49 53 50 52 -52 -50 -53 -49 -52 49 -53 50 50 -53
50 -52 -50 -50 -50 -50 -50 50 -49 50 99 100 c55 55 102 100 105 100 3 0 50
-45 105 -100z m-682 -158 l47 -48 -50 -49 -50 -49 -52 49 -53 50 50 -53 50
-52 -50 -50 -50 -50 -50 50 -49 50 99 100 c55 55 102 100 105 100 3 0 27 -22
53 -48z m210 0 l47 -48 -50 -49 -50 -49 -52 49 -53 50 50 -53 50 -52 -50 -50
-50 -50 -50 50 -49 50 99 100 c55 55 102 100 105 100 3 0 27 -22 53 -48z m262
-52 l100 -100 -50 -50 -50 -50 -50 50 -49 50 49 53 50 52 -52 -50 -53 -49 -52
49 -53 50 50 -53 50 -52 -50 -50 -50 -50 -50 50 -49 50 99 100 c55 55 102 100
105 100 3 0 50 -45 105 -100z m-472 -158 l47 -48 -50 -49 -50 -49 -52 49 -53
50 50 -53 49 -52 -52 -53 -52 -52 52 -53 53 -52 -50 -50 -49 -50 -103 102
-103 103 152 152 c84 84 155 153 158 153 3 0 27 -22 53 -48z m210 0 l47 -48
-50 -49 -50 -49 -52 49 -53 50 50 -53 50 -52 -50 -50 -50 -50 -50 50 -49 50
99 100 c55 55 102 100 105 100 3 0 27 -22 53 -48z m210 0 l47 -48 -50 -49 -50
-49 -52 49 -53 50 50 -53 50 -52 -50 -50 -50 -50 -50 50 -49 50 99 100 c55 55
102 100 105 100 3 0 27 -22 53 -48z m210 0 l47 -48 -50 -49 -50 -49 -52 49
-53 50 50 -53 50 -52 -103 -103 -102 -102 -50 50 -50 50 50 50 50 49 53 -49
52 -50 -50 53 -49 52 99 100 c55 55 102 100 105 100 3 0 27 -22 53 -48z m-630
-210 l47 -48 -50 -49 -50 -49 -50 49 -50 49 47 48 c26 26 50 48 53 48 3 0 27
-22 53 -48z m262 -52 l100 -100 -50 -50 -50 -50 -50 50 -49 50 49 53 50 52
-52 -50 -53 -49 -52 49 -53 50 50 -53 50 -52 -50 -50 -50 -50 -50 50 -49 50
99 100 c55 55 102 100 105 100 3 0 50 -45 105 -100z m-472 -158 l47 -48 -50
-49 -50 -49 -52 49 -53 50 50 -53 50 -52 -50 -50 -50 -50 -50 50 -49 50 99
100 c55 55 102 100 105 100 3 0 27 -22 53 -48z m210 0 l47 -48 -50 -49 -50
-49 -52 49 -53 50 50 -53 50 -52 -50 -50 -50 -50 -50 50 -49 50 99 100 c55 55
102 100 105 100 3 0 27 -22 53 -48z m210 0 l47 -48 -50 -49 -50 -49 -52 49
-53 50 50 -53 50 -52 -50 -50 -50 -50 -50 50 -49 50 99 100 c55 55 102 100
105 100 3 0 27 -22 53 -48z m210 0 l47 -48 -50 -49 -50 -49 -52 49 -53 50 50
-53 50 -52 -103 -103 -102 -102 -50 50 -50 50 50 50 50 49 53 -49 52 -50 -50
53 -49 52 99 100 c55 55 102 100 105 100 3 0 27 -22 53 -48z m-843 -307 l-50
-50 -52 50 -53 50 50 -52 49 -53 -49 -50 -50 -50 -50 50 -50 50 50 52 50 53
-52 -50 -53 -49 -50 49 -50 49 102 103 103 103 102 -102 103 -103 -50 -50z
m-365 45 l100 -100 -50 -50 -50 -50 -50 50 -49 50 49 53 50 52 -52 -50 -53
-49 -52 49 -53 50 50 -53 50 -52 -50 -50 -50 -50 -50 50 -49 50 99 100 c55 55
102 100 105 100 3 0 50 -45 105 -100z m578 52 l47 -48 -50 -49 -50 -49 -52 49
-53 50 50 -53 50 -52 -50 -50 -50 -50 -50 50 -49 50 99 100 c55 55 102 100
105 100 3 0 27 -22 53 -48z m262 -52 l100 -100 -50 -50 -50 -50 -50 50 -49 50
49 53 50 52 -52 -50 -53 -49 -52 49 -53 50 50 -53 50 -52 -50 -50 -50 -50 -50
50 -49 50 99 100 c55 55 102 100 105 100 3 0 50 -45 105 -100z m-1102 -158
l47 -48 -50 -49 -50 -49 -50 49 -50 49 47 48 c26 26 50 48 53 48 3 0 27 -22
53 -48z m210 0 l47 -48 -50 -49 -50 -49 -52 49 -53 50 50 -53 50 -52 -50 -50
-50 -50 -50 50 -49 50 99 100 c55 55 102 100 105 100 3 0 27 -22 53 -48z m210
0 l47 -48 -50 -49 -50 -49 -52 49 -53 50 50 -53 50 -52 -50 -50 -50 -50 -50
50 -49 50 99 100 c55 55 102 100 105 100 3 0 27 -22 53 -48z m210 0 l47 -48
-50 -49 -50 -49 -52 49 -53 50 50 -53 50 -52 -50 -50 -50 -50 -50 50 -49 50
99 100 c55 55 102 100 105 100 3 0 27 -22 53 -48z m210 0 l47 -48 -50 -49 -50
-49 -52 49 -53 50 50 -53 50 -52 -50 -50 -50 -50 -50 50 -49 50 99 100 c55 55
102 100 105 100 3 0 27 -22 53 -48z m210 0 l47 -48 -50 -49 -50 -49 -52 49
-53 50 50 -53 50 -52 -50 -50 -50 -50 -50 50 -49 50 99 100 c55 55 102 100
105 100 3 0 27 -22 53 -48z m210 0 l47 -48 -50 -49 -50 -49 -52 49 -53 50 50
-53 50 -52 -103 -103 -102 -102 -50 50 -50 50 50 50 50 49 53 -49 52 -50 -50
53 -49 52 99 100 c55 55 102 100 105 100 3 0 27 -22 53 -48z m-1050 -210 l47
-48 -50 -49 -50 -49 -52 49 -53 50 50 -53 50 -52 -210 -213 -210 -212 212 210
213 210 50 -50 50 -50 -212 -215 -213 -215 215 213 215 212 50 -50 50 -50
-630 -630 -630 -630 -50 50 -50 50 370 373 370 372 -372 -370 -373 -370 -50
50 -50 50 367 370 368 370 -370 -368 -370 -367 -50 50 -50 50 680 680 c374
374 682 680 685 680 3 0 27 -22 53 -48z m210 0 l47 -48 -50 -49 -50 -49 -52
49 -53 50 50 -52 49 -53 -49 -52 -50 -53 53 50 52 49 50 -49 50 -50 -50 -50
-50 -50 -102 103 -103 102 100 100 c55 55 102 100 105 100 3 0 27 -22 53 -48z
m210 0 l47 -48 -50 -49 -50 -49 -52 49 -53 50 50 -53 50 -52 -50 -50 -50 -50
-50 50 -49 50 99 100 c55 55 102 100 105 100 3 0 27 -22 53 -48z m262 -52
l100 -100 -103 -102 -102 -103 -50 50 -50 50 50 50 50 49 53 -49 52 -50 -50
53 -49 52 49 53 50 52 -52 -50 -53 -49 -52 49 -53 50 50 -53 50 -52 -50 -50
-50 -50 -50 50 -49 50 99 100 c55 55 102 100 105 100 3 0 50 -45 105 -100z
m-210 -210 l100 -100 -103 -102 -102 -103 -50 50 -50 50 50 50 50 49 53 -49
52 -50 -50 53 -49 52 49 53 50 52 -52 -50 -53 -49 -52 49 -53 50 50 -53 50
-52 -50 -50 -50 -50 -50 50 -49 50 99 100 c55 55 102 100 105 100 3 0 50 -45
105 -100z m-210 -210 l100 -100 -365 -365 -365 -365 -50 50 -50 50 365 368
c201 202 128 131 -162 -158 l-528 -525 -50 50 -50 50 522 522 c288 288 525
523 528 523 3 0 50 -45 105 -100z m-2631 -738 c229 -227 416 -416 416 -420 0
-4 -117 -124 -260 -267 l-260 -260 -53 53 -53 52 -99 -100 c-55 -55 -104 -100
-110 -100 -6 0 -33 23 -60 51 l-50 50 -102 -108 -102 -108 -53 52 -53 53 -53
-53 -52 -52 -107 107 -108 108 55 55 54 55 -48 49 -49 50 98 106 98 106 -46
47 c-26 26 -47 52 -47 58 0 5 45 54 100 109 l100 99 -52 53 -53 53 260 260
c143 143 263 259 267 258 3 -2 193 -189 422 -416z m471 268 l-50 -50 -50 50
-50 50 50 50 50 50 50 -50 50 -50 -50 -50z m160 -60 l100 -100 -50 -50 -50
-50 -50 50 -49 50 49 53 50 52 -52 -50 -53 -49 -52 49 -53 50 50 -52 49 -53
-49 -52 -50 -53 53 50 52 49 50 -49 50 -50 -50 -50 -50 -50 -102 103 -103 102
100 100 c55 55 102 100 105 100 3 0 50 -45 105 -100z m210 -210 l100 -100 -50
-50 -50 -50 -50 50 -49 50 49 53 50 52 -52 -50 -53 -49 -52 49 -53 50 50 -52
49 -53 -49 -52 -50 -53 53 50 52 49 50 -49 50 -50 -50 -50 -50 -50 -102 103
-103 102 100 100 c55 55 102 100 105 100 3 0 50 -45 105 -100z m210 -210 l100
-100 -103 -103 -102 -102 -102 102 -103 103 100 100 c55 55 102 100 105 100 3
0 50 -45 105 -100z"/>
<path d="M5530 4643 l-55 -58 58 55 c53 50 62 60 54 60 -1 0 -27 -26 -57 -57z"/>
<path d="M3430 3595 l-55 -55 55 -55 55 -55 55 55 55 55 -55 55 -55 55 -55
-55z"/>
<path d="M3742 3277 l-52 -53 55 -54 55 -54 55 54 55 54 -52 53 c-29 29 -55
53 -58 53 -3 0 -29 -24 -58 -53z"/>
<path d="M4795 3173 l49 -53 -49 -52 -50 -53 53 50 52 49 53 -49 52 -50 -50
53 -49 52 49 53 50 52 -52 -50 -53 -49 -52 49 -53 50 50 -52z"/>
</g>
</svg>
